<svg xmlns="http://www.w3.org/2000/svg" width="32.903" height="32.903" viewBox="0 0 32.903 32.903">
  <path id="at" d="M32.9,16.452a1.285,1.285,0,1,1-2.571,0A13.881,13.881,0,1,0,16.452,30.333,13.727,13.727,0,0,0,22.8,28.8a1.285,1.285,0,0,1,1.178,2.285A16.455,16.455,0,1,1,32.9,16.452Zm-1.551,4.677a1.285,1.285,0,0,1,.036,1.817,5.428,5.428,0,0,1-8.712-1.222,8.157,8.157,0,1,1,1.937-5.273v2.731a2.86,2.86,0,0,0,4.922,1.982A1.285,1.285,0,0,1,31.352,21.129Zm-9.309-4.677a5.591,5.591,0,1,0-5.591,5.591,5.6,5.6,0,0,0,5.591-5.591Z" transform="translate(0 0)" fill="#ddd"/>
</svg>
