<svg xmlns="http://www.w3.org/2000/svg" xmlns:xlink="http://www.w3.org/1999/xlink" width="250.632" height="34.652" viewBox="0 0 250.632 34.652">
  <defs>
    <linearGradient id="linear-gradient" x1="0.5" x2="0.5" y2="1" gradientUnits="objectBoundingBox">
      <stop offset="0" stop-color="#f05860"/>
      <stop offset="1" stop-color="#db494c"/>
    </linearGradient>
  </defs>
  <g id="BEAUTILOCKS" transform="translate(-6.4 -3.4)">
    <g id="Group_4" data-name="Group 4" transform="translate(6.4 5.619)">
      <path id="Path_1" data-name="Path 1" d="M97.129,109.334l-.277.063h0l-.151.038.1.416.391-.088v-.429A.056.056,0,0,0,97.129,109.334Z" transform="translate(-85.313 -98.187)" fill="url(#linear-gradient)"/>
      <path id="Path_2" data-name="Path 2" d="M96.76,94.829a1.821,1.821,0,0,0,.088,1.311l.2-.05a.313.313,0,0,1,.1-.013V94.4A.988.988,0,0,0,96.76,94.829Z" transform="translate(-85.285 -85.144)" fill="url(#linear-gradient)"/>
      <path id="Path_3" data-name="Path 3" d="M143.854,62.568a1.054,1.054,0,0,0,.139-.668.989.989,0,0,1-.063.177,1.237,1.237,0,0,1-.53.366c.013.214.025.429.025.656A1.8,1.8,0,0,0,143.854,62.568Z" transform="translate(-126.125 -56.743)" fill="url(#linear-gradient)"/>
      <path id="Path_4" data-name="Path 4" d="M96.077,54.478a1.088,1.088,0,0,0-.177.593,1.067,1.067,0,0,0,.492.908c.013,0,.025,0,.025.013.025.013.038.025.063.038V54.1A1.056,1.056,0,0,0,96.077,54.478Z" transform="translate(-84.614 -49.926)" fill="url(#linear-gradient)"/>
      <path id="Path_5" data-name="Path 5" d="M77.792,57.707a.64.64,0,0,1,.378-.467,1.708,1.708,0,0,1-.025-.252,1.2,1.2,0,0,1,.2-.681,5.14,5.14,0,0,0-2.169.542l.82-.1c.05-.013.1.038.113.088v.013a.107.107,0,0,1-.088.1L75.8,57.1l.668.605a.1.1,0,0,1-.126.151l-.366-.328a4.874,4.874,0,0,0,1.463,1.664,1.311,1.311,0,0,1,.4-.857A.68.68,0,0,1,77.792,57.707Zm-.429-.908c-.013-.05.038-.1.088-.113l.29-.038c.05-.013.1.038.113.088v.013a.107.107,0,0,1-.088.1l-.3.038A.1.1,0,0,1,77.364,56.8Z" transform="translate(-67.049 -51.843)" fill="url(#linear-gradient)"/>
      <path id="Path_6" data-name="Path 6" d="M91.405,71.1a1.092,1.092,0,0,0-1.11,1.059,1.108,1.108,0,0,0,.454.933.678.678,0,0,1-.063-.265V72.8a.668.668,0,0,1,.694-.643.973.973,0,0,0,.189-.025v-.984a.633.633,0,0,0-.151-.025C91.43,71.111,91.418,71.111,91.405,71.1Z" transform="translate(-79.716 -64.781)" fill="url(#linear-gradient)"/>
      <path id="Path_7" data-name="Path 7" d="M115.453,21h-.328l-.025.883a2.868,2.868,0,0,1,.328.025Z" transform="translate(-101.393 -21)" fill="url(#linear-gradient)"/>
      <path id="Path_8" data-name="Path 8" d="M93.121,33.111a.1.1,0,0,1,0-.2h.038v-.1l-.605-.013a.4.4,0,0,0-.454.353.357.357,0,0,0,.113.252.484.484,0,0,0,.315.113l.618.013V33.1Zm-.151-.1a.108.108,0,0,1-.1.1l-.277-.013a.1.1,0,0,1,0-.2l.277.013a.1.1,0,0,1,.1.1Z" transform="translate(-81.293 -31.307)" fill="url(#linear-gradient)"/>
      <path id="Path_9" data-name="Path 9" d="M11.868,267.4l-.668.87h.265l.668-.87Z" transform="translate(-10.595 -236.329)" fill="url(#linear-gradient)"/>
      <path id="Path_10" data-name="Path 10" d="M43.8,266.676l.429.9h.189l-.479-.971Z" transform="translate(-39.084 -235.63)" fill="url(#linear-gradient)"/>
      <path id="Path_11" data-name="Path 11" d="M30.763,265.978c-.013,0-.025.013-.038.013a.114.114,0,0,1-.088-.038.114.114,0,0,0,.088.038.055.055,0,0,0,.038-.013.084.084,0,0,0,.05-.088.046.046,0,0,0-.013-.038l-.038-.088-.088.038a.109.109,0,0,0-.05.126l-.164-.328-1.034.5.164.328a.012.012,0,0,0,.013.013.1.1,0,0,1-.05.114l-.252.126h.694l-.076-.164a.373.373,0,0,1-.025-.126.3.3,0,0,1,.151-.252.272.272,0,0,1,.366.126l.2.4h.731l-.391-.807Z" transform="translate(-26.412 -234.756)" fill="url(#linear-gradient)"/>
      <path id="Path_12" data-name="Path 12" d="M29.976,137.321h0v-.05h0v-.025a1.232,1.232,0,0,0-.076-.946v2.547l.731.681.63-.58-1.274-1.614h0l-.013-.013C29.988,137.334,29.988,137.321,29.976,137.321Zm.2.555a.1.1,0,0,1,.139.013l.731.958a.1.1,0,0,1,.025.063.09.09,0,0,1-.038.076.1.1,0,0,1-.139-.013l-.731-.958A.1.1,0,0,1,30.177,137.876Z" transform="translate(-26.937 -121.761)" fill="url(#linear-gradient)"/>
      <path id="Path_13" data-name="Path 13" d="M207.693,236.89h-.076a.095.095,0,0,1-.013-.189l.29-.013c.076-.088.164-.177.227-.265l-.088-.025a.1.1,0,1,1,.038-.189l.177.038a1.09,1.09,0,0,0,.088-.126l-.593-.3a.1.1,0,0,1-.038-.139.084.084,0,0,1,.088-.05.1.1,0,0,1,.05.013l.618.315c.063-.1.126-.189.189-.29a3.6,3.6,0,0,0-1.1-.467h-.025c-.088.063-.139.416-.164.631-.013.1-.025.2-.038.277a2.219,2.219,0,0,1-.088.277c-.063.2-.177.542-.126.631,0,.013.013.013.025.013a3.2,3.2,0,0,0,.366.05Z" transform="translate(-181.792 -208.19)" fill="url(#linear-gradient)"/>
      <path id="Path_14" data-name="Path 14" d="M30.1,123.839l.24-.214-.151-.164a.1.1,0,0,1,.139-.139l.151.164.063-.063-.151-.164a.1.1,0,0,1,.139-.139l.151.164.454-.416a.41.41,0,0,0,.139-.315.494.494,0,0,0-.113-.328.453.453,0,0,0-.63-.025l-.63.593v.719A1.537,1.537,0,0,1,30.1,123.839Z" transform="translate(-26.937 -109.338)" fill="url(#linear-gradient)"/>
      <path id="Path_15" data-name="Path 15" d="M166.061,108.668c.227-.063.454-.139.668-.214l.151-.782a.1.1,0,0,1,.114-.076.1.1,0,0,1,.076.1v.025l-.139.668c.038-.013.063-.025.1-.038l.227-1.236v-.038h0a.012.012,0,0,1,.013-.013h0l.013-.013h0l.013-.013a1.259,1.259,0,0,0,.757-1.021.1.1,0,0,1,.113-.088.1.1,0,0,1,.088.1v.013a1.747,1.747,0,0,1-.113.441l.328.038.025-.214a.1.1,0,0,1,.113-.088.1.1,0,0,1,.088.1v.013l-.025.214.088.013.025-.214a.1.1,0,0,1,.113-.088.1.1,0,0,1,.088.1v.013l-.025.214.605.063a.444.444,0,0,0,.328-.1.453.453,0,0,0,.164-.3.445.445,0,0,0-.1-.328.453.453,0,0,0-.3-.164l-1.551-.164a.1.1,0,0,1-.088-.063,1.261,1.261,0,0,0-1.072-.883,1.3,1.3,0,0,0-.933.265,1.262,1.262,0,0,0,.025,1.992.09.09,0,0,1,.038.076h0Zm1.211-2.736a.383.383,0,0,1-.151.265.417.417,0,0,1-.29.088.4.4,0,0,1-.353-.441.406.406,0,0,1,.441-.353.4.4,0,0,1,.353.4Zm.139-.706a.09.09,0,0,1,.139.013,1.01,1.01,0,0,1,.214.416v.025a.1.1,0,0,1-.076.1.1.1,0,0,1-.113-.076.733.733,0,0,0-.164-.328A.115.115,0,0,1,167.41,105.226Zm-1.349.921a.1.1,0,0,1-.113-.076.99.99,0,0,1,.113-.706.931.931,0,0,1,1.185-.353.1.1,0,0,1,.063.088.046.046,0,0,1-.013.038.092.092,0,0,1-.126.05.7.7,0,0,0-.479-.05.82.82,0,0,0-.467.328.715.715,0,0,0-.088.555A.112.112,0,0,1,166.061,106.146Z" transform="translate(-145.469 -94.091)" fill="url(#linear-gradient)"/>
      <path id="Path_16" data-name="Path 16" d="M7.283,267.4a.1.1,0,0,1-.139.013l-.025-.013H6.7l.29.214a.109.109,0,0,1,.038.076c0,.025-.013.038-.025.063a.1.1,0,0,1-.139.013l-.467-.353v.328l.315.24a.109.109,0,0,1,.038.076c0,.025-.013.038-.025.063a.1.1,0,0,1-.139.013l-.189-.139v.277h.353l.668-.87Z" transform="translate(-6.4 -236.329)" fill="url(#linear-gradient)"/>
      <path id="Path_17" data-name="Path 17" d="M13.588,52.7a.733.733,0,0,1,.58-.857l.933-.214a.64.64,0,0,1,.706.24l.151-.038a.642.642,0,0,1,.53-.53l.933-.214a.755.755,0,0,1,.845.391V49.889l-.416.227a.505.505,0,0,1-.492.05l-.567.3a.1.1,0,0,1-.126-.025l-.29-.378a.115.115,0,0,1,0-.126l.441-.479a.1.1,0,0,1,.076-.113A.1.1,0,0,1,17,49.41h0l.441.593a.179.179,0,0,0,.076.025.272.272,0,0,0,.214-.063.012.012,0,0,0,.013-.013l.517-.277v-.151l-.252.139a.1.1,0,1,1-.1-.177l.315-.164a.044.044,0,0,0,.025-.013V47.947l-1.135,1.211a.1.1,0,0,1-.139-.139l1.274-1.362V44.29a.391.391,0,0,1-.164-.076l-.013-.013-1.715-2.081a.474.474,0,0,1-.088-.656l.252-.34.113-.113a.1.1,0,0,1,.113.164.152.152,0,0,0-.063.063l-.252.34a.237.237,0,0,0-.05.2.276.276,0,0,0,.1.177l.013.013,1.715,2.081c.013.013.025.013.038.025v-.252a.069.069,0,0,1-.063-.038L18,43.559a.1.1,0,0,1,.151-.126l.1.126V41.718L17.106,41.2a.1.1,0,1,1,.076-.177l1.072.479V39.99L18,40.116a.47.47,0,0,1-.63-.227h0l-.151-.34-1.034-2.181a.1.1,0,0,1,.177-.076L17.4,39.473l.151.328h0v.013a.283.283,0,0,0,.366.126l.34-.164v-.605a.092.092,0,0,1-.126-.05.089.089,0,0,1,.05-.126l.088-.038v-.845l-.656-1.387a.1.1,0,0,1,.177-.076l.479,1.009v-.832l-.151-.328a.1.1,0,1,1,.177-.076l.189.391h.391l-.252-.542a.1.1,0,1,1,.177-.076l.3.63h.328l-.366-.769a.108.108,0,0,1,0-.088h-.794V32.815l-.441.1a.1.1,0,0,1-.113-.076l-.139-.605a.1.1,0,0,1,.076-.113l.139-.038a2.049,2.049,0,0,1-.076-1.438,1.131,1.131,0,0,1,.567-.567V28.541a.98.98,0,0,1-.2.025.476.476,0,0,0-.34.126.471.471,0,0,0-.151.328.505.505,0,0,0,.151.366c.063.063.1.1.1.151a.084.084,0,0,1-.05.088c-.05.038-.113.025-.2-.013a1.3,1.3,0,0,1-.782-1.059c-.883-.328-1.929-2.257-1.98-2.333,0-.013,0-.013-.013-.025h0v-.063h0c0-.013,0-.013.013-.025h0l.013-.013h0l.013-.013c.1-.038,2.068-1.034,2.976-.794a1.311,1.311,0,0,1,.454-.328V23.421l-.63-.013a.68.68,0,0,1-.441-.164.532.532,0,0,1-.189-.4.61.61,0,0,1,.656-.542l.605.013V21.87H19.93l.025-.87H18.442a1.418,1.418,0,0,1-.58.441,1.51,1.51,0,0,1-1.387-.063.1.1,0,0,1,.113-.164,1.288,1.288,0,0,0,1.185.038A1.1,1.1,0,0,0,18.165,21h-1.7v.05a.012.012,0,0,1-.013.013h0a.012.012,0,0,1-.013.013h0l-.013.013h-.1a.012.012,0,0,1-.013-.013h0l-.013-.013h0l-.013-.013h0c-.013-.013-.025-.038-.038-.05h-.53a3.676,3.676,0,0,0-.366.29,1.454,1.454,0,0,1-.643.4.954.954,0,0,1-.189-.013,1.054,1.054,0,0,0,.668.164,1.343,1.343,0,0,0,1.059-.542.1.1,0,0,1,.177.1,1.489,1.489,0,0,1-1.211.643.976.976,0,0,1-1.009-.467.131.131,0,0,1,.025-.177c.076-.063.164,0,.2.038a.416.416,0,0,0,.29.063c.113,0,.34-.2.517-.353.05-.05.113-.088.164-.139H12.44l.542,1.11a.046.046,0,0,1,.013.038V22.2c-.013.025-.025.05-.05.05l-.5.24.164.328a.046.046,0,0,1,.013.038.106.106,0,0,1-.05.088l-1.211.593a.08.08,0,0,1-.076,0c-.025-.013-.05-.025-.05-.05l-.2-.416a.1.1,0,1,1,.177-.076l.164.328,1.034-.5-.164-.328h0a.089.089,0,0,1,.05-.126l.5-.24L12.213,21h-.177l.227.467a.046.046,0,0,1,.013.038.106.106,0,0,1-.05.088.089.089,0,0,1-.126-.05L11.81,21h-.4a.588.588,0,0,1-.088.479l.467.958a.373.373,0,0,1,.025.126.3.3,0,0,1-.151.252.253.253,0,0,1-.214.013.3.3,0,0,1-.164-.139l-.467-.958a.581.581,0,0,1-.53-.731H9.83l1.059,2.131a.046.046,0,0,1,.013.038.106.106,0,0,1-.05.088l-.29.139a.08.08,0,0,1-.076,0,.126.126,0,0,1-.063-.05L9.25,21H6.4v.87h.618l-.063-.139a.1.1,0,0,1,.177-.076l.088.214h.151l-.063-.164a.8.8,0,0,1-.088-.3.288.288,0,0,1,.189-.265c.328-.139.467.189.53.34l.164.391H9.376v6.469l.164.265a.076.076,0,0,1,.013.05.1.1,0,0,1-.025.063c-.05.063-.113.126-.164.189v1.828l1.929.2a.705.705,0,0,1,.517.378l.038.076.454.063.025-.177c.013-.1.063-.416.366-.378a.421.421,0,0,1,.366.416v.025l.227.038a.107.107,0,0,1,.088.1v.013a.121.121,0,0,1-.113.088l-.227-.038-.025.177.227.038a.107.107,0,0,1,.088.1v.013a.121.121,0,0,1-.113.088l-.227-.038-.025.177.227.038a.107.107,0,0,1,.088.1v.013a.121.121,0,0,1-.113.088l-.227-.038-.025.177.227.038a.107.107,0,0,1,.088.1v.013a.121.121,0,0,1-.113.088l-.227-.038-.025.177.227.038a.107.107,0,0,1,.088.1V33a.121.121,0,0,1-.113.088l-.227-.038a.454.454,0,0,1-.164.265.4.4,0,0,1-.315.076c-.315-.05-.265-.366-.252-.467l.025-.2-.492-.076a.093.093,0,0,1-.076-.025.1.1,0,0,1-.013-.139.734.734,0,0,0,.164-.366l.025-.2a.76.76,0,0,0-.1-.492.559.559,0,0,0-.366-.277l-1.891-.227v.151l1.841.2a.1.1,0,0,1,.088.1v.013a.1.1,0,0,1-.113.088l-1.816-.2v1.1l1.677.315a.4.4,0,0,0,.24-.038.1.1,0,0,1,.076.177.691.691,0,0,1-.353.05l-1.639-.3V34.2l.5-.467a.64.64,0,0,1,.908.038.653.653,0,0,1,.177.441v.025a.686.686,0,0,1-.2.454l-.53.479h0l-.214.189h0l-.366.328-.013.013a1.585,1.585,0,0,1,.063.416,1.387,1.387,0,0,1-.05.391l1.286,1.639a.1.1,0,0,1,.025.063.109.109,0,0,1-.038.076l-.757.694a.1.1,0,0,1-.139,0l-.668-.618V40.52h0a.1.1,0,0,1,.05-.05.08.08,0,0,1,.076,0l.429.189a.1.1,0,0,1,.063.088.046.046,0,0,1-.013.038.092.092,0,0,1-.126.05l-.34-.151L9.363,41v.883h0a.1.1,0,0,1,.063.088v.013h0c0,.013,0,.013-.013.025h0l-.05.113v.467L12.3,43.912l.063-.151L9.981,42.689a.1.1,0,1,1,.076-.177l2.383,1.072.076-.177h0a.1.1,0,0,1,.088-.063.046.046,0,0,1,.038.013h0l.34.151.467-1.047-.34-.151A.012.012,0,0,1,13.1,42.3a.1.1,0,0,1-.038-.126l.227-.5-3.077-1.374-.05.113L12.44,41.44a.1.1,0,0,1-.076.177L9.981,40.545a.1.1,0,0,1-.05-.05.08.08,0,0,1,0-.076l.139-.3a.092.092,0,0,1,.126-.05l3.291,1.488a.1.1,0,0,1,.063.088.046.046,0,0,1-.013.038l-.227.5.34.151a.1.1,0,0,1,.063.088.046.046,0,0,1-.013.038l-.555,1.223a.092.092,0,0,1-.126.05l-.34-.151-.227.5a.092.092,0,0,1-.126.05L9.376,42.828v1.791L9.4,44.53a.1.1,0,0,1,.113-.076.1.1,0,0,1,.076.1v.025l-.214.883v.593L9.7,44.732c.038-.151.076-.3.189-.366a.3.3,0,0,1,.24-.025.321.321,0,0,1,.265.328,1.513,1.513,0,0,1-.038.252l-.467,1.917c-.038.164-.126.5-.467.416-.013,0-.025-.013-.038-.013v2.976l.139-.189.151.126-.3.391v1.538H8.191l-.668.87H8.846c.013,0,.013-.013.025-.013l.5-.24-.164-.328a.089.089,0,0,1,.05-.126l1.211-.593a.08.08,0,0,1,.076,0c.025.013.05.025.05.05l.164.328.177-.088h0l.315-.151a.089.089,0,0,1,.126.05l.555,1.135h1.728l-.088-.227C13.588,52.714,13.588,52.714,13.588,52.7Zm3.455-10.4.353-.467a.1.1,0,1,1,.151.126l-.3.4.694.832a.1.1,0,0,1,.025.063.109.109,0,0,1-.038.076.1.1,0,0,1-.139-.013l-.744-.9A.115.115,0,0,1,17.043,42.3ZM12.554,41.6a.092.092,0,0,1,.126-.05l.214.1a.1.1,0,0,1,.063.088.046.046,0,0,1-.013.038.092.092,0,0,1-.126.05l-.214-.1A.1.1,0,0,1,12.554,41.6Zm-1.034-.076a.59.59,0,0,1,.34.492l.984.441a.276.276,0,0,1,.164.252.368.368,0,0,1-.025.113.273.273,0,0,1-.151.139.258.258,0,0,1-.214-.013l-.984-.441a.585.585,0,0,1-.933-.429l-.984-.441a.276.276,0,0,1-.164-.252.368.368,0,0,1,.025-.113.277.277,0,0,1,.366-.139l.984.441A.615.615,0,0,1,11.52,41.529Zm5.069-.706c0,.013.013.025.013.038s-.013.038-.025.063l-.5.643A.109.109,0,0,1,16,41.6a5.129,5.129,0,0,1,.29,1.072c0,.1-.038.113-.076.126-.088.038-.164.063-.744-1.072l-.164.214h0l-.013.013h0a.012.012,0,0,0-.013.013h0l-.378.151a.1.1,0,0,1-.1-.013l-.2-.151a.114.114,0,0,1-.038-.088l.05-.4h0V41.44a.012.012,0,0,1,.013-.013h0l.958-1.248a.454.454,0,0,1,.29-.164.406.406,0,0,1,.315.088A3.038,3.038,0,0,1,16.589,40.823Zm.088-3.657a.1.1,0,0,1,.177-.076l.87,1.828a.046.046,0,0,1,.013.038.106.106,0,0,1-.05.088.089.089,0,0,1-.126-.05Zm1.3,2.144-.277.126a.1.1,0,1,1-.076-.177l.277-.126a.089.089,0,0,1,.126.05.046.046,0,0,1,.013.038A.146.146,0,0,1,17.976,39.309Zm.177-.618a.046.046,0,0,1,.013.038.106.106,0,0,1-.05.088.089.089,0,0,1-.126-.05l-.87-1.828a.1.1,0,0,1,.177-.076Zm-.883-5.258c.025.063.038.113.063.177v.025a.092.092,0,0,1-.076.088.1.1,0,0,1-.126-.063c-.013-.025-.013-.05-.025-.063l-.139.05a2.341,2.341,0,0,1,.126.769,1.489,1.489,0,0,1-.87,1.488,1.334,1.334,0,0,1-1.2-.164,2.231,2.231,0,0,1-.845-1.034l-.139.05c.013.013.013.038.025.05a.1.1,0,0,1-.177.076c-.025-.05-.038-.1-.063-.151a2.683,2.683,0,0,1-.088-1.74,1.7,1.7,0,0,1,.9-1.047l-.076-.189-.265.1a.08.08,0,0,1-.076,0l-.378-.151a.093.093,0,0,1,0-.177l1.286-.479a.094.094,0,0,1,.126.063c0,.013.013.025.013.038a.1.1,0,0,1-.063.088l-1.047.391.113.05.328-.126h0l.366-.139a.1.1,0,0,1,.063.189l-.265.1.076.189A2.089,2.089,0,0,1,17.27,33.433Zm-5.7-8.827L13.953,23.4a.734.734,0,0,1,.719.076l.416-.189-.076-.164a.708.708,0,0,1-.076-.277.263.263,0,0,1,.177-.24.423.423,0,0,1,.542.177l.214-.1a.089.089,0,0,1,.126.05c0,.013.013.025.013.038a.1.1,0,0,1-.063.088l-.214.1.076.164.214-.1a.089.089,0,0,1,.126.05c0,.013.013.025.013.038a.1.1,0,0,1-.063.088l-.214.1.076.164.214-.1a.089.089,0,0,1,.126.05c0,.013.013.025.013.038a.1.1,0,0,1-.063.088l-.189.088.076.164.214-.1a.089.089,0,0,1,.126.05c0,.013.013.025.013.038a.1.1,0,0,1-.063.088l-.214.1.076.164.214-.1a.089.089,0,0,1,.126.05c0,.013.013.025.013.038a.1.1,0,0,1-.063.088l-.214.1a.346.346,0,0,1,.025.164.633.633,0,0,1-.025.151.421.421,0,0,1-.227.24c-.29.126-.416-.164-.467-.252l-.088-.177-.441.2a.179.179,0,0,1-.076.025.1.1,0,0,1-.088-.113.678.678,0,0,0-.063-.391l-.088-.177a.686.686,0,0,0-.82-.391l-2.345,1.2a.581.581,0,0,0-.29.769l.088.177a.555.555,0,0,0,.328.3.592.592,0,0,0,.441-.013L14.71,25.01a.471.471,0,0,0,.189-.164.1.1,0,1,1,.164.113.792.792,0,0,1-.265.24l-2.484,1.009a.8.8,0,0,1-.593.025.773.773,0,0,1-.441-.4l-.088-.177A.79.79,0,0,1,11.57,24.606Zm2.648-.782a.106.106,0,0,1-.05.088l-1.929.971a.1.1,0,0,1-.088-.189l1.929-.971a.106.106,0,0,1,.139.05C14.205,23.8,14.218,23.812,14.218,23.825Zm-2.181,1.11a.106.106,0,0,1-.05.088l-.227.113a.1.1,0,0,1-.076-.177l.227-.113a.089.089,0,0,1,.126.05Zm1.274,4.628c-.05-.025-.05-.088-.025-.139s.088-.05.139-.025a4.7,4.7,0,0,0,1.425.706h.025c.088-.063.139-.416.164-.63.013-.1.025-.2.038-.277a2.222,2.222,0,0,1,.088-.277c.063-.2.177-.53.126-.63,0-.013-.013-.013-.025-.013a4.569,4.569,0,0,0-1.841.05.453.453,0,0,1,.025.139.278.278,0,0,1-.013.1h0l1.362-.025h0a.1.1,0,0,1,.1.1h0a.1.1,0,0,1-.1.1l-1.223.025.757.177a.1.1,0,0,1,.076.1v.025a.1.1,0,0,1-.113.076l-.933-.214h0l.643.315a.084.084,0,0,1,.05.088.046.046,0,0,1-.013.038.109.109,0,0,1-.126.05l-.605-.3a.445.445,0,0,1-.2.227.593.593,0,0,1-.366.038.532.532,0,0,1-.265-.139,5.717,5.717,0,0,1-1.992.063.2.2,0,0,1-.151-.113c-.1-.177.013-.5.113-.794a1.715,1.715,0,0,0,.076-.252c.013-.063.025-.164.038-.265.038-.3.076-.643.252-.769A.237.237,0,0,1,11,27.078a4.61,4.61,0,0,1,1.765.933.61.61,0,0,1,.3-.013.532.532,0,0,1,.265.139,4.611,4.611,0,0,1,1.992-.076.2.2,0,0,1,.151.113.4.4,0,0,1,.038.177,2.1,2.1,0,0,1-.151.618,1.715,1.715,0,0,0-.076.252c-.013.063-.025.164-.038.265-.038.3-.088.643-.252.769a.237.237,0,0,1-.189.038A4.9,4.9,0,0,1,13.31,29.562Zm1.147-.492a.1.1,0,0,1,.113-.076l.29.063a.1.1,0,0,1,.076.1v.025a.1.1,0,0,1-.113.076l-.29-.063A.12.12,0,0,1,14.458,29.07ZM12.352,39.94c-.013,0-.013,0-.025.013h-.063c-.013,0-.013-.013-.025-.013h0l-.013-.013h0l-.013-.013c-.038-.088-.908-2.106-.618-2.989a1.3,1.3,0,0,1-.378-.921,1.347,1.347,0,0,1,.038-.315c.013-.063.05-.177.151-.177s.126.126.139.2a.513.513,0,0,0,.189.315.484.484,0,0,0,.668-.113.735.735,0,0,1,1.009-.164.7.7,0,0,1,.29.5c.013-.013.025-.013.025-.025a.678.678,0,0,1,.53-.151.724.724,0,0,1,.643.794.482.482,0,0,0,.416.53.466.466,0,0,0,.378-.126c.05-.05.126-.113.2-.076a.112.112,0,0,1,.063.1.383.383,0,0,1-.038.139,1.314,1.314,0,0,1-1.11.719C14.42,38.969,12.427,39.9,12.352,39.94Zm.58,5.183a.8.8,0,0,1,1.122-.05.877.877,0,0,1,.214.315l.5.05a.089.089,0,0,1,.088.1.1.1,0,0,1-.1.088l-.58-.05a.108.108,0,0,1-.088-.076.536.536,0,0,0-.177-.29.6.6,0,1,0,.038.845.5.5,0,0,0,.126-.227.126.126,0,0,1,.05-.063.08.08,0,0,1,.076,0l.63.038a.128.128,0,0,1,.088.05l.946,2.018a.881.881,0,0,0,.555.378l-1.173-2.232a.1.1,0,0,1,.013-.113.121.121,0,0,1,.113-.025l2.345.984a.5.5,0,0,0-.416-.467h-.013l-2.068-.845c-.038-.013-.05-.038-.063-.076l-.088-.63a.08.08,0,0,1,0-.076c.013-.025.025-.05.05-.05a.828.828,0,0,0,.214-.151.6.6,0,1,0-.845.038.687.687,0,0,0,.3.151.1.1,0,0,1-.038.189.726.726,0,0,1-.4-.2.794.794,0,1,1,1.122-.05.693.693,0,0,1-.214.164l.076.517,2.018.82a.7.7,0,0,1,.555.681c0,.05-.013.1-.013.151a.126.126,0,0,1-.05.063.107.107,0,0,1-.088,0l-2.207-.921,1.11,2.131a.108.108,0,0,1,0,.088.084.084,0,0,1-.063.05c-.517.126-.883-.429-.9-.454v-.013l-.921-1.967-.53-.038a2.195,2.195,0,0,1-.139.227.8.8,0,0,1-1.122.05A.785.785,0,0,1,12.932,45.123Zm2.144-1.16a.294.294,0,0,0-.227-.076.1.1,0,1,1-.025-.2.464.464,0,0,1,.391.126.471.471,0,0,1,.151.328v.025a.531.531,0,0,1-.126.328.1.1,0,1,1-.139-.139.286.286,0,0,0,.076-.2A.347.347,0,0,0,15.076,43.962Zm-1.955,8.272a.093.093,0,0,1-.076-.025l-1.791-1.374a1.347,1.347,0,0,1-.5-.87,1.244,1.244,0,0,1,.164-.82l-.227-.177c-.013,0-.025.013-.05.013a.406.406,0,0,1-.29-.076l-.429-.328a.069.069,0,0,1-.038-.063.093.093,0,0,1,.025-.076l.378-.492a.1.1,0,0,1,.139-.013l.113.088a2.055,2.055,0,0,1,1.072-.971,1.122,1.122,0,0,1,.908.139.7.7,0,0,1,.933-.063.7.7,0,0,1,.277.555.685.685,0,0,1-.151.429.705.705,0,0,1-1.261-.429.611.611,0,0,1,.088-.328.96.96,0,0,0-.731-.113,1.856,1.856,0,0,0-.958.9l.164.126a.376.376,0,0,1,.151.3l.29.227h0l.013.013a.115.115,0,0,1,0,.126c-.013.025-.038.038-.05.063l-.088.113a1.152,1.152,0,0,0-.227.832,1.078,1.078,0,0,0,.429.744l1.715,1.311,1.45-1.891-1.715-1.311a1.1,1.1,0,0,0-1.248-.076.1.1,0,0,1-.1-.177,1.314,1.314,0,0,1,1.475.088L14.748,50a.069.069,0,0,1,.038.063v.013c0,.025-.013.038-.025.063L13.184,52.2A.069.069,0,0,1,13.121,52.234Zm-1.412-1.765.731.555a.109.109,0,0,1,.038.076c0,.025-.013.038-.025.063a.1.1,0,0,1-.139.013l-.731-.555a1.115,1.115,0,0,1-.24-1.551.1.1,0,0,1,.151.126A.917.917,0,0,0,11.709,50.469Zm.681.227a.069.069,0,0,1-.063.038.093.093,0,0,1-.076-.025l-.567-.429a.1.1,0,0,1-.013-.139l.757-.984a.069.069,0,0,1,.063-.038.093.093,0,0,1,.076.025l.567.429a.109.109,0,0,1,.038.076c0,.025-.013.038-.025.063Zm.681.87c0,.025-.013.038-.025.063a.1.1,0,0,1-.139.013l-.34-.252a.1.1,0,0,1,.126-.151l.34.252A.109.109,0,0,1,13.071,51.566Z" transform="translate(-6.4 -21)" fill="url(#linear-gradient)"/>
      <path id="Path_18" data-name="Path 18" d="M99.029,266.24c-.025-.013-.05-.038-.088-.063l-.013-.013a.344.344,0,0,1-.113-.151A.978.978,0,0,1,98.65,266a5.5,5.5,0,0,1-1.412.164H95.17v.013a.758.758,0,0,1-.58.782l-.29.063h2.484l.013-.517a.109.109,0,0,1,.1-.1h.189a.317.317,0,0,1,.252.114.807.807,0,0,1,.151.492c.794-.013,1.551-.05,2.282-.1a4.274,4.274,0,0,1-.467-.605A.379.379,0,0,1,99.029,266.24Z" transform="translate(-83.216 -235.106)" fill="url(#linear-gradient)"/>
      <path id="Path_19" data-name="Path 19" d="M67.391,262.443l-.025-.025a.1.1,0,1,1,.139-.139l.025.025c.164.176.353.391.479.366l.782-.177a.59.59,0,0,0,.429-.643l-.025-.366a.538.538,0,0,0-.656-.378l-.933.214a.444.444,0,0,0-.391.416.108.108,0,0,1-.076.088l-.29.063a.11.11,0,0,1-.113-.05.44.44,0,0,0-.53-.214l-.933.214a.544.544,0,0,0-.429.618l.113.29h.177a1.643,1.643,0,0,1-.126-.315c-.063-.252.177-.4.315-.454a.1.1,0,0,1,.126.063v.038a.1.1,0,0,1-.063.088s-.214.076-.189.214a2,2,0,0,0,.151.366h1.274a2.5,2.5,0,0,0,.164-.694.108.108,0,0,1,.076-.088l.277-.063a.1.1,0,1,1,.038.189l-.214.05a3.485,3.485,0,0,1-.139.605h.87A3.4,3.4,0,0,1,67.391,262.443Z" transform="translate(-57.467 -230.818)" fill="url(#linear-gradient)"/>
      <path id="Path_20" data-name="Path 20" d="M138.688,261.939l.706.164a.1.1,0,0,1,.076.1v.025a.1.1,0,0,1-.113.076l-.757-.177.832.492a.106.106,0,0,1,.05.088.076.076,0,0,1-.013.05.1.1,0,0,1-.139.038l-.668-.391.807.794c.189-.025.378-.038.567-.063a.012.012,0,0,1,.013-.013c.038-.063.1-.151.164-.24.126-.177.328-.454.3-.567,0-.013,0-.013-.013-.025a5.094,5.094,0,0,0-1.765-.492v.013C138.726,261.838,138.714,261.888,138.688,261.939Zm.845.3a.1.1,0,0,1,.113-.076l.328.076a.1.1,0,0,1,.076.1v.025a.1.1,0,0,1-.114.076l-.328-.076A.12.12,0,0,1,139.533,262.241Z" transform="translate(-121.93 -231.436)" fill="url(#linear-gradient)"/>
      <path id="Path_21" data-name="Path 21" d="M132.751,262.153l-.151.252a.375.375,0,0,0,.227.05.209.209,0,0,0,.164-.126l.252-.429a.87.87,0,0,0,.038-.1,3.474,3.474,0,0,1-.517.3A.1.1,0,0,0,132.751,262.153Z" transform="translate(-116.686 -231.436)" fill="url(#linear-gradient)"/>
      <path id="Path_22" data-name="Path 22" d="M135.877,266.7h0a.471.471,0,0,1-.177.177,5.087,5.087,0,0,0,.517.643l.467-.038Z" transform="translate(-119.396 -235.718)" fill="url(#linear-gradient)"/>
      <path id="Path_23" data-name="Path 23" d="M115.165,52.621a.418.418,0,0,1-.3,0l-.5-.2a.1.1,0,0,1-.05-.05.08.08,0,0,1,0-.076l.24-.58a.092.092,0,0,1,.126-.05l.126.05a2.06,2.06,0,0,1,.769-1.223,1.122,1.122,0,0,1,.908-.113.705.705,0,0,1,1.324.34.659.659,0,0,1-.05.265.707.707,0,0,1-1.362-.265.613.613,0,0,1,.013-.151.953.953,0,0,0-.731.088,1.859,1.859,0,0,0-.681,1.122l.189.076a.376.376,0,0,1,.227.252l.34.139h.013a.012.012,0,0,1,.013.013.114.114,0,0,1,.038.126l-.038.076-.05.139c0,.013-.013.025-.013.038.05-.013.088-.025.139-.038.013-.025.025-.063.038-.088a.092.092,0,0,1,.126-.05.1.1,0,0,1,.063.088c.3-.076.593-.164.883-.252l.038-.038a.056.056,0,0,1,.063,0c.214-.076.429-.151.63-.227l-.467-.189A1.107,1.107,0,0,0,116,52.1a.1.1,0,0,1-.139-.139,1.305,1.305,0,0,1,1.438-.3l.656.265c.4-.164.794-.34,1.16-.53a7.451,7.451,0,0,0,1.311-.883c-.076-.013-.139-.025-.2-.038a.2.2,0,0,1-.151-.113c-.1-.177.013-.5.113-.794a1.715,1.715,0,0,0,.076-.252c.013-.063.025-.164.038-.265.038-.3.076-.643.252-.769a.237.237,0,0,1,.189-.038,4.145,4.145,0,0,1,1.147.492,8.707,8.707,0,0,0,.984-4.3,9.857,9.857,0,0,0-.076-1.236.838.838,0,0,1-.555-.038.8.8,0,0,1-.3-.24l-.5.113a.1.1,0,0,1-.038-.189l.567-.126a.1.1,0,0,1,.1.038.623.623,0,0,0,.252.227.593.593,0,0,0,.441.025,6.788,6.788,0,0,0-.29-1.16.6.6,0,0,0-.454.34.564.564,0,0,0-.05.252.179.179,0,0,1-.025.076.1.1,0,0,1-.063.025l-.618.164a.1.1,0,0,1-.1-.025l-1.526-1.627a.876.876,0,0,0-.643-.189l1.816,1.765a.121.121,0,0,1,.025.113.1.1,0,0,1-.1.063l-2.535-.2a.5.5,0,0,0,.542.315h.013l2.232.151a.085.085,0,0,1,.076.05l.29.567a.135.135,0,0,1,.025.076.069.069,0,0,1-.038.063.769.769,0,0,0-.151.2.6.6,0,1,0,.794-.3.627.627,0,0,0-.34-.05.1.1,0,1,1-.025-.2.817.817,0,0,1,.454.063.8.8,0,1,1-1.059.4.66.66,0,0,1,.151-.214l-.24-.467-2.169-.151a.688.688,0,0,1-.769-.618A.135.135,0,0,1,118,42.42a.093.093,0,0,1,.076-.025l2.4.189-1.715-1.677c-.025-.025-.038-.05-.025-.076a.1.1,0,0,1,.05-.076c.454-.277.971.139,1,.151a.012.012,0,0,1,.013.013l1.488,1.589.5-.139a.781.781,0,0,1,.63-.706,6.494,6.494,0,0,0-2.207-2.925l-2.888,1.7a.16.16,0,0,1-.076.013.126.126,0,0,1-.063-.05l-.277-.479-.34.177a.1.1,0,0,1-.139-.038l-.681-1.16a.1.1,0,0,1,.038-.139l.4-.24a.1.1,0,1,1,.1.177l-.315.189.58.984.315-.189h0a.1.1,0,0,1,.139.038l.277.479,2.724-1.6c-.05-.038-.1-.063-.151-.1l-1.98,1.16a.1.1,0,0,1-.1-.177l1.891-1.11q-.3-.189-.643-.378l-.353.214a.549.549,0,0,1-.29.517.586.586,0,0,1-.593,0l-.921.542a.254.254,0,0,1-.214.025.238.238,0,0,1-.164-.126.254.254,0,0,1-.038-.139.27.27,0,0,1,.139-.24l.92-.542a.573.573,0,0,1,.29-.517.586.586,0,0,1,.593,0l.05-.025c-.214-.1-.429-.189-.656-.277l-1.664.984a.16.16,0,0,1-.076.013.126.126,0,0,1-.063-.05l-.164-.277a.1.1,0,0,1,.038-.139l1.286-.757a17.958,17.958,0,0,0-3.4-.719v-.088a13.5,13.5,0,0,0,1.589-.34l.038-1.7a1.467,1.467,0,0,1,.013-2.282,1.464,1.464,0,0,1,2.295.643l1.488.151a.575.575,0,0,1,.429.24.652.652,0,0,1,.139.4v.013a6.147,6.147,0,0,0,1.1-1.891,2.061,2.061,0,0,1-1.765-.605l-.113.1.038.038a.1.1,0,0,1-.139.139l-.113-.113a2.131,2.131,0,0,1-.366-2.875l-.139-.151-.2.2a.1.1,0,0,1-.063.025l-.416.013a.1.1,0,0,1-.088-.063.1.1,0,0,1,.025-.113l.984-.958a.1.1,0,0,1,.139,0c.013.025.025.038.025.063a.179.179,0,0,1-.025.076l-.807.782h.113l.53-.5a.1.1,0,0,1,.139.139l-.2.2.139.151a2.092,2.092,0,0,1,2.736.328,9.2,9.2,0,0,0-.1-1.047,1.69,1.69,0,0,1-.227-.353,1.381,1.381,0,0,1-.088-.87,5.556,5.556,0,0,0-2.333-2.875c-.013.013-.013.038-.025.05a.329.329,0,0,1-.2.189.349.349,0,0,1-.113.013.746.746,0,0,1,.088.366.7.7,0,0,1-.088.353l-.315.63a.787.787,0,0,1-.845.429l-.088,1.6a.095.095,0,0,1-.189-.013l.1-1.6h-.013l-.5-.252a.884.884,0,0,1-.24-.189l-1.475.694a2.907,2.907,0,0,0,.151.555l.63-.467a.092.092,0,0,1,.139.025.1.1,0,0,1,.025.063.09.09,0,0,1-.038.076l-.668.5a1.772,1.772,0,0,0,.668.769,2.119,2.119,0,0,0,1.929-.113l-.164-1.223a.1.1,0,1,1,.2-.025l.177,1.3V27.1a.1.1,0,0,1-.063.088,2.358,2.358,0,0,1-2.169.139,2.452,2.452,0,0,1-1.009-1.728.115.115,0,0,1,.05-.1l1.513-.706a.79.79,0,0,1-.076-.34.7.7,0,0,1,.088-.353l.315-.63a.8.8,0,0,1,.984-.391c.013,0,.013,0,.025.013l.593.3c.139.063.265.126.328.1.013,0,.05-.013.088-.088a.213.213,0,0,0,.025-.063,1.616,1.616,0,0,0-.252-.139,7.979,7.979,0,0,0-1.047-.479.1.1,0,0,0-.025.05.1.1,0,0,1-.189-.088c0-.013.013-.025.025-.038a23.17,23.17,0,0,0-7.667-1.147l-.025.921a4.091,4.091,0,0,1,1.047.277l-.177-.126a.114.114,0,0,1-.038-.126l.2-.429a.11.11,0,0,1,.113-.05l.618.177a.1.1,0,0,1,.139.025.1.1,0,0,1-.013.126h0l-.3.643c0,.025.013.05.013.076a3.309,3.309,0,0,1,.315.277l2.661,1.841a.3.3,0,0,0,.378-.139l.656-1.374a.29.29,0,0,0-.126-.378l-3.279-.958a.1.1,0,0,1,.063-.189l3.279.971h.013A.484.484,0,0,1,115,23.5a.37.37,0,0,1-.05.2l-.656,1.311a.484.484,0,0,1-.643.227.012.012,0,0,1-.013-.013l-2.181-1.513a7.846,7.846,0,0,1,.731,3.178.82.82,0,0,0,.366-.24.471.471,0,0,0,.063-.3c-.013-.038-.038-.151.05-.189a.151.151,0,0,1,.177.05.734.734,0,0,1,.177.492,1.408,1.408,0,0,1-.177.63,1.7,1.7,0,0,1-.605.656v2.5c0,.24,0,.479-.013.706l1.69-1.6a.747.747,0,0,1,.618-.151.234.234,0,0,1,.088.025l.34-.3-.113-.139a.576.576,0,0,1-.151-.24.3.3,0,0,1,.1-.29.411.411,0,0,1,.567.013l.177-.151a.09.09,0,0,1,.139.013.1.1,0,0,1,.025.063.109.109,0,0,1-.038.076l-.177.151.113.139.177-.151a.09.09,0,0,1,.139.013.1.1,0,0,1,.025.063.109.109,0,0,1-.038.076l-.177.151.113.139.177-.151a.09.09,0,0,1,.139.013.1.1,0,0,1,.025.063.109.109,0,0,1-.038.076l-.177.151.113.139.177-.151a.09.09,0,0,1,.139.013.1.1,0,0,1,.025.063.109.109,0,0,1-.038.076l-.177.151.113.139.177-.151a.09.09,0,0,1,.139.013.1.1,0,0,1,.025.063.109.109,0,0,1-.038.076l-.177.151a.4.4,0,0,1,.088.265v.025a.484.484,0,0,1-.139.29c-.24.2-.441-.038-.517-.113l-.126-.151-.366.328a.069.069,0,0,1-.063.038.1.1,0,0,1-.113-.076.882.882,0,0,0-.164-.366l-.126-.151a.728.728,0,0,0-.454-.24.551.551,0,0,0-.454.1l-1.854,1.765c0,.076-.013.164-.013.24h0l.177-.164a.1.1,0,0,1,.139,0c.013.025.025.038.025.063a.109.109,0,0,1-.038.076l-.177.164a.1.1,0,0,1-.139,0l-.013-.013c-.013.2-.038.391-.063.58l.088.1a.6.6,0,0,0,.4.2.606.606,0,0,0,.429-.139l2.093-1.677a.407.407,0,0,0,.126-.214.1.1,0,1,1,.189.063.623.623,0,0,1-.189.3L113.11,32.8a.76.76,0,0,1-.567.189.794.794,0,0,1-.517-.24,5.811,5.811,0,0,1-.769,2.207c-.013.013-.025.025-.025.038l.593.252a.462.462,0,0,1,.378.467v.076l-.063.416a.712.712,0,0,1-.05.151.1.1,0,0,1-.177-.1.182.182,0,0,0,.025-.088l.063-.416a.273.273,0,0,0-.227-.315h-.025l-.656-.265c-.025.038-.063.076-.088.113l.076.025a.1.1,0,0,1,.063.088v.013l-.088.58a.1.1,0,1,1-.189-.038l.076-.5-.076-.025a3.594,3.594,0,0,1-2.182.933.224.224,0,0,0,.05.126.3.3,0,0,0,.164.113l2.686-.189a.095.095,0,0,1,.013.189l-2.7.189h-.025a.477.477,0,0,1-.391-.416c-.177.013-.366.025-.555.025H107.7V36.4l.4.857a8.077,8.077,0,0,1,1.841.227c.025-.013.038-.025.063-.025a.567.567,0,0,1,.454.013.31.31,0,0,1,.214.252c.013.013.038.013.05.025a.179.179,0,0,1,.076-.025.775.775,0,0,1,.605.013l.643.277a.8.8,0,0,1,.479.731.278.278,0,0,1-.013.1l1.551.013a.108.108,0,0,1,.1.1h0a.108.108,0,0,1-.1.1l-1.614-.013v.013l-.038.1a5.2,5.2,0,0,1,.555,1.16c.025,0,.038.013.05.038l.53.643a1.711,1.711,0,0,0,.731-.706,2.117,2.117,0,0,0-.214-1.917l-1.211.227a.1.1,0,0,1-.038-.189l1.286-.24a.086.086,0,0,1,.1.05,3.149,3.149,0,0,1,.416,1.425,1.559,1.559,0,0,1-.164.731,2.16,2.16,0,0,1-1.236.984,11.608,11.608,0,0,1,.151,1.955v.63l.807.5.328-.517h0a.069.069,0,0,1,.063-.038h.013c.025,0,.038,0,.05.013a.252.252,0,0,0,.164.025.2.2,0,0,0,.139-.1l1.488-2.383a.214.214,0,0,0-.076-.3.252.252,0,0,0-.164-.025.2.2,0,0,0-.139.1l-1.488,2.383a.1.1,0,0,1-.177-.1l1.488-2.383a.406.406,0,0,1,.265-.189.39.39,0,0,1,.315.05.418.418,0,0,1,.2.353.514.514,0,0,1-.063.227L115.1,43.958a.405.405,0,0,1-.265.189.463.463,0,0,1-.227-.013l-.277.441.883.555a.106.106,0,0,1,.05.088.076.076,0,0,1-.013.05.1.1,0,0,1-.139.038l-1.765-1.1v.164l1.576.984c.151.1.3.189.3.353a.315.315,0,0,1-.05.177c-.189.3-.479.113-.63.025l-1.2-.744v.605c0,.378-.013.757-.025,1.11a2.807,2.807,0,0,1,.706.1c.063.013.113.038.177.05a.1.1,0,0,1,.063.088v.025a.1.1,0,0,1-.126.063c-.025-.013-.05-.013-.063-.025l-.038.151a1.892,1.892,0,0,1,1.438,1.614,1.243,1.243,0,0,1-.038.3,1.739,1.739,0,0,1-2.181.946l-.038.151c.013,0,.038.013.05.013a.1.1,0,1,1-.038.189c-.05-.013-.1-.025-.164-.038a2.92,2.92,0,0,1-.467-.164c-.076.177-.164.353-.252.517a3.172,3.172,0,0,1-.656.807,5.5,5.5,0,0,1,1.778.517.225.225,0,0,1,.113.151v.05a1.5,1.5,0,0,1-.353.668.7.7,0,0,1-.076.1c.769-.1,1.488-.227,2.169-.378l-.24-.1C115.19,52.608,115.178,52.621,115.165,52.621Zm6.444-8.083a.267.267,0,0,0,.24,0,.089.089,0,0,1,.126.05.046.046,0,0,1,.013.038.106.106,0,0,1-.05.088.5.5,0,0,1-.4.013.486.486,0,0,1-.24-.63.1.1,0,1,1,.177.076A.277.277,0,0,0,121.609,44.538ZM116.06,25.447l-.277.214a.1.1,0,1,1-.126-.151l.277-.214a.1.1,0,0,1,.139.013.1.1,0,0,1,.025.063A.109.109,0,0,1,116.06,25.447Zm-4.1-1.879c.025-.05.088-.05.139-.025l1.576,1.084a.148.148,0,0,0,.2-.076l.441-.933a.166.166,0,0,0-.076-.214.1.1,0,0,1,.076-.177.363.363,0,0,1,.2.328.336.336,0,0,1-.038.151l-.441.933a.359.359,0,0,1-.479.164.012.012,0,0,1-.013-.013l-1.564-1.084A.112.112,0,0,1,111.962,23.568Zm-.53-.492.29.2a.109.109,0,0,1,.038.076c0,.025,0,.038-.013.05-.025.05-.088.05-.139.025l-.29-.2c-.05-.025-.05-.088-.025-.139A.132.132,0,0,1,111.432,23.076Zm2.825,6.973-1.576,1.475a.1.1,0,1,1-.139-.139l1.576-1.488a.1.1,0,0,1,.139,0c.013.025.025.038.025.063A.078.078,0,0,1,114.257,30.049ZM113,36.9a3,3,0,0,1-.706-.441.143.143,0,0,1-.038-.1l.139-.807a.1.1,0,0,1,.05-.076c-.87-.82-.82-.883-.757-.958s.113-.139,1.16.593l.038-.265h0V34.8a.012.012,0,0,1,.013-.013h0l.252-.315a.114.114,0,0,1,.088-.038l.24.038a.08.08,0,0,1,.076.063l.151.378h0v.038l-.252,1.551A.387.387,0,0,1,113,36.9Zm3.354,9.218a.1.1,0,0,1,.076-.113l1.98-.4a.1.1,0,0,1,.113.076V45.7a.11.11,0,0,1-.076.1l-1.98.4A.121.121,0,0,1,116.35,46.114Zm.113.542a.1.1,0,0,1,.076-.113l1.98-.4a.1.1,0,0,1,.113.076v.025a.11.11,0,0,1-.076.1l-1.98.4C116.527,46.745,116.464,46.707,116.464,46.657Zm.1.542a.1.1,0,0,1,.076-.113l1.98-.4a.1.1,0,0,1,.113.076v.025a.11.11,0,0,1-.076.1l-1.98.4A.121.121,0,0,1,116.565,47.2Zm.113.542a.1.1,0,0,1,.076-.113l1.98-.4a.1.1,0,0,1,.113.076v.025a.11.11,0,0,1-.076.1l-1.98.4A.121.121,0,0,1,116.678,47.741Zm.1.467a.1.1,0,0,1,.076-.113l1.98-.4a.1.1,0,0,1,.114.076v.025a.11.11,0,0,1-.076.1l-1.98.4A.121.121,0,0,1,116.779,48.208Zm-.479-2.7,2.724-.567h0a.473.473,0,0,1,.555.366l.139.668.946-.2a.532.532,0,0,1,.63.416.349.349,0,0,1,.013.113.491.491,0,0,1-.088.29.535.535,0,0,1-.34.227l-.946.2.139.668a.486.486,0,0,1-.063.353.468.468,0,0,1-.3.2h0l-.366.063-2.358.492a.1.1,0,1,1-.038-.189l2.358-.492.353-.063h0a.248.248,0,0,0,.164-.113.292.292,0,0,0,.038-.2l-.164-.769a.16.16,0,0,1,.013-.076.069.069,0,0,1,.063-.038l1.047-.214a.309.309,0,0,0,.214-.139.355.355,0,0,0,.05-.252.339.339,0,0,0-.391-.265l-1.047.214a.1.1,0,0,1-.113-.076l-.164-.769a.27.27,0,0,0-.315-.214h-.025l-.252.05.416,2.018v.025a.11.11,0,0,1-.076.1.1.1,0,0,1-.113-.076l-.416-2.018-2.27.467a.1.1,0,0,1-.113-.076A.153.153,0,0,1,116.3,45.509Zm2.989,2.018.063.3v.025a.11.11,0,0,1-.076.1.1.1,0,0,1-.113-.076l-.063-.3a.1.1,0,0,1,.076-.113A.082.082,0,0,1,119.288,47.527Zm-.076-1.135-.189-.908.189-.038.189.908a.012.012,0,0,0,.013.013.056.056,0,0,0,.063,0l1.059-.214c.05-.013.315-.063.441.076.013.025.025.038.025.063a.179.179,0,0,1-.025.076.1.1,0,0,1-.139,0,.365.365,0,0,0-.265-.013l-1.059.214a.24.24,0,0,1-.2-.025A.354.354,0,0,1,119.213,46.392Z" transform="translate(-94.926 -21.437)" fill="url(#linear-gradient)"/>
      <path id="Path_24" data-name="Path 24" d="M181.408,120.864l-1.488-.164h-.013a1.376,1.376,0,0,1-.605.53l-.2,1.059a8.3,8.3,0,0,0,2.383-1.425Z" transform="translate(-157.323 -108.128)" fill="url(#linear-gradient)"/>
      <path id="Path_25" data-name="Path 25" d="M149.479,226.3c-.013.076-.013.139-.025.214a2.2,2.2,0,0,1,.567.076,1.693,1.693,0,0,1,1.185,1.021v.025a.1.1,0,0,1-.063.088.1.1,0,0,1-.126-.063,1.479,1.479,0,0,0-1.047-.883,1.6,1.6,0,0,0-.542-.063,10.678,10.678,0,0,1-.429,2.018,2.212,2.212,0,0,0,.4.151,1.584,1.584,0,0,0,2.03-.782.874.874,0,0,0,.038-.252,2.107,2.107,0,0,0-1.992-1.551Z" transform="translate(-131.018 -200.412)" fill="url(#linear-gradient)"/>
      <path id="Path_26" data-name="Path 26" d="M193.815,76.439a1.113,1.113,0,0,0-.315.807,2,2,0,0,0,.605,1.362,1.84,1.84,0,0,0,1.765.593,8.031,8.031,0,0,0,.265-1.147,1.681,1.681,0,0,0-.467-.946,1.663,1.663,0,0,0-.58-.4.1.1,0,1,1,.076-.177,2.021,2.021,0,0,1,.643.441,2.08,2.08,0,0,1,.391.567c.013-.126.025-.265.025-.391a2.153,2.153,0,0,0-.265-.328A1.571,1.571,0,0,0,193.815,76.439Zm1.084.063v.013a.1.1,0,0,1-.113.076.833.833,0,0,0-.353,0,.1.1,0,1,1-.025-.2,1.532,1.532,0,0,1,.416,0A.145.145,0,0,1,194.9,76.5Z" transform="translate(-169.907 -69.201)" fill="url(#linear-gradient)"/>
      <path id="Path_27" data-name="Path 27" d="M154.6,205.035c.24.151.3.126.353.038a.179.179,0,0,0,.025-.076c0-.05-.1-.113-.2-.177l-.025-.025-1.45-.9v.328Z" transform="translate(-134.776 -180.837)" fill="url(#linear-gradient)"/>
      <path id="Path_28" data-name="Path 28" d="M135.371,151.228l-.643-.277a.488.488,0,0,0-.328-.038,4.225,4.225,0,0,1,.567.34l.252.1a.639.639,0,0,1,.315.315c.013.038.025.088.038.139h0a2.155,2.155,0,0,1,.139.177.589.589,0,0,0,.038-.214A.658.658,0,0,0,135.371,151.228Z" transform="translate(-118.259 -134.52)" fill="url(#linear-gradient)"/>
      <path id="Path_29" data-name="Path 29" d="M136.9,264.039l.038.038.076-.126-.05-.013a.107.107,0,0,1-.063-.038.084.084,0,0,0-.088.05.16.16,0,0,0-.013.076h.025A.083.083,0,0,1,136.9,264.039Z" transform="translate(-120.357 -233.271)" fill="url(#linear-gradient)"/>
    </g>
    <path id="Path_30" data-name="Path 30" d="M245.738,118.383q-2.932-3.026-2.938-8.436c0-3.606,1.1-6.355,3.3-8.272a12.356,12.356,0,0,1,8.411-2.875q10.346,0,9.937,10.39H251.6v1.778a15.641,15.641,0,0,0,1.135,6.746A4.055,4.055,0,0,0,256.709,120q5.3,0,6.923-5.649l.82.139a9.358,9.358,0,0,1-3.127,5.107c-1.5,1.211-3.758,1.828-6.771,1.828Q248.689,121.422,245.738,118.383Zm5.9-10.088h4.691v-2.232a19.194,19.194,0,0,0-.429-5.031,1.715,1.715,0,0,0-1.728-1.349,2.03,2.03,0,0,0-1.917,1.438,13.744,13.744,0,0,0-.618,4.943Z" transform="translate(-206.59 -83.37)" fill="#18191e"/>
    <path id="Path_31" data-name="Path 31" d="M441.854,110.337h1.324v-3.506a22.8,22.8,0,0,0-.479-5.813,1.841,1.841,0,0,0-1.841-1.475,2.6,2.6,0,0,0-1.475.429,1.34,1.34,0,0,0-.656,1.185,4.393,4.393,0,0,0,.277,1.526h1.135a6.563,6.563,0,0,1,.366,2.308,2.959,2.959,0,0,1-1.135,2.32,4.232,4.232,0,0,1-2.875.984q-3.915,0-3.922-3.783,0-5.6,9.533-5.611,5.428,0,7.5,1.841c1.387,1.236,2.068,3.493,2.068,6.771v9.256c0,1.576.441,2.371,1.324,2.371,1.034,0,1.639-1.564,1.828-4.691l.681.05c-.126,2.673-.618,4.514-1.5,5.51s-2.32,1.5-4.325,1.5c-3.644,0-5.75-1.122-6.292-3.379a4.807,4.807,0,0,1-1.778,2.547,6.124,6.124,0,0,1-3.468.82q-6.753,0-6.746-5.51a4.448,4.448,0,0,1,2.572-4.439C435.662,110.741,438.3,110.337,441.854,110.337ZM440.277,119a.947.947,0,0,0,.958.681c.467,0,.908-.391,1.324-1.16a6.84,6.84,0,0,0,.618-3.215v-4.237h-.315c-1.879,0-2.825,1.387-2.825,4.149v.731A11.027,11.027,0,0,0,440.277,119Z" transform="translate(-371.408 -83.458)" fill="#18191e"/>
    <path id="Path_32" data-name="Path 32" d="M647.234,124.2h-10.39l-.5-3.329a5.963,5.963,0,0,1-2.169,2.8,7.578,7.578,0,0,1-4.262.984c-4.716,0-7.062-2.535-7.062-7.616V103.32H620.3v-.82h11.034v15.636a10.419,10.419,0,0,0,.391,3.606,1.515,1.515,0,0,0,1.551.87,2.528,2.528,0,0,0,2.068-1.412,7.22,7.22,0,0,0,.908-3.922V103.32h-2.093v-.82h10.567v20.869h2.509Z" transform="translate(-536.488 -86.604)" fill="#18191e"/>
    <path id="Path_33" data-name="Path 33" d="M841.809,62.364V48H839.3v-.82h2.509V41.293l8.474-2.093v7.982h5.927V48h-5.927V63.36a8.421,8.421,0,0,0,.429,3.14,1.755,1.755,0,0,0,1.8,1.009,2.966,2.966,0,0,0,2.4-1.362,7.949,7.949,0,0,0,1.349-3.733l.769.088a8.827,8.827,0,0,1-2,4.993c-1.1,1.236-2.9,1.841-5.422,1.841a9.568,9.568,0,0,1-5.788-1.5C842.478,66.828,841.809,65,841.809,62.364Z" transform="translate(-727.873 -31.286)" fill="#18191e"/>
    <path id="Path_34" data-name="Path 34" d="M980.7,21.839h12.577V42.708h2.547v.82H982.276v-.82h2.509V22.658H979.8Zm8.29-3.152a4.251,4.251,0,0,1-3.443-1.236,4.623,4.623,0,0,1-1.021-3.052,4.192,4.192,0,0,1,1.122-3.014,4.439,4.439,0,0,1,3.392-1.185,5.009,5.009,0,0,1,3.468,1.072,3.889,3.889,0,0,1,1.185,3.052,4.365,4.365,0,0,1-1.135,3.165A4.751,4.751,0,0,1,988.985,18.686Z" transform="translate(-852.666 -5.943)" fill="#18191e"/>
    <path id="Path_35" data-name="Path 35" d="M1096.7,3.4h11.172V36.766h2.547v.82h-13.543v-.82h2.51V4.22H1096.7Z" transform="translate(-952.815 0)" fill="#18191e"/>
    <path id="Path_36" data-name="Path 36" d="M1218.213,118.584q-2.913-2.913-2.913-8.36t3.127-8.386q3.121-2.932,8.776-2.938t8.436,2.711q2.78,2.7,2.787,8.272,0,11.633-11.576,11.626Q1221.12,121.509,1218.213,118.584Zm11.437-6.519v-3.871a31.366,31.366,0,0,0-.479-6.456c-.315-1.349-1.059-2.03-2.207-2.03a2.271,2.271,0,0,0-1.614.567,3.491,3.491,0,0,0-.9,1.891,34.178,34.178,0,0,0-.416,6.242v3.556a33.6,33.6,0,0,0,.29,5.977,10.525,10.525,0,0,0,.618,1.639,1.93,1.93,0,0,0,1.954,1.1c1.185,0,1.954-.681,2.32-2.055A29.711,29.711,0,0,0,1229.65,112.065Z" transform="translate(-1056.46 -83.458)" fill="#18191e"/>
    <path id="Path_37" data-name="Path 37" d="M1423.122,99.457a2.985,2.985,0,0,0-2.875,2.194,21.483,21.483,0,0,0-.87,7.251v2.358c0,3.014.328,5.17,1.009,6.469a3.761,3.761,0,0,0,3.695,1.955,5.406,5.406,0,0,0,4.287-1.828,8.775,8.775,0,0,0,2.055-4.149l.82.088a9.189,9.189,0,0,1-3.19,5.649,10.646,10.646,0,0,1-6.519,1.778q-5.3,0-8.108-2.85c-1.879-1.9-2.825-4.678-2.825-8.348s1.072-6.481,3.216-8.461,5.132-2.963,8.953-2.963a10.432,10.432,0,0,1,6.2,1.576,4.729,4.729,0,0,1,2.144,3.947,4.976,4.976,0,0,1-1.021,3.468,3.676,3.676,0,0,1-2.825,1.1,4.237,4.237,0,0,1-2.9-.958,3.55,3.55,0,0,1-1.1-2.825,6.121,6.121,0,0,1,.227-1.639h1.5a4.987,4.987,0,0,0,.315-1.639A1.932,1.932,0,0,0,1423.122,99.457Z" transform="translate(-1227.133 -83.195)" fill="#18191e"/>
    <path id="Path_38" data-name="Path 38" d="M1593.207,37.6v-.832h2.093l-5.157-10.58-.87.227V36.766h2.093v.82h-13.089v-.82h2.509V4.22H1578.1V3.4h11.172V25.5l.731-.277,10.252-8.524h-4.287v-.82h8.978v.82h-3.19l-5.422,4.6,7.881,15.46h1.639v.82h-12.647Z" transform="translate(-1373.512 0)" fill="#18191e"/>
    <path id="Path_39" data-name="Path 39" d="M1812.1,120.9v-8.159h.542q1.192,3.972,3.19,5.561a7.844,7.844,0,0,0,5.019,1.6q4.653,0,4.653-2.963a2.078,2.078,0,0,0-1.135-1.917,15.435,15.435,0,0,0-4.565-1.551,17.472,17.472,0,0,1-5.2-2.194,5.749,5.749,0,0,1-2.509-5.2,7.522,7.522,0,0,1,2.194-5.674,8.042,8.042,0,0,1,5.838-2.118,11.418,11.418,0,0,1,4.6,1.047,3.9,3.9,0,0,0,1.324.366,1.019,1.019,0,0,0,.769-.315,5.165,5.165,0,0,0,.769-1.185h.5v6.973h-.542q-2.326-5.92-7.2-5.927a5.46,5.46,0,0,0-3.19.757,2.27,2.27,0,0,0-1.047,1.891,1.622,1.622,0,0,0,.315,1.072,5.417,5.417,0,0,0,.5.567,2.266,2.266,0,0,0,.593.391c.278.139.5.24.681.315a8.692,8.692,0,0,0,.845.29,5.129,5.129,0,0,0,.845.227,34.527,34.527,0,0,1,4.464,1.349,15.566,15.566,0,0,1,2.6,1.387c1.677,1.16,2.51,3.014,2.51,5.586a7.3,7.3,0,0,1-2.282,5.838,9.2,9.2,0,0,1-6.242,1.98,12.11,12.11,0,0,1-5.473-1.324,1.8,1.8,0,0,0-.87-.366c-.668,0-1.324.567-1.954,1.69Z" transform="translate(-1578.005 -82.846)" fill="#18191e"/>
    <path id="Path_40" data-name="Path 40" d="M1959.745,248.662a2.119,2.119,0,0,1-1.728-.618,2.337,2.337,0,0,1-.517-1.538,2.127,2.127,0,0,1,.567-1.513,2.269,2.269,0,0,1,1.7-.593,2.461,2.461,0,0,1,1.74.542,1.976,1.976,0,0,1,.593,1.538,2.187,2.187,0,0,1-.568,1.589A2.431,2.431,0,0,1,1959.745,248.662Z" transform="translate(-1705.07 -210.61)" fill="#18191e"/>
  </g>
</svg>
