<svg xmlns="http://www.w3.org/2000/svg" xmlns:xlink="http://www.w3.org/1999/xlink" width="193.673" height="123.501" viewBox="0 0 193.673 123.501">
  <defs>
    <linearGradient id="linear-gradient" x1="0.484" y1="0.002" x2="0.484" y2="0.995" gradientUnits="objectBoundingBox">
      <stop offset="0" stop-color="#f15961"/>
      <stop offset="0.434" stop-color="#ed4658"/>
      <stop offset="1" stop-color="#e8324f"/>
    </linearGradient>
    <linearGradient id="linear-gradient-2" x1="0.514" y1="0.002" x2="0.514" y2="1.001" xlink:href="#linear-gradient"/>
    <linearGradient id="linear-gradient-3" x1="0.492" y1="-0.006" x2="0.492" y2="0.99" xlink:href="#linear-gradient"/>
    <linearGradient id="linear-gradient-4" x1="0.505" y1="0" x2="0.505" y2="0.998" xlink:href="#linear-gradient"/>
    <linearGradient id="linear-gradient-5" x1="0.497" y1="-0.003" x2="0.497" y2="0.994" xlink:href="#linear-gradient"/>
    <linearGradient id="linear-gradient-6" x1="0.505" y1="0.001" x2="0.505" y2="0.999" xlink:href="#linear-gradient"/>
    <linearGradient id="linear-gradient-7" x1="0.525" y1="-0.001" x2="0.525" y2="0.994" xlink:href="#linear-gradient"/>
    <linearGradient id="linear-gradient-8" x1="0.501" y1="0.003" x2="0.501" y2="1.007" xlink:href="#linear-gradient"/>
    <linearGradient id="linear-gradient-9" x1="0.504" y1="0.002" x2="0.504" y2="0.998" xlink:href="#linear-gradient"/>
    <linearGradient id="linear-gradient-10" x1="0.494" y1="0.006" x2="0.494" y2="0.999" xlink:href="#linear-gradient"/>
    <linearGradient id="linear-gradient-11" x1="0.501" y1="0.002" x2="0.501" y2="1.01" xlink:href="#linear-gradient"/>
    <linearGradient id="linear-gradient-12" x1="0.505" y1="0.005" x2="0.505" y2="1.003" xlink:href="#linear-gradient"/>
    <linearGradient id="linear-gradient-13" x1="0.494" y1="-0.006" x2="0.494" y2="1.001" xlink:href="#linear-gradient"/>
    <linearGradient id="linear-gradient-14" x1="0.509" y1="0.009" x2="0.509" y2="1.001" xlink:href="#linear-gradient"/>
    <linearGradient id="linear-gradient-15" x1="0.504" y1="-0.006" x2="0.504" y2="0.999" xlink:href="#linear-gradient"/>
    <linearGradient id="linear-gradient-16" x1="0.504" y1="0.002" x2="0.504" y2="0.998" xlink:href="#linear-gradient"/>
    <linearGradient id="linear-gradient-17" x1="0.5" y1="0" x2="0.5" y2="0.999" xlink:href="#linear-gradient"/>
    <linearGradient id="linear-gradient-18" x1="0.5" y1="0.01" x2="0.5" y2="1.023" xlink:href="#linear-gradient"/>
    <linearGradient id="linear-gradient-19" x1="0.5" y1="0.008" x2="0.5" y2="1.007" xlink:href="#linear-gradient"/>
    <linearGradient id="linear-gradient-20" x1="0.494" y1="-0.02" x2="0.494" y2="0.983" xlink:href="#linear-gradient"/>
    <linearGradient id="linear-gradient-21" x1="0.497" y1="0.015" x2="0.497" y2="0.993" xlink:href="#linear-gradient"/>
    <linearGradient id="linear-gradient-22" x1="0.493" y1="0.005" x2="0.493" y2="1.007" xlink:href="#linear-gradient"/>
    <linearGradient id="linear-gradient-23" x1="0.501" y1="-0.002" x2="0.501" y2="0.997" xlink:href="#linear-gradient"/>
    <linearGradient id="linear-gradient-24" x1="0.506" y1="-0.002" x2="0.506" y2="1.002" xlink:href="#linear-gradient"/>
    <linearGradient id="linear-gradient-25" x1="0.5" y1="-0.001" x2="0.5" y2="0.996" xlink:href="#linear-gradient"/>
    <linearGradient id="linear-gradient-26" x1="0.502" y1="0" x2="0.502" y2="0.998" xlink:href="#linear-gradient"/>
    <linearGradient id="linear-gradient-27" x1="0.502" y1="0.003" x2="0.502" y2="1.004" xlink:href="#linear-gradient"/>
    <linearGradient id="linear-gradient-28" x1="0.49" y1="0.001" x2="0.49" y2="1.002" xlink:href="#linear-gradient"/>
    <linearGradient id="linear-gradient-29" x1="0.505" y1="-0.016" x2="0.505" y2="1.029" xlink:href="#linear-gradient"/>
  </defs>
  <g id="Group_8075" data-name="Group 8075" transform="translate(-90.479 -147.519)">
    <g id="Group_20" data-name="Group 20" transform="translate(145.6 126.519)">
      <path id="Path_43" data-name="Path 43" d="M97.8,109.349l-.709.161h0l-.387.1.258,1.064,1-.226v-1.1A.144.144,0,0,0,97.8,109.349Z" transform="translate(-61.186 -59.848)" fill="url(#linear-gradient)"/>
      <path id="Path_44" data-name="Path 44" d="M96.9,95.5a4.655,4.655,0,0,0,.226,3.353l.516-.129a.8.8,0,0,1,.258-.032V94.4A2.525,2.525,0,0,0,96.9,95.5Z" transform="translate(-61.165 -49.735)" fill="url(#linear-gradient-2)"/>
      <path id="Path_45" data-name="Path 45" d="M144.561,63.609a2.694,2.694,0,0,0,.355-1.709,2.528,2.528,0,0,1-.161.451,3.163,3.163,0,0,1-1.354.935c.032.548.064,1.1.064,1.677A4.6,4.6,0,0,0,144.561,63.609Z" transform="translate(-92.83 -27.713)" fill="url(#linear-gradient-3)"/>
      <path id="Path_46" data-name="Path 46" d="M96.351,55.067a2.783,2.783,0,0,0-.451,1.515A2.728,2.728,0,0,0,97.157,58.9c.032,0,.064,0,.064.032.064.032.1.064.161.1V54.1A2.7,2.7,0,0,0,96.351,55.067Z" transform="translate(-60.644 -22.428)" fill="url(#linear-gradient-4)"/>
      <path id="Path_47" data-name="Path 47" d="M80.894,59.907a1.637,1.637,0,0,1,.967-1.193,4.369,4.369,0,0,1-.064-.645,3.059,3.059,0,0,1,.516-1.741c-1.451-.226-3.933.709-5.545,1.386l2.1-.258c.129-.032.258.1.29.226v.032a.274.274,0,0,1-.226.258l-3.127.387,1.709,1.548a.252.252,0,0,1-.322.387l-.935-.838c.9,1.451,2.418,3.643,3.74,4.256a3.352,3.352,0,0,1,1.032-2.192A1.738,1.738,0,0,1,80.894,59.907Zm-1.1-2.321c-.032-.129.1-.258.226-.29l.742-.1c.129-.032.258.1.29.226v.032a.274.274,0,0,1-.226.258l-.774.1A.249.249,0,0,1,79.8,57.585Z" transform="translate(-47.025 -23.914)" fill="url(#linear-gradient-5)"/>
      <path id="Path_48" data-name="Path 48" d="M93.134,71.1A2.793,2.793,0,0,0,90.3,73.807a2.834,2.834,0,0,0,1.161,2.386,1.733,1.733,0,0,1-.161-.677v-.064a1.707,1.707,0,0,1,1.773-1.644,2.489,2.489,0,0,0,.484-.064V71.228a1.618,1.618,0,0,0-.387-.064C93.2,71.131,93.166,71.131,93.134,71.1Z" transform="translate(-56.846 -33.946)" fill="url(#linear-gradient-6)"/>
      <path id="Path_49" data-name="Path 49" d="M116,21h-.838l-.064,2.257a7.336,7.336,0,0,1,.838.064Z" transform="translate(-73.654 0)" fill="url(#linear-gradient-7)"/>
      <path id="Path_50" data-name="Path 50" d="M94.712,33.6a.258.258,0,1,1,0-.516h.1v-.258L93.261,32.8a1.021,1.021,0,0,0-1.161.9.912.912,0,0,0,.29.645,1.238,1.238,0,0,0,.806.29l1.58.032v-1.1Zm-.387-.258a.277.277,0,0,1-.258.258l-.709-.032a.258.258,0,1,1,0-.516l.709.032a.254.254,0,0,1,.258.258Z" transform="translate(-58.069 -7.992)" fill="url(#linear-gradient-8)"/>
      <path id="Path_51" data-name="Path 51" d="M12.909,267.4,11.2,269.625h.677l1.709-2.225Z" transform="translate(-3.252 -166.958)" fill="url(#linear-gradient-9)"/>
      <path id="Path_52" data-name="Path 52" d="M43.8,266.793l1.1,2.289h.484L44.155,266.6Z" transform="translate(-25.342 -166.416)" fill="url(#linear-gradient-10)"/>
      <path id="Path_53" data-name="Path 53" d="M33.04,266.567c-.032,0-.064.032-.1.032a.293.293,0,0,1-.226-.1.293.293,0,0,0,.226.1.141.141,0,0,0,.1-.032.216.216,0,0,0,.129-.226.118.118,0,0,0-.032-.1l-.1-.226-.226.1a.278.278,0,0,0-.129.322l-.419-.838-2.644,1.29.419.838a.032.032,0,0,0,.032.032.26.26,0,0,1-.129.29l-.645.322h1.773l-.193-.419a.954.954,0,0,1-.064-.322.774.774,0,0,1,.387-.645.7.7,0,0,1,.935.322l.516,1.032h1.87l-1-2.063Z" transform="translate(-15.517 -165.738)" fill="url(#linear-gradient-11)"/>
      <path id="Path_54" data-name="Path 54" d="M30.093,138.912h0v-.129h0v-.064A3.149,3.149,0,0,0,29.9,136.3v6.513l1.87,1.741,1.612-1.483-3.256-4.127h0l-.032-.032C30.126,138.944,30.126,138.912,30.093,138.912Zm.516,1.419a.255.255,0,0,1,.355.032l1.87,2.45a.246.246,0,0,1,.064.161.23.23,0,0,1-.1.193.255.255,0,0,1-.355-.032l-1.87-2.45A.249.249,0,0,1,30.609,140.33Z" transform="translate(-15.923 -78.126)" fill="url(#linear-gradient-12)"/>
      <path id="Path_55" data-name="Path 55" d="M208.616,239.52h-.193a.242.242,0,0,1-.032-.484l.742-.032c.193-.226.419-.451.58-.677l-.226-.064a.247.247,0,0,1,.1-.484l.451.1a2.79,2.79,0,0,0,.226-.322l-1.515-.774a.259.259,0,0,1-.1-.355.216.216,0,0,1,.226-.129.244.244,0,0,1,.129.032l1.58.806c.161-.258.322-.484.484-.742a9.208,9.208,0,0,0-2.8-1.193H208.2c-.226.161-.355,1.064-.419,1.612-.032.258-.064.516-.1.709a5.683,5.683,0,0,1-.226.709c-.161.516-.451,1.386-.322,1.612,0,.032.032.032.064.032a8.177,8.177,0,0,0,.935.129Z" transform="translate(-135.992 -145.139)" fill="url(#linear-gradient-13)"/>
      <path id="Path_56" data-name="Path 56" d="M30.416,126.571l.613-.548-.387-.419a.251.251,0,1,1,.355-.355l.387.419.161-.161-.387-.419a.251.251,0,1,1,.355-.355l.387.419,1.161-1.064a1.048,1.048,0,0,0,.355-.806,1.263,1.263,0,0,0-.29-.838,1.159,1.159,0,0,0-1.612-.064L29.9,123.895v1.838A3.931,3.931,0,0,1,30.416,126.571Z" transform="translate(-15.923 -68.494)" fill="url(#linear-gradient-14)"/>
      <path id="Path_57" data-name="Path 57" d="M166.879,114.943c.58-.161,1.161-.355,1.709-.548l.387-2a.251.251,0,0,1,.29-.193.245.245,0,0,1,.193.258v.064l-.355,1.709c.1-.032.161-.064.258-.1l.58-3.16v-.1h0a.032.032,0,0,1,.032-.032h0l.032-.032h0l.032-.032a3.22,3.22,0,0,0,1.934-2.612.26.26,0,0,1,.29-.226.249.249,0,0,1,.226.258v.032a4.47,4.47,0,0,1-.29,1.128l.838.1.064-.548a.26.26,0,0,1,.29-.226.249.249,0,0,1,.226.258v.032l-.064.548.226.032.064-.548a.26.26,0,0,1,.29-.226.249.249,0,0,1,.226.258v.032l-.064.548,1.548.161a1.137,1.137,0,0,0,.838-.258,1.158,1.158,0,0,0,.419-.774,1.137,1.137,0,0,0-.258-.838,1.158,1.158,0,0,0-.774-.419l-3.966-.419a.242.242,0,0,1-.226-.161,3.225,3.225,0,0,0-2.741-2.257,3.313,3.313,0,0,0-2.386.677,3.228,3.228,0,0,0,.064,5.094.23.23,0,0,1,.1.193h0Zm3.1-7a.979.979,0,0,1-.387.677,1.066,1.066,0,0,1-.742.226,1.02,1.02,0,0,1-.9-1.128,1.038,1.038,0,0,1,1.128-.9,1.019,1.019,0,0,1,.9,1.032Zm.355-1.805a.23.23,0,0,1,.355.032,2.58,2.58,0,0,1,.548,1.064v.064a.245.245,0,0,1-.193.258.251.251,0,0,1-.29-.193,1.875,1.875,0,0,0-.419-.838A.293.293,0,0,1,170.328,106.141Zm-3.45,2.354a.251.251,0,0,1-.29-.193,2.531,2.531,0,0,1,.29-1.806,2.381,2.381,0,0,1,3.031-.9.242.242,0,0,1,.161.226.118.118,0,0,1-.032.1.236.236,0,0,1-.322.129,1.788,1.788,0,0,0-1.225-.129,2.1,2.1,0,0,0-1.193.838,1.827,1.827,0,0,0-.226,1.419A.286.286,0,0,1,166.879,108.495Z" transform="translate(-107.829 -56.672)" fill="url(#linear-gradient-15)"/>
      <path id="Path_58" data-name="Path 58" d="M8.657,267.4a.253.253,0,0,1-.355.032l-.064-.032H7.174l.742.548a.279.279,0,0,1,.1.193c0,.064-.032.1-.064.161a.255.255,0,0,1-.355.032l-1.193-.9v.838l.806.613a.279.279,0,0,1,.1.193c0,.064-.032.1-.064.161a.255.255,0,0,1-.355.032l-.484-.355v.709h.9L9.012,267.4H8.657Z" transform="translate(0 -166.958)" fill="url(#linear-gradient-16)"/>
      <path id="Path_59" data-name="Path 59" d="M24.777,102.054a1.875,1.875,0,0,1,1.483-2.192l2.386-.548a1.636,1.636,0,0,1,1.806.613l.387-.1a1.642,1.642,0,0,1,1.354-1.354l2.386-.548a1.93,1.93,0,0,1,2.16,1V94.865l-1.064.58a1.292,1.292,0,0,1-1.257.129l-1.451.774a.25.25,0,0,1-.322-.064l-.742-.967a.293.293,0,0,1,0-.322l1.128-1.225a.251.251,0,0,1,.193-.29.259.259,0,0,1,.29.161h0l1.128,1.515a.458.458,0,0,0,.193.064.7.7,0,0,0,.548-.161.032.032,0,0,0,.032-.032l1.322-.709V93.93l-.645.355a.26.26,0,0,1-.258-.451l.806-.419a.113.113,0,0,0,.064-.032V89.9l-2.9,3.1a.251.251,0,0,1-.355-.355l3.256-3.482V80.549a1,1,0,0,1-.419-.193l-.032-.032L31.871,75a1.211,1.211,0,0,1-.226-1.677l.645-.871.29-.29a.255.255,0,1,1,.29.419.389.389,0,0,0-.161.161l-.645.871a.6.6,0,0,0-.129.516.706.706,0,0,0,.258.451l.032.032,4.385,5.32c.032.032.064.032.1.064v-.645a.177.177,0,0,1-.161-.1l-.484-.58a.252.252,0,1,1,.387-.322l.258.322V73.972L33.773,72.65a.246.246,0,1,1,.193-.451l2.74,1.225V69.555l-.645.322a1.2,1.2,0,0,1-1.612-.58h0l-.387-.871-2.644-5.578a.246.246,0,1,1,.451-.193l2.644,5.578.387.838h0V69.1a.724.724,0,0,0,.935.322l.871-.419V67.46a.236.236,0,0,1-.322-.129.227.227,0,0,1,.129-.322l.226-.1v-2.16L35.062,61.2a.246.246,0,0,1,.451-.193l1.225,2.579V61.463l-.387-.838a.246.246,0,0,1,.451-.193l.484,1h1l-.645-1.386a.246.246,0,0,1,.451-.193l.774,1.612h.838L38.77,59.5a.275.275,0,0,1,0-.226H36.739V51.21l-1.128.258a.251.251,0,0,1-.29-.193l-.355-1.548a.251.251,0,0,1,.193-.29l.355-.1a5.239,5.239,0,0,1-.193-3.675,2.891,2.891,0,0,1,1.451-1.451V40.28a2.506,2.506,0,0,1-.516.064,1.217,1.217,0,0,0-.871.322,1.2,1.2,0,0,0-.387.838,1.291,1.291,0,0,0,.387.935c.161.161.258.258.258.387a.216.216,0,0,1-.129.226c-.129.1-.29.064-.516-.032a3.312,3.312,0,0,1-2-2.708c-2.257-.838-4.933-5.771-5.062-5.965,0-.032,0-.032-.032-.064h0v-.161h0c0-.032,0-.032.032-.064h0l.032-.032h0L28,33.993c.258-.1,5.288-2.644,7.609-2.031a3.352,3.352,0,0,1,1.161-.838V27.19l-1.612-.032a1.738,1.738,0,0,1-1.128-.419,1.361,1.361,0,0,1-.484-1.032,1.559,1.559,0,0,1,1.677-1.386l1.548.032V23.225h4.224L41.059,21H37.19a3.625,3.625,0,0,1-1.483,1.128,3.86,3.86,0,0,1-3.547-.161.255.255,0,0,1,.29-.419,3.292,3.292,0,0,0,3.031.1,2.82,2.82,0,0,0,1-.645H32.128v.129a.032.032,0,0,1-.032.032h0a.032.032,0,0,1-.032.032h0l-.032.032h-.258a.032.032,0,0,1-.032-.032h0l-.032-.032h0l-.032-.032h0c-.032-.032-.064-.1-.1-.129H30.226a9.4,9.4,0,0,0-.935.742,3.718,3.718,0,0,1-1.644,1.032,2.44,2.44,0,0,1-.484-.032,2.694,2.694,0,0,0,1.709.419,3.435,3.435,0,0,0,2.708-1.386.26.26,0,1,1,.451.258,3.807,3.807,0,0,1-3.1,1.644,2.5,2.5,0,0,1-2.579-1.193.334.334,0,0,1,.064-.451c.193-.161.419,0,.516.1a1.065,1.065,0,0,0,.742.161c.29,0,.871-.516,1.322-.9.129-.129.29-.226.419-.355H21.844l1.386,2.837a.118.118,0,0,1,.032.1v.1c-.032.064-.064.129-.129.129l-1.29.613.419.838a.118.118,0,0,1,.032.1.271.271,0,0,1-.129.226l-3.1,1.515a.206.206,0,0,1-.193,0c-.064-.032-.129-.064-.129-.129l-.516-1.064a.246.246,0,0,1,.451-.193l.419.838,2.644-1.29-.419-.838h0a.227.227,0,0,1,.129-.322l1.29-.613L21.263,21h-.451l.58,1.193a.118.118,0,0,1,.032.1.271.271,0,0,1-.129.226.227.227,0,0,1-.322-.129L20.231,21H19.2a1.5,1.5,0,0,1-.226,1.225l1.193,2.45a.954.954,0,0,1,.064.322.774.774,0,0,1-.387.645.647.647,0,0,1-.548.032.763.763,0,0,1-.419-.355l-1.193-2.45A1.486,1.486,0,0,1,16.33,21H15.17l2.708,5.449a.118.118,0,0,1,.032.1.271.271,0,0,1-.129.226l-.742.355a.206.206,0,0,1-.193,0A.322.322,0,0,1,16.685,27l-3-6H6.4v2.225H7.98l-.161-.355a.246.246,0,1,1,.451-.193l.226.548h.387l-.161-.419a2.051,2.051,0,0,1-.226-.774.736.736,0,0,1,.484-.677c.838-.355,1.193.484,1.354.871l.419,1h3.256v16.54l.419.677a.194.194,0,0,1,.032.129.246.246,0,0,1-.064.161c-.129.161-.29.322-.419.484V45.89l4.933.516a1.8,1.8,0,0,1,1.322.967l.1.193,1.161.161.064-.451c.032-.258.161-1.064.935-.967a1.075,1.075,0,0,1,.935,1.064v.064l.58.1a.274.274,0,0,1,.226.258v.032a.31.31,0,0,1-.29.226l-.58-.1-.064.451.58.1a.274.274,0,0,1,.226.258v.032a.31.31,0,0,1-.29.226l-.58-.1-.064.451.58.1a.274.274,0,0,1,.226.258v.032a.31.31,0,0,1-.29.226l-.58-.1-.064.451.58.1a.274.274,0,0,1,.226.258v.032a.31.31,0,0,1-.29.226l-.58-.1-.064.451.58.1a.274.274,0,0,1,.226.258v.032a.31.31,0,0,1-.29.226l-.58-.1a1.16,1.16,0,0,1-.419.677,1.021,1.021,0,0,1-.806.193c-.806-.129-.677-.935-.645-1.193l.064-.516-1.257-.193a.237.237,0,0,1-.193-.064.255.255,0,0,1-.032-.355,1.878,1.878,0,0,0,.419-.935l.064-.516a1.943,1.943,0,0,0-.258-1.257,1.43,1.43,0,0,0-.935-.709l-4.836-.58v.387l4.707.516a.249.249,0,0,1,.226.258v.032a.26.26,0,0,1-.29.226l-4.643-.516v2.8l4.288.806a1.03,1.03,0,0,0,.613-.1.246.246,0,0,1,.193.451,1.766,1.766,0,0,1-.9.129L14.009,50.6v4.159l1.29-1.193a1.636,1.636,0,0,1,2.321.1,1.67,1.67,0,0,1,.451,1.128v.064a1.753,1.753,0,0,1-.516,1.161L16.2,57.239h0l-.548.484h0l-.935.838-.032.032a4.054,4.054,0,0,1,.161,1.064,3.547,3.547,0,0,1-.129,1l3.289,4.191a.246.246,0,0,1,.064.161.279.279,0,0,1-.1.193L16.04,66.976a.253.253,0,0,1-.355,0L13.977,65.4v5.513h0a.252.252,0,0,1,.129-.129.205.205,0,0,1,.193,0l1.1.484a.242.242,0,0,1,.161.226.118.118,0,0,1-.032.1.236.236,0,0,1-.322.129l-.871-.387-.355.806v2.257h0a.242.242,0,0,1,.161.226v.032h0c0,.032,0,.032-.032.064h0l-.129.29V76.2l7.512,3.385.161-.387-6.094-2.741A.246.246,0,0,1,15.75,76l6.094,2.741.193-.451h0a.242.242,0,0,1,.226-.161.118.118,0,0,1,.1.032h0l.871.387,1.193-2.676-.871-.387a.032.032,0,0,1-.032-.032.251.251,0,0,1-.1-.322l.58-1.29-7.867-3.514-.129.29,5.836,2.644a.246.246,0,1,1-.193.451l-6.094-2.741a.252.252,0,0,1-.129-.129.206.206,0,0,1,0-.193l.355-.774a.236.236,0,0,1,.322-.129l8.415,3.8a.242.242,0,0,1,.161.226.118.118,0,0,1-.032.1l-.58,1.29.871.387a.242.242,0,0,1,.161.226.118.118,0,0,1-.032.1L23.649,79a.236.236,0,0,1-.322.129l-.871-.387-.58,1.29a.236.236,0,0,1-.322.129l-7.544-3.353v4.578l.064-.226a.251.251,0,0,1,.29-.193.245.245,0,0,1,.193.258v.064l-.548,2.257v1.515l.838-3.385c.1-.387.193-.774.484-.935a.768.768,0,0,1,.613-.064.82.82,0,0,1,.677.838,3.868,3.868,0,0,1-.1.645l-1.193,4.9c-.1.419-.322,1.29-1.193,1.064-.032,0-.064-.032-.1-.032V95.7l.355-.484.387.322-.774,1v3.933H10.978L9.269,102.7h3.385c.032,0,.032-.032.064-.032l1.29-.613-.419-.838a.227.227,0,0,1,.129-.322l3.1-1.515a.206.206,0,0,1,.193,0c.064.032.129.064.129.129l.419.838.451-.226h0l.806-.387a.227.227,0,0,1,.322.129l1.419,2.9h4.417l-.226-.58C24.777,102.087,24.777,102.087,24.777,102.054Zm8.834-26.6.9-1.193a.252.252,0,1,1,.387.322l-.774,1.032L35.9,77.744a.246.246,0,0,1,.064.161.279.279,0,0,1-.1.193.255.255,0,0,1-.355-.032l-1.9-2.289A.293.293,0,0,1,33.612,75.455ZM22.134,73.682a.236.236,0,0,1,.322-.129l.548.258a.242.242,0,0,1,.161.226.118.118,0,0,1-.032.1.236.236,0,0,1-.322.129L22.263,74A.244.244,0,0,1,22.134,73.682Zm-2.644-.193a1.51,1.51,0,0,1,.871,1.257l2.515,1.128a.705.705,0,0,1,.419.645.941.941,0,0,1-.064.29.7.7,0,0,1-.387.355.66.66,0,0,1-.548-.032L19.78,76a1.5,1.5,0,0,1-2.386-1.1l-2.515-1.128a.705.705,0,0,1-.419-.645.941.941,0,0,1,.064-.29.708.708,0,0,1,.935-.355l2.515,1.128A1.573,1.573,0,0,1,19.49,73.489Zm12.961-1.806c0,.032.032.064.032.1,0,.064-.032.1-.064.161l-1.29,1.644a.279.279,0,0,1-.193.1,13.115,13.115,0,0,1,.742,2.74c0,.258-.1.29-.193.322-.226.1-.419.161-1.9-2.74l-.419.548h0l-.032.032h0a.032.032,0,0,0-.032.032h0L28.131,75a.252.252,0,0,1-.258-.032l-.516-.387a.293.293,0,0,1-.1-.226l.129-1.032h0v-.064a.032.032,0,0,1,.032-.032h0l2.45-3.192a1.16,1.16,0,0,1,.742-.419,1.039,1.039,0,0,1,.806.226A7.767,7.767,0,0,1,32.451,71.683Zm.226-9.35a.246.246,0,0,1,.451-.193l2.225,4.675a.118.118,0,0,1,.032.1.271.271,0,0,1-.129.226.227.227,0,0,1-.322-.129ZM36,67.814l-.709.322a.246.246,0,0,1-.193-.451l.709-.322a.227.227,0,0,1,.322.129.118.118,0,0,1,.032.1A.373.373,0,0,1,36,67.814Zm.451-1.58a.118.118,0,0,1,.032.1.271.271,0,0,1-.129.226.227.227,0,0,1-.322-.129L33.8,61.753a.246.246,0,0,1,.451-.193ZM34.192,52.79c.064.161.1.29.161.451v.064a.236.236,0,0,1-.193.226.266.266,0,0,1-.322-.161c-.032-.064-.032-.129-.064-.161l-.355.129a5.985,5.985,0,0,1,.322,1.967,3.807,3.807,0,0,1-2.225,3.8,3.411,3.411,0,0,1-3.063-.419,5.705,5.705,0,0,1-2.16-2.644l-.355.129c.032.032.032.1.064.129a.246.246,0,0,1-.451.193c-.064-.129-.1-.258-.161-.387a6.86,6.86,0,0,1-.226-4.449,4.344,4.344,0,0,1,2.289-2.676L27.26,48.5l-.677.258a.206.206,0,0,1-.193,0l-.967-.387a.239.239,0,0,1,0-.451L28.711,46.7a.241.241,0,0,1,.322.161c0,.032.032.064.032.1a.242.242,0,0,1-.161.226l-2.676,1,.29.129.838-.322h0l.935-.355a.255.255,0,0,1,.161.484l-.677.258.193.484C30.355,48.083,33.063,49.759,34.192,52.79ZM19.619,30.221l6.094-3.1a1.878,1.878,0,0,1,1.838.193l1.064-.484-.193-.419a1.809,1.809,0,0,1-.193-.709.673.673,0,0,1,.451-.613,1.081,1.081,0,0,1,1.386.451l.548-.258a.227.227,0,0,1,.322.129c0,.032.032.064.032.1a.242.242,0,0,1-.161.226L30.258,26l.193.419L31,26.159a.227.227,0,0,1,.322.129c0,.032.032.064.032.1a.242.242,0,0,1-.161.226l-.548.258.193.419.548-.258a.227.227,0,0,1,.322.129c0,.032.032.064.032.1a.242.242,0,0,1-.161.226l-.484.226.193.419.548-.258a.227.227,0,0,1,.322.129c0,.032.032.064.032.1a.242.242,0,0,1-.161.226l-.548.258.193.419.548-.258a.227.227,0,0,1,.322.129c0,.032.032.064.032.1a.242.242,0,0,1-.161.226l-.548.258a.885.885,0,0,1,.064.419,1.618,1.618,0,0,1-.064.387,1.078,1.078,0,0,1-.58.613c-.742.322-1.064-.419-1.193-.645l-.226-.451-1.128.516a.458.458,0,0,1-.193.064.26.26,0,0,1-.226-.29,1.734,1.734,0,0,0-.161-1l-.226-.451a1.754,1.754,0,0,0-2.1-1l-6,3.063a1.485,1.485,0,0,0-.742,1.967l.226.451a1.42,1.42,0,0,0,.838.774,1.514,1.514,0,0,0,1.128-.032l6.352-2.579a1.205,1.205,0,0,0,.484-.419.255.255,0,0,1,.419.29,2.025,2.025,0,0,1-.677.613l-6.352,2.579a2.056,2.056,0,0,1-1.515.064,1.978,1.978,0,0,1-1.128-1.032l-.226-.451A2.021,2.021,0,0,1,19.619,30.221Zm6.771-2a.271.271,0,0,1-.129.226L21.328,30.93a.267.267,0,1,1-.226-.484l4.933-2.483a.271.271,0,0,1,.355.129C26.357,28.158,26.39,28.19,26.39,28.222Zm-5.578,2.837a.271.271,0,0,1-.129.226l-.58.29a.246.246,0,1,1-.193-.451l.58-.29a.227.227,0,0,1,.322.129Zm3.256,11.833c-.129-.064-.129-.226-.064-.355s.226-.129.355-.064A12.014,12.014,0,0,0,28,44.278h.064c.226-.161.355-1.064.419-1.612.032-.258.064-.516.1-.709a5.683,5.683,0,0,1,.226-.709c.161-.516.451-1.354.322-1.612,0-.032-.032-.032-.064-.032a11.682,11.682,0,0,0-4.707.129,1.159,1.159,0,0,1,.064.355.71.71,0,0,1-.032.258h0l3.482-.064h0a.254.254,0,0,1,.258.258h0a.254.254,0,0,1-.258.258l-3.127.064,1.934.451a.245.245,0,0,1,.193.258v.064a.251.251,0,0,1-.29.193L24.2,41.28h0l1.644.806a.216.216,0,0,1,.129.226.118.118,0,0,1-.032.1.278.278,0,0,1-.322.129l-1.548-.774a1.138,1.138,0,0,1-.516.58,1.515,1.515,0,0,1-.935.1,1.36,1.36,0,0,1-.677-.355,14.618,14.618,0,0,1-5.094.161.514.514,0,0,1-.387-.29c-.258-.451.032-1.29.29-2.031a4.386,4.386,0,0,0,.193-.645c.032-.161.064-.419.1-.677.1-.774.193-1.644.645-1.967a.607.607,0,0,1,.484-.1,11.786,11.786,0,0,1,4.514,2.386,1.559,1.559,0,0,1,.774-.032,1.36,1.36,0,0,1,.677.355,11.789,11.789,0,0,1,5.094-.193.514.514,0,0,1,.387.29,1.03,1.03,0,0,1,.1.451,5.357,5.357,0,0,1-.387,1.58,4.385,4.385,0,0,0-.193.645c-.032.161-.064.419-.1.677-.1.774-.226,1.644-.645,1.967a.607.607,0,0,1-.484.1A12.519,12.519,0,0,1,24.068,42.892ZM27,41.634a.251.251,0,0,1,.29-.193l.742.161a.245.245,0,0,1,.193.258v.064a.251.251,0,0,1-.29.193l-.742-.161A.306.306,0,0,1,27,41.634ZM21.618,69.426c-.032,0-.032,0-.064.032h-.161c-.032,0-.032-.032-.064-.032h0l-.032-.032h0l-.032-.032c-.1-.226-2.321-5.384-1.58-7.641a3.315,3.315,0,0,1-.967-2.354,3.443,3.443,0,0,1,.1-.806c.032-.161.129-.451.387-.451s.322.322.355.516a1.312,1.312,0,0,0,.484.806,1.238,1.238,0,0,0,1.709-.29,1.879,1.879,0,0,1,2.579-.419,1.789,1.789,0,0,1,.742,1.29c.032-.032.064-.032.064-.064a1.733,1.733,0,0,1,1.354-.387,1.85,1.85,0,0,1,1.644,2.031,1.231,1.231,0,0,0,1.064,1.354,1.19,1.19,0,0,0,.967-.322c.129-.129.322-.29.516-.193a.287.287,0,0,1,.161.258.979.979,0,0,1-.1.355A3.359,3.359,0,0,1,27.9,64.88C26.905,66.944,21.811,69.33,21.618,69.426ZM23.1,82.677a2.037,2.037,0,0,1,2.869-.129,2.243,2.243,0,0,1,.548.806l1.29.129a.228.228,0,0,1,.226.258.249.249,0,0,1-.258.226l-1.483-.129a.277.277,0,0,1-.226-.193,1.372,1.372,0,0,0-.451-.742,1.529,1.529,0,1,0,.1,2.16,1.289,1.289,0,0,0,.322-.58.322.322,0,0,1,.129-.161.206.206,0,0,1,.193,0l1.612.1a.326.326,0,0,1,.226.129l2.418,5.159a2.254,2.254,0,0,0,1.419.967l-3-5.707a.245.245,0,0,1,.032-.29.309.309,0,0,1,.29-.064l6,2.515a1.273,1.273,0,0,0-1.064-1.193h-.032l-5.288-2.16c-.1-.032-.129-.1-.161-.193l-.226-1.612a.206.206,0,0,1,0-.193c.032-.064.064-.129.129-.129a2.118,2.118,0,0,0,.548-.387,1.529,1.529,0,1,0-2.16.1,1.757,1.757,0,0,0,.774.387.247.247,0,0,1-.1.484,1.855,1.855,0,0,1-1.032-.516,2.031,2.031,0,1,1,2.869-.129,1.772,1.772,0,0,1-.548.419l.193,1.322,5.159,2.1a1.778,1.778,0,0,1,1.419,1.741c0,.129-.032.258-.032.387a.322.322,0,0,1-.129.161.273.273,0,0,1-.226,0l-5.642-2.354L32.644,90.8a.275.275,0,0,1,0,.226.214.214,0,0,1-.161.129c-1.322.322-2.257-1.1-2.289-1.161v-.032l-2.354-5.03-1.354-.1a5.61,5.61,0,0,1-.355.58,2.037,2.037,0,0,1-2.869.129A2.008,2.008,0,0,1,23.1,82.677Zm5.481-2.966a.752.752,0,0,0-.58-.193A.26.26,0,0,1,27.937,79a1.186,1.186,0,0,1,1,.322,1.2,1.2,0,0,1,.387.838v.064a1.358,1.358,0,0,1-.322.838.251.251,0,0,1-.355-.355.732.732,0,0,0,.193-.516A.887.887,0,0,0,28.582,79.711Zm-5,21.15a.237.237,0,0,1-.193-.064l-4.578-3.514a3.445,3.445,0,0,1-1.29-2.225,3.18,3.18,0,0,1,.419-2.1l-.58-.451c-.032,0-.064.032-.129.032a1.039,1.039,0,0,1-.742-.193l-1.1-.838a.177.177,0,0,1-.1-.161.237.237,0,0,1,.064-.193L16.33,89.9a.255.255,0,0,1,.355-.032l.29.226a5.255,5.255,0,0,1,2.74-2.483,2.869,2.869,0,0,1,2.321.355,1.779,1.779,0,0,1,2.386-.161,1.8,1.8,0,0,1,.709,1.419,1.751,1.751,0,0,1-.387,1.1,1.8,1.8,0,0,1-3.224-1.1,1.562,1.562,0,0,1,.226-.838,2.455,2.455,0,0,0-1.87-.29,4.746,4.746,0,0,0-2.45,2.289l.419.322a.961.961,0,0,1,.387.774l.742.58h0l.032.032a.293.293,0,0,1,0,.322c-.032.064-.1.1-.129.161l-.226.29a2.946,2.946,0,0,0-.58,2.128,2.757,2.757,0,0,0,1.1,1.9l4.385,3.353,3.708-4.836L22.875,92.06a2.824,2.824,0,0,0-3.192-.193.26.26,0,1,1-.258-.451,3.361,3.361,0,0,1,3.772.226l4.546,3.514a.177.177,0,0,1,.1.161v.032c0,.064-.032.1-.064.161l-4.03,5.255A.177.177,0,0,1,23.585,100.861Zm-3.611-4.514,1.87,1.419a.279.279,0,0,1,.1.193c0,.064-.032.1-.064.161a.255.255,0,0,1-.355.032l-1.87-1.419a2.85,2.85,0,0,1-.613-3.966.252.252,0,1,1,.387.322A2.344,2.344,0,0,0,19.974,96.348Zm1.741.58a.177.177,0,0,1-.161.1.237.237,0,0,1-.193-.064l-1.451-1.1a.255.255,0,0,1-.032-.355l1.934-2.515a.177.177,0,0,1,.161-.1.237.237,0,0,1,.193.064l1.451,1.1a.279.279,0,0,1,.1.193c0,.064-.032.1-.064.161Zm1.741,2.225c0,.064-.032.1-.064.161a.255.255,0,0,1-.355.032l-.871-.645a.252.252,0,0,1,.322-.387l.871.645A.279.279,0,0,1,23.456,99.153Z" fill="url(#linear-gradient-17)"/>
      <path id="Path_60" data-name="Path 60" d="M106.39,266.613c-.064-.032-.129-.1-.226-.161l-.032-.032a.88.88,0,0,1-.29-.387,2.505,2.505,0,0,1-.419-.032,14.055,14.055,0,0,1-3.611.419H96.525v.032a1.938,1.938,0,0,1-1.483,2l-.742.161h6.352l.032-1.322a.277.277,0,0,1,.258-.258h.484a.812.812,0,0,1,.645.29,2.063,2.063,0,0,1,.387,1.257c2.031-.032,3.966-.129,5.836-.258a10.928,10.928,0,0,1-1.193-1.548A.969.969,0,0,1,106.39,266.613Z" transform="translate(-59.56 -166.009)" fill="url(#linear-gradient-18)"/>
      <path id="Path_61" data-name="Path 61" d="M71.369,264.545l-.064-.064a.251.251,0,1,1,.355-.355l.064.064c.419.451.9,1,1.225.935l2-.451a1.508,1.508,0,0,0,1.1-1.644l-.064-.935a1.375,1.375,0,0,0-1.677-.967l-2.386.548a1.135,1.135,0,0,0-1,1.064.277.277,0,0,1-.193.226l-.742.161a.281.281,0,0,1-.29-.129,1.124,1.124,0,0,0-1.354-.548L65.952,263a1.392,1.392,0,0,0-1.1,1.58l.29.742H65.6a4.207,4.207,0,0,1-.322-.806c-.161-.645.451-1.032.806-1.161a.266.266,0,0,1,.322.161v.1a.242.242,0,0,1-.161.226s-.548.193-.484.548a5.11,5.11,0,0,0,.387.935H69.4a6.4,6.4,0,0,0,.419-1.773.277.277,0,0,1,.193-.226l.709-.161a.247.247,0,0,1,.1.484l-.548.129a8.915,8.915,0,0,1-.355,1.548h2.225A8.727,8.727,0,0,1,71.369,264.545Z" transform="translate(-39.595 -162.684)" fill="url(#linear-gradient-19)"/>
      <path id="Path_62" data-name="Path 62" d="M138.826,262.155l1.806.419a.245.245,0,0,1,.193.258v.064a.251.251,0,0,1-.29.193l-1.934-.451,2.128,1.257a.271.271,0,0,1,.129.226.194.194,0,0,1-.032.129.259.259,0,0,1-.355.1l-1.709-1,2.063,2.031c.484-.065.967-.1,1.451-.161a.032.032,0,0,1,.032-.032c.1-.161.258-.387.419-.613.322-.451.838-1.161.774-1.451,0-.032,0-.032-.032-.064a13.026,13.026,0,0,0-4.514-1.257v.032C138.922,261.9,138.89,262.026,138.826,262.155Zm2.16.774a.251.251,0,0,1,.29-.193l.838.193a.245.245,0,0,1,.193.258v.065a.251.251,0,0,1-.29.193l-.838-.193A.306.306,0,0,1,140.986,262.928Z" transform="translate(-89.577 -163.163)" fill="url(#linear-gradient-20)"/>
      <path id="Path_63" data-name="Path 63" d="M132.987,262.7l-.387.645a.958.958,0,0,0,.58.129.534.534,0,0,0,.419-.322l.645-1.1a2.224,2.224,0,0,0,.1-.258,8.881,8.881,0,0,1-1.322.774A.243.243,0,0,0,132.987,262.7Z" transform="translate(-85.512 -163.163)" fill="url(#linear-gradient-21)"/>
      <path id="Path_64" data-name="Path 64" d="M136.151,266.7h0a1.205,1.205,0,0,1-.451.451,13,13,0,0,0,1.322,1.644l1.193-.1Z" transform="translate(-87.612 -166.483)" fill="url(#linear-gradient-22)"/>
      <path id="Path_65" data-name="Path 65" d="M126.787,101.071a1.068,1.068,0,0,1-.774,0l-1.29-.516a.252.252,0,0,1-.129-.129.206.206,0,0,1,0-.193l.613-1.483a.236.236,0,0,1,.322-.129l.322.129a5.266,5.266,0,0,1,1.967-3.127,2.869,2.869,0,0,1,2.321-.29,1.8,1.8,0,0,1,3.385.871,1.684,1.684,0,0,1-.129.677,1.806,1.806,0,0,1-3.482-.677,1.57,1.57,0,0,1,.032-.387,2.438,2.438,0,0,0-1.87.226,4.753,4.753,0,0,0-1.741,2.869l.484.193a.961.961,0,0,1,.58.645l.871.355h.032a.032.032,0,0,1,.032.032.292.292,0,0,1,.1.322l-.1.193-.129.355c0,.032-.032.064-.032.1.129-.032.226-.065.355-.1.032-.064.064-.161.1-.226a.236.236,0,0,1,.322-.129.242.242,0,0,1,.161.226c.774-.193,1.515-.419,2.257-.645l.1-.1a.144.144,0,0,1,.161,0c.548-.193,1.1-.387,1.612-.58l-1.193-.484a2.83,2.83,0,0,0-3.127.677.251.251,0,1,1-.355-.355,3.338,3.338,0,0,1,3.675-.774l1.677.677c1.032-.419,2.031-.871,2.966-1.354a19.055,19.055,0,0,0,3.353-2.257c-.193-.032-.355-.064-.516-.1a.514.514,0,0,1-.387-.29c-.258-.451.032-1.29.29-2.031a4.386,4.386,0,0,0,.193-.645c.032-.161.064-.419.1-.677.1-.774.193-1.644.645-1.967a.607.607,0,0,1,.484-.1,10.6,10.6,0,0,1,2.934,1.257,22.262,22.262,0,0,0,2.515-10.994,25.2,25.2,0,0,0-.193-3.16,2.142,2.142,0,0,1-1.419-.1,2.045,2.045,0,0,1-.774-.613l-1.29.29a.247.247,0,0,1-.1-.484l1.451-.322a.244.244,0,0,1,.258.1,1.592,1.592,0,0,0,.645.58,1.515,1.515,0,0,0,1.128.064,17.356,17.356,0,0,0-.742-2.966,1.523,1.523,0,0,0-1.161.871,1.443,1.443,0,0,0-.129.645.459.459,0,0,1-.064.193.246.246,0,0,1-.161.064l-1.58.419a.251.251,0,0,1-.258-.064l-3.9-4.159a2.24,2.24,0,0,0-1.644-.484l4.643,4.514a.309.309,0,0,1,.064.29.255.255,0,0,1-.258.161l-6.48-.516a1.275,1.275,0,0,0,1.386.806h.032l5.707.387a.218.218,0,0,1,.193.129l.742,1.451a.346.346,0,0,1,.064.193.177.177,0,0,1-.1.161,1.966,1.966,0,0,0-.387.516,1.537,1.537,0,1,0,2.031-.774,1.6,1.6,0,0,0-.87-.129.26.26,0,0,1-.064-.516,2.089,2.089,0,0,1,1.161.161,2.049,2.049,0,1,1-2.708,1.032,1.686,1.686,0,0,1,.387-.548l-.613-1.193-5.545-.387a1.758,1.758,0,0,1-1.967-1.58.346.346,0,0,1,.064-.193.237.237,0,0,1,.193-.064l6.126.484-4.385-4.288c-.064-.064-.1-.129-.064-.193a.265.265,0,0,1,.129-.193c1.161-.709,2.483.355,2.547.387a.032.032,0,0,1,.032.032l3.8,4.062,1.29-.355a2,2,0,0,1,1.612-1.806,16.6,16.6,0,0,0-5.642-7.48L132.3,69.926a.409.409,0,0,1-.193.032.322.322,0,0,1-.161-.129l-.709-1.225-.871.451a.259.259,0,0,1-.355-.1l-1.741-2.966a.259.259,0,0,1,.1-.355l1.032-.613a.26.26,0,0,1,.258.451l-.806.484,1.483,2.515.806-.484h0a.259.259,0,0,1,.355.1l.709,1.225,6.964-4.095c-.129-.1-.258-.161-.387-.258l-5.062,2.966a.26.26,0,0,1-.258-.451l4.836-2.837q-.774-.484-1.644-.967l-.9.548a1.4,1.4,0,0,1-.742,1.322,1.5,1.5,0,0,1-1.515,0l-2.354,1.386a.65.65,0,0,1-.548.064.608.608,0,0,1-.419-.322.65.65,0,0,1-.1-.355.691.691,0,0,1,.355-.613l2.354-1.386a1.464,1.464,0,0,1,.742-1.322,1.5,1.5,0,0,1,1.515,0l.129-.064c-.548-.258-1.1-.484-1.677-.709l-4.256,2.515a.409.409,0,0,1-.193.032.322.322,0,0,1-.161-.129l-.419-.709a.259.259,0,0,1,.1-.355l3.289-1.934a45.915,45.915,0,0,0-8.705-1.838v-.226a34.531,34.531,0,0,0,4.062-.871l.1-4.353a3.752,3.752,0,0,1,.032-5.836,3.744,3.744,0,0,1,5.868,1.644l3.8.387a1.469,1.469,0,0,1,1.1.613,1.666,1.666,0,0,1,.355,1.032v.032a15.715,15.715,0,0,0,2.8-4.836,5.27,5.27,0,0,1-4.514-1.548l-.29.258.1.1a.251.251,0,1,1-.355.355l-.29-.29c-2.257-2.321-2.612-5.481-.935-7.351l-.355-.387-.516.516a.246.246,0,0,1-.161.064l-1.064.032a.242.242,0,0,1-.226-.161.257.257,0,0,1,.064-.29l2.515-2.45a.253.253,0,0,1,.355,0c.032.064.064.1.064.161a.458.458,0,0,1-.064.193l-2.063,2h.29l1.354-1.29a.251.251,0,0,1,.355.355l-.516.516.355.387c1.838-1.548,4.772-1.193,7,.838a23.53,23.53,0,0,0-.258-2.676,4.325,4.325,0,0,1-.58-.9,3.531,3.531,0,0,1-.226-2.225,14.205,14.205,0,0,0-5.965-7.351c-.032.032-.032.1-.064.129a.84.84,0,0,1-.516.484.893.893,0,0,1-.29.032,1.908,1.908,0,0,1,.226.935,1.789,1.789,0,0,1-.226.9l-.806,1.612a2.011,2.011,0,0,1-2.16,1.1l-.226,4.095a.242.242,0,1,1-.484-.032l.258-4.095h-.032l-1.29-.645a2.258,2.258,0,0,1-.613-.484l-3.772,1.773a7.433,7.433,0,0,0,.387,1.419l1.612-1.193a.236.236,0,0,1,.355.064.246.246,0,0,1,.064.161.23.23,0,0,1-.1.193l-1.709,1.29a4.529,4.529,0,0,0,1.709,1.967q1.886,1.064,4.933-.29l-.419-3.127a.26.26,0,1,1,.516-.064l.451,3.321v.032a.242.242,0,0,1-.161.226c-2.257,1.032-4.127,1.161-5.545.355-2.225-1.257-2.547-4.288-2.579-4.417a.293.293,0,0,1,.129-.258l3.869-1.806a2.02,2.02,0,0,1-.193-.871,1.789,1.789,0,0,1,.226-.9l.806-1.612a2.044,2.044,0,0,1,2.515-1c.032,0,.032,0,.064.032l1.515.774c.355.161.677.322.838.258.032,0,.129-.032.226-.226a.545.545,0,0,0,.064-.161,4.13,4.13,0,0,0-.645-.355,20.405,20.405,0,0,0-2.676-1.225.244.244,0,0,0-.064.129.267.267,0,1,1-.484-.226c0-.032.032-.064.064-.1C126.174,22.6,119.661,21.6,111.5,21.5l-.064,2.354a10.46,10.46,0,0,1,2.676.709l-.451-.322a.292.292,0,0,1-.1-.322l.516-1.1a.281.281,0,0,1,.29-.129l1.58.451a.262.262,0,0,1,.355.064.244.244,0,0,1-.032.322h0l-.774,1.644c0,.064.032.129.032.193a8.455,8.455,0,0,1,.806.709l6.8,4.707a.756.756,0,0,0,.967-.355l1.677-3.514a.743.743,0,0,0-.322-.967l-8.383-2.45a.255.255,0,1,1,.161-.484l8.383,2.483h.032a1.237,1.237,0,0,1,.709,1.128.946.946,0,0,1-.129.516L124.562,30.5a1.237,1.237,0,0,1-1.644.58.032.032,0,0,1-.032-.032l-5.578-3.869c1,1.773,1.612,4.482,1.87,8.125a2.1,2.1,0,0,0,.935-.613,1.2,1.2,0,0,0,.161-.774c-.032-.1-.1-.387.129-.484a.386.386,0,0,1,.451.129,1.876,1.876,0,0,1,.451,1.257,3.6,3.6,0,0,1-.451,1.612,4.341,4.341,0,0,1-1.548,1.677v6.384c0,.613,0,1.225-.032,1.806l4.32-4.095a1.909,1.909,0,0,1,1.58-.387.6.6,0,0,1,.226.064l.871-.774-.29-.355a1.472,1.472,0,0,1-.387-.613.762.762,0,0,1,.258-.742,1.052,1.052,0,0,1,1.451.032l.451-.387a.23.23,0,0,1,.355.032.246.246,0,0,1,.064.161.279.279,0,0,1-.1.193l-.451.387.29.355.451-.387a.23.23,0,0,1,.355.032.246.246,0,0,1,.064.161.279.279,0,0,1-.1.193l-.451.387.29.355.451-.387a.23.23,0,0,1,.355.032.246.246,0,0,1,.064.161.279.279,0,0,1-.1.193l-.451.387.29.355.451-.387a.23.23,0,0,1,.355.032.246.246,0,0,1,.064.161.279.279,0,0,1-.1.193l-.451.387.29.355.451-.387a.23.23,0,0,1,.355.032.246.246,0,0,1,.064.161.279.279,0,0,1-.1.193l-.451.387a1.012,1.012,0,0,1,.226.677v.064a1.238,1.238,0,0,1-.355.742c-.613.516-1.128-.1-1.322-.29l-.322-.387-.935.838a.177.177,0,0,1-.161.1.251.251,0,0,1-.29-.193,2.254,2.254,0,0,0-.419-.935L126.174,43a1.862,1.862,0,0,0-1.161-.613,1.409,1.409,0,0,0-1.161.258l-4.739,4.514c0,.193-.032.419-.032.613h0l.451-.419a.253.253,0,0,1,.355,0c.032.064.064.1.064.161a.279.279,0,0,1-.1.193l-.451.419a.253.253,0,0,1-.355,0l-.032-.032c-.032.516-.1,1-.161,1.483l.226.258a1.521,1.521,0,0,0,1.032.516,1.55,1.55,0,0,0,1.1-.355l5.352-4.288a1.041,1.041,0,0,0,.322-.548.255.255,0,1,1,.484.161,1.593,1.593,0,0,1-.484.774l-5.352,4.288a1.943,1.943,0,0,1-1.451.484,2.031,2.031,0,0,1-1.322-.613,14.857,14.857,0,0,1-1.967,5.642c-.032.032-.064.064-.064.1l1.515.645a1.182,1.182,0,0,1,.967,1.193v.193l-.161,1.064a1.819,1.819,0,0,1-.129.387.26.26,0,1,1-.451-.258.466.466,0,0,0,.064-.226l.161-1.064a.7.7,0,0,0-.58-.806h-.064l-1.677-.677c-.064.1-.161.193-.226.29l.193.064a.242.242,0,0,1,.161.226v.032l-.226,1.483a.247.247,0,0,1-.484-.1l.193-1.29-.193-.064a9.188,9.188,0,0,1-5.578,2.386.573.573,0,0,0,.129.322.767.767,0,0,0,.419.29l6.867-.484a.242.242,0,1,1,.032.484l-6.9.484H110.7a1.22,1.22,0,0,1-1-1.064c-.451.032-.935.064-1.419.064h-.58v.032l1.032,2.192a20.652,20.652,0,0,1,4.707.58c.064-.032.1-.064.161-.064a1.451,1.451,0,0,1,1.161.032.792.792,0,0,1,.548.645c.032.032.1.032.129.064a.458.458,0,0,1,.193-.064,1.981,1.981,0,0,1,1.548.032l1.644.709a2.048,2.048,0,0,1,1.225,1.87.71.71,0,0,1-.032.258l3.966.032a.277.277,0,0,1,.258.258h0a.277.277,0,0,1-.258.258l-4.127-.032v.032l-.1.258a13.3,13.3,0,0,1,1.419,2.966c.064,0,.1.032.129.1l1.354,1.644a4.375,4.375,0,0,0,1.87-1.806c.645-1.29.451-2.934-.548-4.9l-3.1.58a.247.247,0,1,1-.1-.484l3.289-.613a.219.219,0,0,1,.258.129,8.052,8.052,0,0,1,1.064,3.643,3.988,3.988,0,0,1-.419,1.87,5.522,5.522,0,0,1-3.16,2.515,29.684,29.684,0,0,1,.387,5v1.612l2.063,1.29.838-1.322h0a.177.177,0,0,1,.161-.1h.032c.064,0,.1,0,.129.032a.645.645,0,0,0,.419.064.5.5,0,0,0,.355-.258l3.8-6.094a.546.546,0,0,0-.193-.774.645.645,0,0,0-.419-.064.5.5,0,0,0-.355.258l-3.8,6.094a.26.26,0,0,1-.451-.258l3.8-6.094a1.037,1.037,0,0,1,.677-.484,1,1,0,0,1,.806.129,1.069,1.069,0,0,1,.516.9,1.314,1.314,0,0,1-.161.58l-3.8,6.094a1.037,1.037,0,0,1-.677.484,1.184,1.184,0,0,1-.58-.032l-.709,1.128,2.257,1.419a.271.271,0,0,1,.129.226.194.194,0,0,1-.032.129.259.259,0,0,1-.355.1l-4.514-2.8v.419l4.03,2.515c.387.258.774.484.774.9a.806.806,0,0,1-.129.451c-.484.774-1.225.29-1.612.064l-3.063-1.9v1.548c0,.967-.032,1.934-.064,2.837a7.178,7.178,0,0,1,1.806.258c.161.032.29.1.451.129a.242.242,0,0,1,.161.226v.064a.266.266,0,0,1-.322.161c-.064-.032-.129-.032-.161-.064l-.1.387c2.128.677,3.675,2.386,3.675,4.127a3.18,3.18,0,0,1-.1.774c-.548,1.967-3,3.031-5.578,2.418l-.1.387c.032,0,.1.032.129.032a.247.247,0,0,1-.1.484c-.129-.032-.258-.064-.419-.1a7.464,7.464,0,0,1-1.193-.419c-.193.451-.419.9-.645,1.322a8.109,8.109,0,0,1-1.677,2.063,14.064,14.064,0,0,1,4.546,1.322.575.575,0,0,1,.29.387v.129a3.843,3.843,0,0,1-.9,1.709,1.79,1.79,0,0,1-.193.258c1.967-.258,3.8-.58,5.545-.967l-.613-.258C126.851,101.039,126.819,101.071,126.787,101.071ZM143.262,80.4a.683.683,0,0,0,.613,0,.227.227,0,0,1,.322.129.118.118,0,0,1,.032.1.271.271,0,0,1-.129.226,1.279,1.279,0,0,1-1.032.032,1.242,1.242,0,0,1-.613-1.612.246.246,0,1,1,.451.193A.708.708,0,0,0,143.262,80.4ZM129.076,31.591l-.709.548a.252.252,0,0,1-.322-.387l.709-.548a.255.255,0,0,1,.355.032.246.246,0,0,1,.064.161A.279.279,0,0,1,129.076,31.591Zm-10.478-4.8c.064-.129.226-.129.355-.064l4.03,2.773a.378.378,0,0,0,.516-.193l1.128-2.386a.426.426,0,0,0-.193-.548.246.246,0,1,1,.193-.451.929.929,0,0,1,.516.838.858.858,0,0,1-.1.387l-1.128,2.386a.917.917,0,0,1-1.225.419.032.032,0,0,1-.032-.032l-4-2.773A.285.285,0,0,1,118.6,26.788Zm-1.354-1.257.742.516a.279.279,0,0,1,.1.193c0,.064,0,.1-.032.129-.064.129-.226.129-.355.064l-.742-.516c-.129-.064-.129-.226-.064-.355A.337.337,0,0,1,117.243,25.53Zm7.222,17.829-4.03,3.772a.251.251,0,0,1-.355-.355l4.03-3.8a.253.253,0,0,1,.355,0c.032.064.064.1.064.161A.2.2,0,0,1,124.465,43.36Zm-3.224,17.507a7.659,7.659,0,0,1-1.806-1.128.366.366,0,0,1-.1-.258l.355-2.063a.265.265,0,0,1,.129-.193c-2.225-2.1-2.1-2.257-1.934-2.45s.29-.355,2.966,1.515l.1-.677h0v-.1a.032.032,0,0,1,.032-.032h0l.645-.806a.293.293,0,0,1,.226-.1l.613.1a.2.2,0,0,1,.193.161l.387.967h0v.1l-.645,3.966A.991.991,0,0,1,121.241,60.866Zm8.576,23.568a.251.251,0,0,1,.193-.29l5.062-1.032a.251.251,0,0,1,.29.193v.064a.281.281,0,0,1-.193.258l-5.062,1.032A.31.31,0,0,1,129.817,84.435Zm.29,1.386a.251.251,0,0,1,.193-.29l5.062-1.032a.251.251,0,0,1,.29.193v.064a.281.281,0,0,1-.193.258L130.4,86.047C130.269,86.047,130.108,85.95,130.108,85.821Zm.258,1.386a.251.251,0,0,1,.193-.29l5.062-1.032a.251.251,0,0,1,.29.193v.064a.281.281,0,0,1-.193.258l-5.062,1.032A.31.31,0,0,1,130.365,87.208Zm.29,1.386a.251.251,0,0,1,.193-.29l5.062-1.032a.251.251,0,0,1,.29.193v.064a.281.281,0,0,1-.193.258l-5.062,1.032A.31.31,0,0,1,130.656,88.594Zm.258,1.193a.251.251,0,0,1,.193-.29l5.062-1.032a.251.251,0,0,1,.29.193v.064a.281.281,0,0,1-.193.258L131.2,90.012A.31.31,0,0,1,130.914,89.787Zm-1.225-6.9,6.964-1.451h0a1.209,1.209,0,0,1,1.419.935l.355,1.709,2.418-.516a1.36,1.36,0,0,1,1.612,1.064.893.893,0,0,1,.032.29,1.255,1.255,0,0,1-.226.742,1.368,1.368,0,0,1-.871.58l-2.418.516.355,1.709a1.244,1.244,0,0,1-.161.9,1.2,1.2,0,0,1-.774.516h0l-.935.161L131.429,91.3a.247.247,0,1,1-.1-.484l6.029-1.257.9-.161h0a.633.633,0,0,0,.419-.29.747.747,0,0,0,.1-.516l-.419-1.967a.409.409,0,0,1,.032-.193.177.177,0,0,1,.161-.1l2.676-.548a.791.791,0,0,0,.548-.355.908.908,0,0,0,.129-.645.867.867,0,0,0-1-.677l-2.676.548a.251.251,0,0,1-.29-.193l-.419-1.967a.691.691,0,0,0-.806-.548h-.064l-.645.129,1.064,5.159V87.3a.281.281,0,0,1-.193.258.251.251,0,0,1-.29-.193l-1.064-5.159-5.8,1.193a.251.251,0,0,1-.29-.193A.392.392,0,0,1,129.688,82.887Zm7.641,5.159.161.774v.064a.281.281,0,0,1-.193.258.251.251,0,0,1-.29-.193l-.161-.774a.251.251,0,0,1,.193-.29A.21.21,0,0,1,137.33,88.046Zm-.193-2.9-.484-2.321.484-.1.484,2.321a.032.032,0,0,0,.032.032.144.144,0,0,0,.161,0l2.708-.548c.129-.032.806-.161,1.128.193.032.064.064.1.064.161a.458.458,0,0,1-.064.193.253.253,0,0,1-.355,0,.932.932,0,0,0-.677-.032l-2.708.548a.613.613,0,0,1-.516-.064A.9.9,0,0,1,137.136,85.144Z" transform="translate(-68.64 -0.339)" fill="url(#linear-gradient-23)"/>
      <path id="Path_66" data-name="Path 66" d="M185,121.119l-3.8-.419h-.032a3.519,3.519,0,0,1-1.548,1.354l-.516,2.708a21.232,21.232,0,0,0,6.094-3.643Z" transform="translate(-117.019 -67.556)" fill="url(#linear-gradient-24)"/>
      <path id="Path_67" data-name="Path 67" d="M150.225,226.3c-.032.193-.032.355-.064.548a5.609,5.609,0,0,1,1.451.193,4.329,4.329,0,0,1,3.031,2.612v.064a.242.242,0,0,1-.161.226.266.266,0,0,1-.322-.161,3.78,3.78,0,0,0-2.676-2.257,4.086,4.086,0,0,0-1.386-.161,27.307,27.307,0,0,1-1.1,5.159,5.655,5.655,0,0,0,1.032.387c2.386.645,4.707-.258,5.191-2a2.234,2.234,0,0,0,.1-.645c0-1.58-1.483-3.16-3.547-3.708A4.334,4.334,0,0,0,150.225,226.3Z" transform="translate(-96.624 -139.109)" fill="url(#linear-gradient-25)"/>
      <path id="Path_68" data-name="Path 68" d="M194.306,76.88a2.845,2.845,0,0,0-.806,2.063,5.116,5.116,0,0,0,1.548,3.482,4.7,4.7,0,0,0,4.514,1.515,20.528,20.528,0,0,0,.677-2.934,4.3,4.3,0,0,0-1.193-2.418,4.25,4.25,0,0,0-1.483-1.032.246.246,0,0,1,.193-.451,5.166,5.166,0,0,1,1.644,1.128,5.316,5.316,0,0,1,1,1.451c.032-.322.064-.677.064-1a5.51,5.51,0,0,0-.677-.838C198.078,76.041,195.628,75.622,194.306,76.88Zm2.773.161v.032a.251.251,0,0,1-.29.193,2.129,2.129,0,0,0-.9,0,.26.26,0,0,1-.064-.516,3.919,3.919,0,0,1,1.064,0A.371.371,0,0,1,197.079,77.041Z" transform="translate(-126.777 -37.373)" fill="url(#linear-gradient-26)"/>
      <path id="Path_69" data-name="Path 69" d="M156.621,206.8c.613.387.774.322.9.1a.458.458,0,0,0,.064-.193c0-.129-.258-.29-.516-.451l-.064-.064L153.3,203.9v.838Z" transform="translate(-99.538 -123.931)" fill="url(#linear-gradient-27)"/>
      <path id="Path_70" data-name="Path 70" d="M136.883,151.738l-1.644-.709a1.248,1.248,0,0,0-.838-.1,10.8,10.8,0,0,1,1.451.871l.645.258a1.634,1.634,0,0,1,.806.806c.032.1.064.226.1.355h0a5.509,5.509,0,0,1,.355.451,1.506,1.506,0,0,0,.1-.548A1.681,1.681,0,0,0,136.883,151.738Z" transform="translate(-86.731 -88.019)" fill="url(#linear-gradient-28)"/>
      <path id="Path_71" data-name="Path 71" d="M137.058,264.255l.1.1.193-.322-.129-.032a.274.274,0,0,1-.161-.1.216.216,0,0,0-.226.129.409.409,0,0,0-.032.193h.064A.213.213,0,0,1,137.058,264.255Z" transform="translate(-88.358 -164.586)" fill="url(#linear-gradient-29)"/>
    </g>
    <g id="BEAUTILOCKS" transform="translate(84.079 240.843)">
      <g id="Group_4" data-name="Group 4" transform="translate(6.4 5.115)">
        <path id="Path_1" data-name="Path 1" d="M97.031,109.332l-.214.049h0l-.117.029.078.322.3-.068v-.331A.043.043,0,0,0,97.031,109.332Z" transform="translate(-87.901 -100.719)" fill="#18191e"/>
        <path id="Path_2" data-name="Path 2" d="M96.739,94.731a1.407,1.407,0,0,0,.068,1.013l.156-.039a.242.242,0,0,1,.078-.01V94.4A.763.763,0,0,0,96.739,94.731Z" transform="translate(-87.872 -87.248)" fill="#18191e"/>
        <path id="Path_3" data-name="Path 3" d="M143.751,62.416a.814.814,0,0,0,.107-.516.763.763,0,0,1-.049.136.956.956,0,0,1-.409.283c.01.166.02.331.02.507A1.389,1.389,0,0,0,143.751,62.416Z" transform="translate(-130.051 -57.915)" fill="#18191e"/>
        <path id="Path_4" data-name="Path 4" d="M96.036,54.392a.841.841,0,0,0-.136.458.824.824,0,0,0,.38.7c.01,0,.019,0,.019.01.019.01.029.019.049.029V54.1A.816.816,0,0,0,96.036,54.392Z" transform="translate(-87.179 -50.875)" fill="#18191e"/>
        <path id="Path_5" data-name="Path 5" d="M77.34,57.385a.5.5,0,0,1,.292-.361,1.32,1.32,0,0,1-.019-.195.925.925,0,0,1,.156-.526,3.972,3.972,0,0,0-1.676.419l.633-.078c.039-.01.078.029.088.068v.01a.083.083,0,0,1-.068.078l-.945.117.516.468a.076.076,0,0,1-.1.117l-.283-.253a3.766,3.766,0,0,0,1.13,1.286,1.013,1.013,0,0,1,.312-.663A.525.525,0,0,1,77.34,57.385Zm-.331-.7c-.01-.039.029-.078.068-.088l.224-.029c.039-.01.078.029.088.068v.01a.083.083,0,0,1-.068.078l-.234.029A.075.075,0,0,1,77.008,56.684Z" transform="translate(-69.038 -52.854)" fill="#18191e"/>
        <path id="Path_6" data-name="Path 6" d="M91.153,71.1a.844.844,0,0,0-.857.819.856.856,0,0,0,.351.721.524.524,0,0,1-.049-.2v-.019a.516.516,0,0,1,.536-.5.752.752,0,0,0,.146-.019v-.76a.489.489,0,0,0-.117-.019C91.172,71.108,91.163,71.108,91.153,71.1Z" transform="translate(-82.12 -66.216)" fill="#18191e"/>
        <path id="Path_7" data-name="Path 7" d="M115.373,21h-.253l-.019.682a2.217,2.217,0,0,1,.253.019Z" transform="translate(-104.508 -21)" fill="#18191e"/>
        <path id="Path_8" data-name="Path 8" d="M92.889,33.039a.078.078,0,1,1,0-.156h.029V32.8l-.468-.01a.308.308,0,0,0-.351.273.276.276,0,0,0,.088.195.374.374,0,0,0,.244.088l.477.01v-.331Zm-.117-.078a.084.084,0,0,1-.078.078l-.214-.01a.078.078,0,1,1,0-.156l.214.01a.077.077,0,0,1,.078.078Z" transform="translate(-83.749 -31.645)" fill="#18191e"/>
        <path id="Path_9" data-name="Path 9" d="M11.716,267.4l-.516.672h.2l.516-.672Z" transform="translate(-10.732 -243.391)" fill="#18191e"/>
        <path id="Path_10" data-name="Path 10" d="M43.8,266.658l.331.692h.146l-.37-.75Z" transform="translate(-40.156 -242.669)" fill="#18191e"/>
        <path id="Path_11" data-name="Path 11" d="M30.43,265.892c-.01,0-.019.01-.029.01a.088.088,0,0,1-.068-.029.088.088,0,0,0,.068.029.043.043,0,0,0,.029-.01.065.065,0,0,0,.039-.068.036.036,0,0,0-.01-.029l-.029-.068-.068.029a.084.084,0,0,0-.039.1L30.2,265.6l-.8.39.127.253a.01.01,0,0,0,.01.01.079.079,0,0,1-.039.088l-.195.1h.536l-.058-.127a.289.289,0,0,1-.019-.1.234.234,0,0,1,.117-.195.21.21,0,0,1,.283.1l.156.312h.565l-.3-.624Z" transform="translate(-27.069 -241.766)" fill="#18191e"/>
        <path id="Path_12" data-name="Path 12" d="M29.958,137.089h0v-.039h0v-.019a.952.952,0,0,0-.058-.731v1.968l.565.526.487-.448-.984-1.247h0l-.01-.01C29.968,137.1,29.968,137.089,29.958,137.089Zm.156.429a.077.077,0,0,1,.107.01l.565.741a.074.074,0,0,1,.019.049.069.069,0,0,1-.029.058.077.077,0,0,1-.107-.01l-.565-.741A.075.075,0,0,1,30.114,137.518Z" transform="translate(-27.61 -125.065)" fill="#18191e"/>
        <path id="Path_13" data-name="Path 13" d="M207.558,236.506H207.5a.073.073,0,0,1-.01-.146l.224-.01c.058-.068.127-.136.175-.2l-.068-.02a.075.075,0,1,1,.029-.146l.136.029a.842.842,0,0,0,.068-.1l-.458-.234a.078.078,0,0,1-.029-.107.065.065,0,0,1,.068-.039.074.074,0,0,1,.039.01l.477.244c.049-.078.1-.146.146-.224a2.783,2.783,0,0,0-.848-.361h-.019c-.068.049-.107.322-.127.487-.01.078-.019.156-.029.214a1.712,1.712,0,0,1-.068.214c-.049.156-.136.419-.1.487,0,.01.01.01.02.01a2.472,2.472,0,0,0,.283.039Z" transform="translate(-187.544 -214.328)" fill="#18191e"/>
        <path id="Path_14" data-name="Path 14" d="M30.056,123.44l.185-.166-.117-.127a.076.076,0,1,1,.107-.107l.117.127.049-.049-.117-.127a.076.076,0,0,1,.107-.107l.117.127.351-.322a.317.317,0,0,0,.107-.244.382.382,0,0,0-.088-.253.35.35,0,0,0-.487-.019l-.487.458v.555A1.188,1.188,0,0,1,30.056,123.44Z" transform="translate(-27.61 -112.235)" fill="#18191e"/>
        <path id="Path_15" data-name="Path 15" d="M165.942,107.752c.175-.049.351-.107.516-.166l.117-.6a.076.076,0,0,1,.088-.058.074.074,0,0,1,.058.078v.019l-.107.516c.029-.01.049-.019.078-.029l.175-.955v-.029h0a.01.01,0,0,1,.01-.01h0l.01-.01h0l.01-.01a.973.973,0,0,0,.585-.789.079.079,0,0,1,.088-.068.075.075,0,0,1,.068.078v.01a1.35,1.35,0,0,1-.088.341l.253.029.02-.166a.079.079,0,0,1,.088-.068.075.075,0,0,1,.068.078v.01l-.019.166.068.01.019-.166a.079.079,0,0,1,.088-.068.075.075,0,0,1,.068.078v.01l-.02.166.468.049a.343.343,0,0,0,.253-.078.35.35,0,0,0,.127-.234.344.344,0,0,0-.078-.253.35.35,0,0,0-.234-.127l-1.2-.127a.073.073,0,0,1-.068-.049.975.975,0,0,0-.828-.682,1,1,0,0,0-.721.2.975.975,0,0,0,.02,1.54.069.069,0,0,1,.029.058h0Zm.935-2.114a.3.3,0,0,1-.117.2.322.322,0,0,1-.224.068.308.308,0,0,1-.273-.341.314.314,0,0,1,.341-.273.308.308,0,0,1,.273.312Zm.107-.546a.07.07,0,0,1,.107.01.78.78,0,0,1,.166.322v.019a.074.074,0,0,1-.058.078.076.076,0,0,1-.088-.058.566.566,0,0,0-.127-.253A.089.089,0,0,1,166.985,105.092Zm-1.043.711a.076.076,0,0,1-.088-.058.765.765,0,0,1,.088-.546.72.72,0,0,1,.916-.273.073.073,0,0,1,.049.068.036.036,0,0,1-.01.029.071.071,0,0,1-.1.039.54.54,0,0,0-.37-.039.634.634,0,0,0-.361.253.552.552,0,0,0-.068.429A.086.086,0,0,1,165.942,105.8Z" transform="translate(-150.03 -96.488)" fill="#18191e"/>
        <path id="Path_16" data-name="Path 16" d="M7.082,267.4a.076.076,0,0,1-.107.01l-.019-.01H6.634l.224.166a.084.084,0,0,1,.029.058c0,.02-.01.029-.019.049a.077.077,0,0,1-.107.01L6.4,267.41v.253l.244.185a.084.084,0,0,1,.029.059c0,.019-.01.029-.019.049a.077.077,0,0,1-.107.01l-.146-.107v.214h.273l.516-.672Z" transform="translate(-6.4 -243.391)" fill="#18191e"/>
        <path id="Path_17" data-name="Path 17" d="M11.954,45.5a.567.567,0,0,1,.448-.663l.721-.166a.494.494,0,0,1,.546.185l.117-.029a.5.5,0,0,1,.409-.409l.721-.166a.583.583,0,0,1,.653.3V43.324l-.322.175a.39.39,0,0,1-.38.039l-.438.234a.076.076,0,0,1-.1-.019l-.224-.292a.089.089,0,0,1,0-.1l.341-.37a.076.076,0,0,1,.058-.088.078.078,0,0,1,.088.049h0l.341.458a.138.138,0,0,0,.058.019.21.21,0,0,0,.166-.049.01.01,0,0,0,.01-.01l.4-.214v-.117l-.195.107a.079.079,0,0,1-.078-.136l.244-.127a.034.034,0,0,0,.019-.01V41.823l-.877.935a.076.076,0,1,1-.107-.107l.984-1.052V39a.3.3,0,0,1-.127-.058l-.01-.01L14.1,37.321a.366.366,0,0,1-.068-.507l.195-.263.088-.088a.077.077,0,0,1,.088.127.117.117,0,0,0-.049.049l-.195.263a.183.183,0,0,0-.039.156.213.213,0,0,0,.078.136l.01.01,1.325,1.608c.01.01.019.01.029.019v-.195a.054.054,0,0,1-.049-.029l-.146-.175a.076.076,0,0,1,.117-.1l.078.1V37.01l-.887-.4a.074.074,0,0,1,.058-.136l.828.37V35.675l-.195.1a.363.363,0,0,1-.487-.175h0l-.117-.263-.8-1.686a.074.074,0,0,1,.136-.058l.8,1.686.117.253h0v.01a.219.219,0,0,0,.283.1l.263-.127v-.468a.071.071,0,0,1-.1-.039.069.069,0,0,1,.039-.1l.068-.029v-.653l-.507-1.072a.074.074,0,0,1,.136-.058l.37.78v-.643l-.117-.253a.074.074,0,1,1,.136-.058l.146.3h.3l-.195-.419a.074.074,0,1,1,.136-.058l.234.487h.253l-.283-.594a.083.083,0,0,1,0-.068h-.614V30.13l-.341.078a.076.076,0,0,1-.088-.058l-.107-.468a.076.076,0,0,1,.058-.088l.107-.029a1.584,1.584,0,0,1-.058-1.111.874.874,0,0,1,.438-.438V26.827a.757.757,0,0,1-.156.019.368.368,0,0,0-.263.1.364.364,0,0,0-.117.253.39.39,0,0,0,.117.283c.049.049.078.078.078.117a.065.065,0,0,1-.039.068c-.039.029-.088.019-.156-.01a1,1,0,0,1-.6-.819c-.682-.253-1.491-1.744-1.53-1.8,0-.01,0-.01-.01-.019h0v-.049h0c0-.01,0-.01.01-.019h0l.01-.01h0l.01-.01c.078-.029,1.6-.8,2.3-.614a1.013,1.013,0,0,1,.351-.253V22.871l-.487-.01a.525.525,0,0,1-.341-.127.411.411,0,0,1-.146-.312A.471.471,0,0,1,15.111,22l.468.01v-.341h1.276L16.875,21H15.706a1.1,1.1,0,0,1-.448.341,1.167,1.167,0,0,1-1.072-.049.077.077,0,1,1,.088-.127,1,1,0,0,0,.916.029.852.852,0,0,0,.3-.195H14.176v.039a.01.01,0,0,1-.01.01h0a.01.01,0,0,1-.01.01h0l-.01.01h-.078a.01.01,0,0,1-.01-.01h0l-.01-.01h0l-.01-.01h0c-.01-.01-.019-.029-.029-.039H13.6a2.841,2.841,0,0,0-.283.224,1.124,1.124,0,0,1-.5.312.737.737,0,0,1-.146-.01.814.814,0,0,0,.516.127,1.038,1.038,0,0,0,.819-.419.079.079,0,0,1,.136.078,1.151,1.151,0,0,1-.935.5.754.754,0,0,1-.78-.361.1.1,0,0,1,.019-.136c.058-.049.127,0,.156.029a.322.322,0,0,0,.224.049c.088,0,.263-.156.4-.273.039-.039.088-.068.127-.107h-2.29l.419.857a.036.036,0,0,1,.01.029v.029c-.01.019-.019.039-.039.039l-.39.185.127.253a.036.036,0,0,1,.01.029.082.082,0,0,1-.039.068l-.935.458a.062.062,0,0,1-.058,0c-.019-.01-.039-.019-.039-.039L9.976,22.6a.074.074,0,1,1,.136-.058l.127.253.8-.39-.127-.253h0a.069.069,0,0,1,.039-.1l.39-.185L10.892,21h-.136l.175.361a.036.036,0,0,1,.01.029.082.082,0,0,1-.039.068.069.069,0,0,1-.1-.039L10.58,21h-.312a.454.454,0,0,1-.068.37l.361.741a.288.288,0,0,1,.019.1.234.234,0,0,1-.117.195.2.2,0,0,1-.166.01.23.23,0,0,1-.127-.107l-.361-.741A.449.449,0,0,1,9.4,21H9.05l.819,1.647a.036.036,0,0,1,.01.029.082.082,0,0,1-.039.068l-.224.107a.062.062,0,0,1-.058,0,.1.1,0,0,1-.049-.039L8.6,21H6.4v.672h.477l-.049-.107a.074.074,0,0,1,.136-.058l.068.166H7.15L7.1,21.546a.62.62,0,0,1-.068-.234.222.222,0,0,1,.146-.2c.253-.107.361.146.409.263l.127.3H8.7v5l.127.2a.059.059,0,0,1,.01.039.074.074,0,0,1-.019.049c-.039.049-.088.1-.127.146v1.413l1.491.156a.545.545,0,0,1,.4.292l.029.058.351.049.019-.136c.01-.078.049-.322.283-.292a.325.325,0,0,1,.283.322v.019l.175.029a.083.083,0,0,1,.068.078v.01a.094.094,0,0,1-.088.068l-.175-.029-.019.136.175.029a.083.083,0,0,1,.068.078v.01a.094.094,0,0,1-.088.068l-.175-.029-.019.136.175.029a.083.083,0,0,1,.068.078v.01a.094.094,0,0,1-.088.068l-.175-.029-.019.136.175.029a.083.083,0,0,1,.068.078v.01a.094.094,0,0,1-.088.068l-.175-.029-.019.136.175.029a.083.083,0,0,1,.068.078v.01a.094.094,0,0,1-.088.068l-.175-.029a.35.35,0,0,1-.127.2.308.308,0,0,1-.244.058c-.244-.039-.2-.283-.195-.361l.019-.156L10.444,30a.072.072,0,0,1-.058-.019.077.077,0,0,1-.01-.107.568.568,0,0,0,.127-.283l.019-.156a.587.587,0,0,0-.078-.38.432.432,0,0,0-.283-.214L8.7,28.669v.117l1.423.156a.075.075,0,0,1,.068.078v.01a.079.079,0,0,1-.088.068l-1.4-.156v.848l1.3.244A.311.311,0,0,0,10.181,30a.074.074,0,0,1,.058.136.534.534,0,0,1-.273.039L8.7,29.945V31.2l.39-.361a.494.494,0,0,1,.7.029.5.5,0,0,1,.136.341v.019a.53.53,0,0,1-.156.351l-.409.37h0L9.2,32.1h0l-.283.253-.01.01a1.225,1.225,0,0,1,.049.322,1.072,1.072,0,0,1-.039.3l.994,1.267a.074.074,0,0,1,.019.049.084.084,0,0,1-.029.058l-.585.536a.076.076,0,0,1-.107,0l-.516-.477v1.666h0a.076.076,0,0,1,.039-.039.062.062,0,0,1,.058,0l.331.146a.073.073,0,0,1,.049.068.036.036,0,0,1-.01.029.071.071,0,0,1-.1.039L8.8,36.211l-.107.244v.682h0a.073.073,0,0,1,.049.068v.01h0c0,.01,0,.01-.01.019h0l-.039.088v.361l2.27,1.023.049-.117L9.167,37.76a.074.074,0,1,1,.058-.136l1.842.828.058-.136h0a.073.073,0,0,1,.068-.049.036.036,0,0,1,.029.01h0l.263.117.361-.809-.263-.117a.01.01,0,0,1-.01-.01.076.076,0,0,1-.029-.1l.175-.39L9.343,35.908,9.3,36l1.764.8a.074.074,0,0,1-.058.136L9.167,36.1a.076.076,0,0,1-.039-.039.062.062,0,0,1,0-.058l.107-.234a.071.071,0,0,1,.1-.039l2.543,1.15a.073.073,0,0,1,.049.068.036.036,0,0,1-.01.029l-.175.39.263.117a.073.073,0,0,1,.049.068.036.036,0,0,1-.01.029l-.429.945a.071.071,0,0,1-.1.039l-.263-.117-.175.39a.071.071,0,0,1-.1.039L8.7,37.867v1.384l.019-.068a.076.076,0,0,1,.088-.058.074.074,0,0,1,.058.078v.019L8.7,39.9v.458l.253-1.023c.029-.117.058-.234.146-.283a.232.232,0,0,1,.185-.019.248.248,0,0,1,.2.253,1.169,1.169,0,0,1-.029.195L9.1,40.966c-.029.127-.1.39-.361.322-.01,0-.019-.01-.029-.01v2.3l.107-.146.117.1-.234.3v1.189H7.784l-.516.672H8.29c.01,0,.01-.01.019-.01L8.7,45.5l-.127-.253a.069.069,0,0,1,.039-.1l.935-.458a.062.062,0,0,1,.058,0c.019.01.039.019.039.039l.127.253.136-.068h0l.244-.117a.069.069,0,0,1,.1.039l.429.877h1.335l-.068-.175C11.954,45.506,11.954,45.506,11.954,45.5Zm2.67-8.039L14.9,37.1a.076.076,0,1,1,.117.1l-.234.312.536.643a.074.074,0,0,1,.019.049.084.084,0,0,1-.029.058.077.077,0,0,1-.107-.01l-.575-.692A.089.089,0,0,1,14.624,37.458Zm-3.469-.536a.071.071,0,0,1,.1-.039l.166.078a.073.073,0,0,1,.049.068.036.036,0,0,1-.01.029.071.071,0,0,1-.1.039l-.166-.078A.074.074,0,0,1,11.155,36.922Zm-.8-.058a.456.456,0,0,1,.263.38l.76.341a.213.213,0,0,1,.127.195.285.285,0,0,1-.019.088.211.211,0,0,1-.117.107.2.2,0,0,1-.166-.01l-.76-.341a.452.452,0,0,1-.721-.331l-.76-.341a.213.213,0,0,1-.127-.195.284.284,0,0,1,.019-.088.214.214,0,0,1,.283-.107l.76.341A.476.476,0,0,1,10.356,36.863Zm3.917-.546c0,.01.01.019.01.029s-.01.029-.019.049l-.39.5a.084.084,0,0,1-.058.029,3.964,3.964,0,0,1,.224.828c0,.078-.029.088-.058.1-.068.029-.127.049-.575-.828l-.127.166h0l-.01.01h0a.01.01,0,0,0-.01.01h0l-.292.117a.076.076,0,0,1-.078-.01l-.156-.117a.088.088,0,0,1-.029-.068l.039-.312h0V36.8a.01.01,0,0,1,.01-.01h0l.741-.965a.351.351,0,0,1,.224-.127.314.314,0,0,1,.244.068A2.347,2.347,0,0,1,14.273,36.318Zm.068-2.826a.074.074,0,0,1,.136-.058l.672,1.413a.036.036,0,0,1,.01.029.082.082,0,0,1-.039.068.069.069,0,0,1-.1-.039Zm1,1.656-.214.1a.074.074,0,1,1-.058-.136l.214-.1a.069.069,0,0,1,.1.039.036.036,0,0,1,.01.029A.113.113,0,0,1,15.345,35.148Zm.136-.477a.036.036,0,0,1,.01.029.082.082,0,0,1-.039.068.069.069,0,0,1-.1-.039l-.672-1.413a.074.074,0,0,1,.136-.058ZM14.8,30.608c.019.049.029.088.049.136v.019a.071.071,0,0,1-.058.068.08.08,0,0,1-.1-.049c-.01-.019-.01-.039-.019-.049l-.107.039a1.809,1.809,0,0,1,.1.594,1.151,1.151,0,0,1-.672,1.15,1.031,1.031,0,0,1-.926-.127,1.724,1.724,0,0,1-.653-.8l-.107.039c.01.01.01.029.019.039a.074.074,0,0,1-.136.058c-.019-.039-.029-.078-.049-.117a2.073,2.073,0,0,1-.068-1.345,1.313,1.313,0,0,1,.692-.809l-.058-.146-.2.078a.062.062,0,0,1-.058,0l-.292-.117a.072.072,0,0,1,0-.136l.994-.37a.073.073,0,0,1,.1.049c0,.01.01.019.01.029a.073.073,0,0,1-.049.068l-.809.3.088.039.253-.1h0l.283-.107a.077.077,0,0,1,.049.146l-.2.078.058.146A1.615,1.615,0,0,1,14.8,30.608Zm-4.4-6.821,1.842-.935a.568.568,0,0,1,.555.058l.322-.146-.058-.127A.547.547,0,0,1,13,22.423a.2.2,0,0,1,.136-.185.327.327,0,0,1,.419.136l.166-.078a.069.069,0,0,1,.1.039c0,.01.01.019.01.029a.073.073,0,0,1-.049.068l-.166.078.058.127.166-.078a.069.069,0,0,1,.1.039c0,.01.01.019.01.029a.073.073,0,0,1-.049.068l-.166.078.058.127.166-.078a.069.069,0,0,1,.1.039c0,.01.01.019.01.029a.073.073,0,0,1-.049.068l-.146.068.058.127.166-.078a.069.069,0,0,1,.1.039c0,.01.01.019.01.029a.073.073,0,0,1-.049.068l-.166.078.058.127.166-.078a.069.069,0,0,1,.1.039c0,.01.01.019.01.029a.073.073,0,0,1-.049.068l-.166.078a.267.267,0,0,1,.019.127.489.489,0,0,1-.019.117.326.326,0,0,1-.175.185c-.224.1-.322-.127-.361-.195l-.068-.136-.341.156a.139.139,0,0,1-.058.019.079.079,0,0,1-.068-.088.524.524,0,0,0-.049-.3l-.068-.136a.53.53,0,0,0-.633-.3l-1.812.926a.449.449,0,0,0-.224.594l.068.136a.429.429,0,0,0,.253.234.458.458,0,0,0,.341-.01l1.92-.78a.364.364,0,0,0,.146-.127.077.077,0,1,1,.127.088.612.612,0,0,1-.2.185l-1.92.78a.621.621,0,0,1-.458.019.6.6,0,0,1-.341-.312L10.1,24.6A.611.611,0,0,1,10.4,23.787Zm2.046-.6a.082.082,0,0,1-.039.068L10.912,24a.081.081,0,1,1-.068-.146l1.491-.75a.082.082,0,0,1,.107.039C12.432,23.163,12.441,23.173,12.441,23.183Zm-1.686.857a.082.082,0,0,1-.039.068l-.175.088a.074.074,0,0,1-.058-.136l.175-.088a.069.069,0,0,1,.1.039Zm.984,3.576c-.039-.019-.039-.068-.019-.107s.068-.039.107-.019a3.631,3.631,0,0,0,1.1.546h.019c.068-.049.107-.322.127-.487.01-.078.019-.156.029-.214a1.717,1.717,0,0,1,.068-.214c.049-.156.136-.409.1-.487,0-.01-.01-.01-.019-.01a3.531,3.531,0,0,0-1.423.039.35.35,0,0,1,.019.107.215.215,0,0,1-.01.078h0l1.052-.019h0a.077.077,0,0,1,.078.078h0a.077.077,0,0,1-.078.078L11.944,27l.585.136a.074.074,0,0,1,.058.078v.019a.076.076,0,0,1-.088.058l-.721-.166h0l.5.244a.065.065,0,0,1,.039.068.036.036,0,0,1-.01.029.084.084,0,0,1-.1.039l-.468-.234a.344.344,0,0,1-.156.175.458.458,0,0,1-.283.029.411.411,0,0,1-.2-.107,4.418,4.418,0,0,1-1.54.049.155.155,0,0,1-.117-.088c-.078-.136.01-.39.088-.614a1.325,1.325,0,0,0,.058-.195c.01-.049.019-.127.029-.2.029-.234.058-.5.195-.594a.183.183,0,0,1,.146-.029,3.562,3.562,0,0,1,1.364.721.471.471,0,0,1,.234-.01.411.411,0,0,1,.2.107,3.563,3.563,0,0,1,1.54-.058.155.155,0,0,1,.117.088.311.311,0,0,1,.029.136,1.619,1.619,0,0,1-.117.477,1.325,1.325,0,0,0-.058.195c-.01.049-.019.127-.029.2-.029.234-.068.5-.195.594a.183.183,0,0,1-.146.029A3.784,3.784,0,0,1,11.74,27.616Zm.887-.38a.076.076,0,0,1,.088-.058l.224.049A.074.074,0,0,1,13,27.3v.019a.076.076,0,0,1-.088.058l-.224-.049A.093.093,0,0,1,12.626,27.236ZM11,35.636c-.01,0-.01,0-.019.01h-.049c-.01,0-.01-.01-.019-.01h0l-.01-.01h0l-.01-.01a4.9,4.9,0,0,1-.477-2.309,1,1,0,0,1-.292-.711,1.041,1.041,0,0,1,.029-.244c.01-.049.039-.136.117-.136s.1.1.107.156a.4.4,0,0,0,.146.244.374.374,0,0,0,.516-.088.568.568,0,0,1,.78-.127.541.541,0,0,1,.224.39c.01-.01.019-.01.019-.019a.524.524,0,0,1,.409-.117.559.559,0,0,1,.5.614.372.372,0,0,0,.322.409.36.36,0,0,0,.292-.1c.039-.039.1-.088.156-.058a.087.087,0,0,1,.049.078.3.3,0,0,1-.029.107,1.015,1.015,0,0,1-.857.555C12.6,34.885,11.058,35.606,11,35.636Zm.448,4a.616.616,0,0,1,.867-.039.678.678,0,0,1,.166.244l.39.039a.069.069,0,0,1,.068.078.075.075,0,0,1-.078.068l-.448-.039a.084.084,0,0,1-.068-.058.415.415,0,0,0-.136-.224.462.462,0,1,0,.029.653.39.39,0,0,0,.1-.175.1.1,0,0,1,.039-.049.062.062,0,0,1,.058,0l.487.029a.1.1,0,0,1,.068.039l.731,1.559a.681.681,0,0,0,.429.292l-.906-1.725a.074.074,0,0,1,.01-.088.093.093,0,0,1,.088-.019l1.812.76a.385.385,0,0,0-.322-.361h-.01l-1.6-.653c-.029-.01-.039-.029-.049-.058l-.068-.487a.062.062,0,0,1,0-.058c.01-.019.019-.039.039-.039a.64.64,0,0,0,.166-.117.462.462,0,1,0-.653.029.531.531,0,0,0,.234.117.075.075,0,0,1-.029.146.561.561,0,0,1-.312-.156.614.614,0,1,1,.867-.039.536.536,0,0,1-.166.127l.058.4,1.559.633a.537.537,0,0,1,.429.526c0,.039-.01.078-.01.117a.1.1,0,0,1-.039.049.082.082,0,0,1-.068,0l-1.705-.711.857,1.647a.083.083,0,0,1,0,.068.065.065,0,0,1-.049.039c-.4.1-.682-.331-.692-.351v-.01l-.711-1.52-.409-.029a1.7,1.7,0,0,1-.107.175.616.616,0,0,1-.867.039A.607.607,0,0,1,11.447,39.64Zm1.656-.9a.227.227,0,0,0-.175-.058.079.079,0,1,1-.019-.156.358.358,0,0,1,.3.1.364.364,0,0,1,.117.253V38.9a.41.41,0,0,1-.1.253.076.076,0,0,1-.107-.107.221.221,0,0,0,.058-.156A.268.268,0,0,0,13.1,38.744Zm-1.51,6.392a.072.072,0,0,1-.058-.019l-1.384-1.062a1.041,1.041,0,0,1-.39-.672.961.961,0,0,1,.127-.633l-.175-.136c-.01,0-.019.01-.039.01a.314.314,0,0,1-.224-.058l-.331-.253a.054.054,0,0,1-.029-.049.072.072,0,0,1,.019-.058l.292-.38a.077.077,0,0,1,.107-.01l.088.068a1.588,1.588,0,0,1,.828-.75.867.867,0,0,1,.7.107.538.538,0,0,1,.721-.049.545.545,0,0,1,.214.429.529.529,0,0,1-.117.331.545.545,0,0,1-.974-.331.472.472,0,0,1,.068-.253.742.742,0,0,0-.565-.088,1.434,1.434,0,0,0-.741.692l.127.1a.291.291,0,0,1,.117.234l.224.175h0l.01.01a.089.089,0,0,1,0,.1c-.01.019-.029.029-.039.049l-.068.088a.89.89,0,0,0-.175.643.833.833,0,0,0,.331.575l1.325,1.013L12.7,43.489l-1.325-1.013a.853.853,0,0,0-.965-.058.079.079,0,0,1-.078-.136,1.016,1.016,0,0,1,1.14.068l1.374,1.062a.054.054,0,0,1,.029.049v.01c0,.019-.01.029-.019.049l-1.218,1.588A.054.054,0,0,1,11.594,45.136ZM10.5,43.772l.565.429a.084.084,0,0,1,.029.058c0,.019-.01.029-.019.049a.077.077,0,0,1-.107.01l-.565-.429a.861.861,0,0,1-.185-1.2.076.076,0,0,1,.117.1A.708.708,0,0,0,10.5,43.772Zm.526.175a.054.054,0,0,1-.049.029.072.072,0,0,1-.058-.019l-.438-.331a.077.077,0,0,1-.01-.107l.585-.76a.054.054,0,0,1,.049-.029.072.072,0,0,1,.058.019l.438.331a.084.084,0,0,1,.029.058c0,.019-.01.029-.019.049Zm.526.672c0,.019-.01.029-.019.049a.077.077,0,0,1-.107.01l-.263-.195a.076.076,0,0,1,.1-.117l.263.195A.084.084,0,0,1,11.555,44.62Z" transform="translate(-6.4 -21)" fill="#18191e"/>
        <path id="Path_18" data-name="Path 18" d="M97.954,266.185c-.02-.01-.039-.029-.068-.049l-.01-.01a.266.266,0,0,1-.088-.117.756.756,0,0,1-.127-.01,4.249,4.249,0,0,1-1.091.127h-1.6v.01a.586.586,0,0,1-.448.6l-.224.049h1.92l.01-.4a.084.084,0,0,1,.078-.078h.146a.245.245,0,0,1,.195.088.623.623,0,0,1,.117.38c.614-.01,1.2-.039,1.764-.078a3.3,3.3,0,0,1-.361-.468A.293.293,0,0,1,97.954,266.185Z" transform="translate(-85.735 -242.127)" fill="#18191e"/>
        <path id="Path_19" data-name="Path 19" d="M66.81,262.137l-.019-.019a.076.076,0,0,1,.107-.107l.019.02c.127.136.273.3.37.283l.6-.136a.456.456,0,0,0,.331-.5L68.2,261.4a.416.416,0,0,0-.507-.292l-.721.166a.343.343,0,0,0-.3.322.084.084,0,0,1-.058.068l-.224.049a.085.085,0,0,1-.088-.039.34.34,0,0,0-.409-.166l-.721.166a.421.421,0,0,0-.331.477l.088.224h.136a1.27,1.27,0,0,1-.1-.244c-.049-.195.136-.312.244-.351a.08.08,0,0,1,.1.049v.029a.073.073,0,0,1-.049.068s-.166.058-.146.166a1.545,1.545,0,0,0,.117.283h.984a1.935,1.935,0,0,0,.127-.536.084.084,0,0,1,.058-.068l.214-.049a.075.075,0,1,1,.029.146l-.166.039a2.694,2.694,0,0,1-.107.468h.672A2.627,2.627,0,0,1,66.81,262.137Z" transform="translate(-59.141 -237.698)" fill="#18191e"/>
        <path id="Path_20" data-name="Path 20" d="M138.668,261.907l.546.127a.074.074,0,0,1,.058.078v.019a.076.076,0,0,1-.088.058l-.585-.136.643.38a.082.082,0,0,1,.039.068.059.059,0,0,1-.01.039.078.078,0,0,1-.107.029l-.516-.3.624.614c.146-.02.292-.029.438-.049a.01.01,0,0,1,.01-.01c.029-.049.078-.117.127-.185.1-.136.253-.351.234-.438,0-.01,0-.01-.01-.019a3.936,3.936,0,0,0-1.364-.38v.01C138.7,261.829,138.688,261.868,138.668,261.907Zm.653.234a.076.076,0,0,1,.088-.058l.253.058a.074.074,0,0,1,.058.078v.019a.076.076,0,0,1-.088.059l-.253-.059A.093.093,0,0,1,139.321,262.141Z" transform="translate(-125.718 -238.336)" fill="#18191e"/>
        <path id="Path_21" data-name="Path 21" d="M132.717,262.073l-.117.195a.29.29,0,0,0,.175.039.161.161,0,0,0,.127-.1l.195-.331a.67.67,0,0,0,.029-.078,2.683,2.683,0,0,1-.4.234A.074.074,0,0,0,132.717,262.073Z" transform="translate(-120.303 -238.336)" fill="#18191e"/>
        <path id="Path_22" data-name="Path 22" d="M135.836,266.7h0a.364.364,0,0,1-.136.136,3.93,3.93,0,0,0,.4.5l.361-.029Z" transform="translate(-123.101 -242.759)" fill="#18191e"/>
        <path id="Path_23" data-name="Path 23" d="M113.468,45.548a.323.323,0,0,1-.234,0l-.39-.156a.076.076,0,0,1-.039-.039.062.062,0,0,1,0-.058l.185-.448a.071.071,0,0,1,.1-.039l.1.039a1.592,1.592,0,0,1,.594-.945.867.867,0,0,1,.7-.088.545.545,0,0,1,1.023.263.509.509,0,0,1-.039.2.546.546,0,0,1-1.052-.2.473.473,0,0,1,.01-.117.737.737,0,0,0-.565.068,1.437,1.437,0,0,0-.526.867l.146.058a.291.291,0,0,1,.175.195l.263.107h.01a.01.01,0,0,1,.01.01.088.088,0,0,1,.029.1l-.029.058-.039.107c0,.01-.01.019-.01.029l.107-.029c.01-.019.019-.049.029-.068a.071.071,0,0,1,.1-.039.073.073,0,0,1,.049.068c.234-.058.458-.127.682-.195l.029-.029a.043.043,0,0,1,.049,0c.166-.058.331-.117.487-.175l-.361-.146a.855.855,0,0,0-.945.2.076.076,0,0,1-.107-.107,1.009,1.009,0,0,1,1.111-.234l.507.2c.312-.127.614-.263.9-.409a5.758,5.758,0,0,0,1.013-.682c-.058-.01-.107-.019-.156-.029a.155.155,0,0,1-.117-.088c-.078-.136.01-.39.088-.614a1.324,1.324,0,0,0,.058-.195c.01-.049.019-.127.029-.2.029-.234.058-.5.195-.594a.183.183,0,0,1,.146-.029,3.2,3.2,0,0,1,.887.38,6.728,6.728,0,0,0,.76-3.323,7.617,7.617,0,0,0-.058-.955.647.647,0,0,1-.429-.029.618.618,0,0,1-.234-.185l-.39.088a.075.075,0,0,1-.029-.146l.438-.1a.074.074,0,0,1,.078.029.481.481,0,0,0,.195.175.458.458,0,0,0,.341.019,5.245,5.245,0,0,0-.224-.9.46.46,0,0,0-.351.263.436.436,0,0,0-.039.195.139.139,0,0,1-.019.058.074.074,0,0,1-.049.019l-.477.127a.076.076,0,0,1-.078-.019l-1.179-1.257a.677.677,0,0,0-.5-.146l1.4,1.364a.093.093,0,0,1,.019.088.077.077,0,0,1-.078.049l-1.959-.156a.385.385,0,0,0,.419.244h.01l1.725.117a.066.066,0,0,1,.058.039l.224.438a.1.1,0,0,1,.02.058.054.054,0,0,1-.029.049.6.6,0,0,0-.117.156.465.465,0,1,0,.614-.234.484.484,0,0,0-.263-.039.079.079,0,1,1-.019-.156.631.631,0,0,1,.351.049.619.619,0,1,1-.819.312.51.51,0,0,1,.117-.166l-.185-.361-1.676-.117a.531.531,0,0,1-.594-.477.1.1,0,0,1,.019-.058.072.072,0,0,1,.058-.019l1.851.146-1.325-1.3c-.019-.019-.029-.039-.019-.058a.08.08,0,0,1,.039-.058c.351-.214.75.107.77.117a.01.01,0,0,1,.01.01l1.15,1.228.39-.107a.6.6,0,0,1,.487-.546,5.018,5.018,0,0,0-1.705-2.261l-2.231,1.315a.124.124,0,0,1-.058.01.1.1,0,0,1-.049-.039l-.214-.37-.263.136a.078.078,0,0,1-.107-.029l-.526-.9a.078.078,0,0,1,.029-.107l.312-.185a.079.079,0,1,1,.078.136l-.244.146.448.76.244-.146h0a.078.078,0,0,1,.107.029l.214.37,2.1-1.237c-.039-.029-.078-.049-.117-.078l-1.53.9a.079.079,0,0,1-.078-.136l1.462-.857q-.234-.146-.5-.292l-.273.166a.425.425,0,0,1-.224.4.453.453,0,0,1-.458,0l-.711.419a.2.2,0,0,1-.166.019.184.184,0,0,1-.127-.1.2.2,0,0,1-.029-.107.209.209,0,0,1,.107-.185l.711-.419a.442.442,0,0,1,.224-.4.453.453,0,0,1,.458,0l.039-.019c-.166-.078-.331-.146-.507-.214l-1.286.76a.124.124,0,0,1-.058.01.1.1,0,0,1-.049-.039l-.127-.214a.078.078,0,0,1,.029-.107l.994-.585a13.877,13.877,0,0,0-2.631-.555v-.068a10.435,10.435,0,0,0,1.228-.263l.029-1.315a1.134,1.134,0,0,1,.01-1.764,1.132,1.132,0,0,1,1.773.5l1.15.117a.444.444,0,0,1,.331.185.5.5,0,0,1,.107.312v.01a4.75,4.75,0,0,0,.848-1.462,1.593,1.593,0,0,1-1.364-.468l-.088.078.029.029a.076.076,0,0,1-.107.107l-.088-.088a1.647,1.647,0,0,1-.283-2.222l-.107-.117-.156.156a.074.074,0,0,1-.049.019l-.322.01a.073.073,0,0,1-.068-.049.078.078,0,0,1,.019-.088l.76-.741a.076.076,0,0,1,.107,0c.01.019.019.029.019.049a.138.138,0,0,1-.019.058l-.624.6h.088l.409-.39a.076.076,0,0,1,.107.107l-.156.156.107.117a1.617,1.617,0,0,1,2.114.253,7.106,7.106,0,0,0-.078-.809,1.306,1.306,0,0,1-.175-.273,1.067,1.067,0,0,1-.068-.672,4.293,4.293,0,0,0-1.8-2.222c-.01.01-.01.029-.019.039a.254.254,0,0,1-.156.146.27.27,0,0,1-.088.01.577.577,0,0,1,.068.283.54.54,0,0,1-.068.273l-.244.487a.608.608,0,0,1-.653.331l-.068,1.238a.073.073,0,0,1-.146-.01l.078-1.237h-.01l-.39-.195a.683.683,0,0,1-.185-.146l-1.14.536a2.247,2.247,0,0,0,.117.429l.487-.361a.071.071,0,0,1,.107.019.074.074,0,0,1,.019.049.069.069,0,0,1-.029.058l-.516.39a1.369,1.369,0,0,0,.516.594,1.637,1.637,0,0,0,1.491-.088l-.127-.945a.079.079,0,1,1,.156-.019l.136,1v.01a.073.073,0,0,1-.049.068,1.822,1.822,0,0,1-1.676.107,1.9,1.9,0,0,1-.78-1.335.089.089,0,0,1,.039-.078l1.169-.546a.61.61,0,0,1-.058-.263.54.54,0,0,1,.068-.273l.244-.487a.618.618,0,0,1,.76-.3c.01,0,.01,0,.019.01l.458.234c.107.049.2.1.253.078.01,0,.039-.01.068-.068a.164.164,0,0,0,.019-.049,1.248,1.248,0,0,0-.195-.107,6.166,6.166,0,0,0-.809-.37.074.074,0,0,0-.019.039.081.081,0,0,1-.146-.068c0-.01.01-.019.019-.029a17.9,17.9,0,0,0-5.924-.887l-.019.711a3.161,3.161,0,0,1,.809.214l-.136-.1a.088.088,0,0,1-.029-.1l.156-.331a.085.085,0,0,1,.088-.039l.477.136a.079.079,0,0,1,.107.019.074.074,0,0,1-.01.1h0l-.234.5c0,.019.01.039.01.058a2.557,2.557,0,0,1,.244.214l2.056,1.423a.229.229,0,0,0,.292-.107l.507-1.062a.224.224,0,0,0-.1-.292l-2.533-.741a.077.077,0,0,1,.049-.146l2.533.75h.01a.374.374,0,0,1,.214.341.286.286,0,0,1-.039.156l-.507,1.013a.374.374,0,0,1-.5.175.01.01,0,0,1-.01-.01L110.6,23.215a6.063,6.063,0,0,1,.565,2.456.634.634,0,0,0,.283-.185.364.364,0,0,0,.049-.234c-.01-.029-.029-.117.039-.146a.117.117,0,0,1,.136.039.567.567,0,0,1,.136.38,1.088,1.088,0,0,1-.136.487,1.312,1.312,0,0,1-.468.507v1.929c0,.185,0,.37-.01.546l1.306-1.237a.577.577,0,0,1,.477-.117.181.181,0,0,1,.068.019l.263-.234-.088-.107a.445.445,0,0,1-.117-.185.23.23,0,0,1,.078-.224.318.318,0,0,1,.438.01l.136-.117a.07.07,0,0,1,.107.01.074.074,0,0,1,.019.049.084.084,0,0,1-.029.058l-.136.117.088.107.136-.117a.07.07,0,0,1,.107.01.074.074,0,0,1,.019.049.084.084,0,0,1-.029.058l-.136.117.088.107.136-.117a.07.07,0,0,1,.107.01.074.074,0,0,1,.019.049.084.084,0,0,1-.029.058l-.136.117.088.107.136-.117a.069.069,0,0,1,.107.01.074.074,0,0,1,.02.049.084.084,0,0,1-.029.058l-.136.117.088.107.136-.117a.07.07,0,0,1,.107.01.074.074,0,0,1,.019.049.084.084,0,0,1-.029.058l-.136.117a.306.306,0,0,1,.068.2v.019a.374.374,0,0,1-.107.224c-.185.156-.341-.029-.4-.088l-.1-.117-.283.253a.054.054,0,0,1-.049.029.076.076,0,0,1-.088-.058.681.681,0,0,0-.127-.283l-.1-.117a.563.563,0,0,0-.351-.185.426.426,0,0,0-.351.078l-1.432,1.364c0,.058-.01.127-.01.185h0l.136-.127a.076.076,0,0,1,.107,0c.01.019.019.029.019.049a.084.084,0,0,1-.029.058l-.136.127a.076.076,0,0,1-.107,0l-.01-.01c-.01.156-.029.3-.049.448l.068.078a.46.46,0,0,0,.312.156.469.469,0,0,0,.331-.107l1.618-1.3a.315.315,0,0,0,.1-.166.077.077,0,1,1,.146.049.482.482,0,0,1-.146.234l-1.618,1.3a.587.587,0,0,1-.438.146.614.614,0,0,1-.4-.185,4.49,4.49,0,0,1-.594,1.705c-.01.01-.019.019-.019.029l.458.195a.357.357,0,0,1,.292.361v.058l-.049.322a.55.55,0,0,1-.039.117.079.079,0,1,1-.136-.078.141.141,0,0,0,.019-.068l.049-.322a.211.211,0,0,0-.175-.244h-.02l-.507-.2c-.019.029-.049.058-.068.088l.058.019a.073.073,0,0,1,.049.068v.01l-.068.448a.075.075,0,1,1-.146-.029l.058-.39-.058-.019a2.777,2.777,0,0,1-1.686.721.173.173,0,0,0,.039.1.232.232,0,0,0,.127.088l2.076-.146a.073.073,0,0,1,.01.146l-2.085.146h-.019a.369.369,0,0,1-.3-.322c-.136.01-.283.019-.429.019H107.7v.01l.312.663a6.241,6.241,0,0,1,1.423.175c.019-.01.029-.019.049-.019a.438.438,0,0,1,.351.01.24.24,0,0,1,.166.195c.01.01.029.01.039.019a.139.139,0,0,1,.058-.019.6.6,0,0,1,.468.01l.5.214a.619.619,0,0,1,.37.565.215.215,0,0,1-.01.078l1.2.01A.084.084,0,0,1,112.7,35h0a.084.084,0,0,1-.078.078l-1.247-.01v.01l-.029.078a4.018,4.018,0,0,1,.429.9c.02,0,.029.01.039.029l.409.5a1.322,1.322,0,0,0,.565-.546,1.636,1.636,0,0,0-.166-1.481l-.935.175a.075.075,0,0,1-.029-.146l.994-.185a.066.066,0,0,1,.078.039,2.433,2.433,0,0,1,.322,1.1,1.205,1.205,0,0,1-.127.565,1.669,1.669,0,0,1-.955.76,8.971,8.971,0,0,1,.117,1.51v.487l.624.39.253-.4h0a.054.054,0,0,1,.049-.029h.01c.019,0,.029,0,.039.01a.2.2,0,0,0,.127.019.151.151,0,0,0,.107-.078l1.15-1.842a.165.165,0,0,0-.058-.234.2.2,0,0,0-.127-.019.151.151,0,0,0-.107.078L113,38.591a.079.079,0,0,1-.136-.078l1.15-1.842a.313.313,0,0,1,.2-.146.3.3,0,0,1,.244.039.323.323,0,0,1,.156.273.4.4,0,0,1-.049.175l-1.15,1.842a.313.313,0,0,1-.2.146.358.358,0,0,1-.175-.01l-.214.341.682.429a.082.082,0,0,1,.039.068.059.059,0,0,1-.01.039.078.078,0,0,1-.107.029l-1.364-.848v.127l1.218.76c.117.078.234.146.234.273a.244.244,0,0,1-.039.136c-.146.234-.37.088-.487.019l-.926-.575v.468c0,.292-.01.585-.019.857a2.169,2.169,0,0,1,.546.078c.049.01.088.029.136.039a.073.073,0,0,1,.049.068v.019a.08.08,0,0,1-.1.049c-.019-.01-.039-.01-.049-.019l-.029.117a1.462,1.462,0,0,1,1.111,1.247.96.96,0,0,1-.029.234,1.344,1.344,0,0,1-1.686.731l-.029.117c.01,0,.029.01.039.01a.075.075,0,1,1-.029.146c-.039-.01-.078-.019-.127-.029a2.257,2.257,0,0,1-.361-.127c-.058.136-.127.273-.195.4a2.451,2.451,0,0,1-.507.624,4.251,4.251,0,0,1,1.374.4.174.174,0,0,1,.088.117v.039a1.161,1.161,0,0,1-.273.516.541.541,0,0,1-.058.078c.594-.078,1.15-.175,1.676-.292l-.185-.078C113.488,45.539,113.478,45.548,113.468,45.548Zm4.979-6.246a.206.206,0,0,0,.185,0,.069.069,0,0,1,.1.039.036.036,0,0,1,.01.029.082.082,0,0,1-.039.068.387.387,0,0,1-.312.01.375.375,0,0,1-.185-.487.074.074,0,1,1,.136.058A.214.214,0,0,0,118.448,39.3ZM114.16,24.55l-.214.166a.076.076,0,1,1-.1-.117l.214-.166a.077.077,0,0,1,.107.01.074.074,0,0,1,.019.049A.084.084,0,0,1,114.16,24.55ZM110.993,23.1c.019-.039.068-.039.107-.019l1.218.838a.114.114,0,0,0,.156-.058l.341-.721a.129.129,0,0,0-.058-.166.074.074,0,0,1,.058-.136.281.281,0,0,1,.156.253.26.26,0,0,1-.029.117l-.341.721a.277.277,0,0,1-.37.127.01.01,0,0,1-.01-.01l-1.208-.838A.086.086,0,0,1,110.993,23.1Zm-.409-.38.224.156a.084.084,0,0,1,.029.058c0,.019,0,.029-.01.039-.019.039-.068.039-.107.019l-.224-.156c-.039-.019-.039-.068-.019-.107A.1.1,0,0,1,110.584,22.718Zm2.183,5.388-1.218,1.14a.076.076,0,0,1-.107-.107l1.218-1.15a.076.076,0,0,1,.107,0c.01.019.02.029.02.049A.06.06,0,0,1,112.767,28.106Zm-.974,5.291a2.314,2.314,0,0,1-.546-.341.111.111,0,0,1-.029-.078l.107-.624a.08.08,0,0,1,.039-.058c-.672-.633-.633-.682-.585-.741s.088-.107.9.458l.029-.2h0V31.78a.01.01,0,0,1,.01-.01h0l.195-.244a.088.088,0,0,1,.068-.029l.185.029a.062.062,0,0,1,.058.049l.117.292h0V31.9l-.195,1.2A.3.3,0,0,1,111.792,33.4Zm2.592,7.123a.076.076,0,0,1,.058-.088l1.53-.312a.076.076,0,0,1,.088.058V40.2a.085.085,0,0,1-.058.078l-1.53.312A.094.094,0,0,1,114.384,40.52Zm.088.419a.076.076,0,0,1,.058-.088l1.53-.312a.076.076,0,0,1,.088.058v.019a.085.085,0,0,1-.058.078l-1.53.312C114.521,41.008,114.472,40.978,114.472,40.939Zm.078.419a.076.076,0,0,1,.058-.088l1.53-.312a.076.076,0,0,1,.088.058v.019a.085.085,0,0,1-.058.078l-1.53.312A.094.094,0,0,1,114.55,41.358Zm.088.419a.076.076,0,0,1,.058-.088l1.53-.312a.076.076,0,0,1,.088.058v.019a.085.085,0,0,1-.058.078l-1.53.312A.094.094,0,0,1,114.638,41.777Zm.078.361a.076.076,0,0,1,.058-.088l1.53-.312a.076.076,0,0,1,.088.058v.019a.085.085,0,0,1-.058.078l-1.53.312A.094.094,0,0,1,114.716,42.138Zm-.37-2.085,2.1-.438h0a.365.365,0,0,1,.429.283l.107.516.731-.156a.411.411,0,0,1,.487.322.27.27,0,0,1,.01.088.379.379,0,0,1-.068.224.414.414,0,0,1-.263.175l-.731.156.107.516a.376.376,0,0,1-.049.273.362.362,0,0,1-.234.156h0l-.283.049-1.822.38a.075.075,0,1,1-.029-.146l1.822-.38.273-.049h0a.191.191,0,0,0,.127-.088.226.226,0,0,0,.029-.156l-.127-.594a.124.124,0,0,1,.01-.058.054.054,0,0,1,.049-.029l.809-.166a.239.239,0,0,0,.166-.107.274.274,0,0,0,.039-.195.262.262,0,0,0-.3-.2l-.809.166a.076.076,0,0,1-.088-.058l-.127-.594a.209.209,0,0,0-.244-.166h-.019l-.195.039.322,1.559v.019a.085.085,0,0,1-.058.078.076.076,0,0,1-.088-.058l-.322-1.559-1.754.361a.076.076,0,0,1-.088-.058A.118.118,0,0,1,114.345,40.053Zm2.309,1.559.049.234v.019a.085.085,0,0,1-.058.078.076.076,0,0,1-.088-.058l-.049-.234a.076.076,0,0,1,.058-.088A.064.064,0,0,1,116.655,41.612Zm-.058-.877-.146-.7L116.6,40l.146.7a.01.01,0,0,0,.01.01.043.043,0,0,0,.049,0l.819-.166c.039-.01.244-.049.341.058.01.019.02.029.02.049a.138.138,0,0,1-.02.058.076.076,0,0,1-.107,0,.282.282,0,0,0-.2-.01l-.818.166a.185.185,0,0,1-.156-.019A.273.273,0,0,1,116.6,40.735Z" transform="translate(-97.829 -21.451)" fill="#18191e"/>
        <path id="Path_24" data-name="Path 24" d="M180.883,120.827l-1.15-.127h-.01a1.064,1.064,0,0,1-.468.409l-.156.819a6.417,6.417,0,0,0,1.842-1.1Z" transform="translate(-162.272 -110.985)" fill="#18191e"/>
        <path id="Path_25" data-name="Path 25" d="M149.37,226.3c-.01.058-.01.107-.02.166a1.7,1.7,0,0,1,.438.058,1.308,1.308,0,0,1,.916.789v.02a.073.073,0,0,1-.049.068.08.08,0,0,1-.1-.049,1.142,1.142,0,0,0-.809-.682,1.235,1.235,0,0,0-.419-.049,8.251,8.251,0,0,1-.331,1.559,1.709,1.709,0,0,0,.312.117,1.224,1.224,0,0,0,1.569-.6.676.676,0,0,0,.029-.195,1.628,1.628,0,0,0-1.54-1.2Z" transform="translate(-135.105 -206.295)" fill="#18191e"/>
        <path id="Path_26" data-name="Path 26" d="M193.744,76.375A.86.86,0,0,0,193.5,77a1.546,1.546,0,0,0,.468,1.052,1.422,1.422,0,0,0,1.364.458,6.2,6.2,0,0,0,.2-.887,1.3,1.3,0,0,0-.361-.731,1.285,1.285,0,0,0-.448-.312.074.074,0,1,1,.059-.136,1.561,1.561,0,0,1,.5.341,1.606,1.606,0,0,1,.3.438c.01-.1.02-.2.02-.3a1.666,1.666,0,0,0-.2-.253A1.214,1.214,0,0,0,193.744,76.375Zm.838.049v.01a.076.076,0,0,1-.088.058.643.643,0,0,0-.273,0,.079.079,0,1,1-.019-.156,1.184,1.184,0,0,1,.322,0A.112.112,0,0,1,194.582,76.424Z" transform="translate(-175.269 -70.782)" fill="#18191e"/>
        <path id="Path_27" data-name="Path 27" d="M154.3,204.777c.185.117.234.1.273.029a.138.138,0,0,0,.02-.058c0-.039-.078-.088-.156-.136l-.02-.019L153.3,203.9v.253Z" transform="translate(-138.986 -186.078)" fill="#18191e"/>
        <path id="Path_28" data-name="Path 28" d="M135.15,151.153l-.5-.214a.377.377,0,0,0-.253-.029,3.265,3.265,0,0,1,.438.263l.195.078a.494.494,0,0,1,.244.244c.01.029.02.068.029.107h0a1.668,1.668,0,0,1,.107.136.455.455,0,0,0,.029-.166A.508.508,0,0,0,135.15,151.153Z" transform="translate(-121.928 -138.242)" fill="#18191e"/>
        <path id="Path_29" data-name="Path 29" d="M136.878,264.007l.029.029.058-.1-.039-.01a.083.083,0,0,1-.049-.029.065.065,0,0,0-.068.039.124.124,0,0,0-.01.058h.02A.064.064,0,0,1,136.878,264.007Z" transform="translate(-124.094 -240.232)" fill="#18191e"/>
      </g>
      <path id="Path_30" data-name="Path 30" d="M245.07,113.933a8.98,8.98,0,0,1-2.27-6.519,8,8,0,0,1,2.553-6.392,9.548,9.548,0,0,1,6.5-2.222q8,0,7.678,8.029H249.6V108.2a12.087,12.087,0,0,0,.877,5.213,3.133,3.133,0,0,0,3.069,1.764q4.093,0,5.349-4.365l.633.107a7.231,7.231,0,0,1-2.417,3.946,8.218,8.218,0,0,1-5.233,1.413Q247.351,116.281,245.07,113.933Zm4.56-7.8h3.625v-1.725a14.832,14.832,0,0,0-.331-3.888,1.325,1.325,0,0,0-1.335-1.043,1.568,1.568,0,0,0-1.481,1.111,10.62,10.62,0,0,0-.477,3.82Z" transform="translate(-213.365 -86.104)" fill="#18191e"/>
      <path id="Path_31" data-name="Path 31" d="M439.478,107.738H440.5v-2.709a17.62,17.62,0,0,0-.37-4.492,1.422,1.422,0,0,0-1.423-1.14,2.005,2.005,0,0,0-1.14.331,1.036,1.036,0,0,0-.507.916,3.4,3.4,0,0,0,.214,1.179h.877a5.071,5.071,0,0,1,.283,1.783,2.287,2.287,0,0,1-.877,1.793,3.27,3.27,0,0,1-2.222.76q-3.026,0-3.03-2.923,0-4.326,7.367-4.336,4.195,0,5.8,1.423c1.072.955,1.6,2.7,1.6,5.233v7.152c0,1.218.341,1.832,1.023,1.832.8,0,1.267-1.208,1.413-3.625l.526.039c-.1,2.066-.477,3.488-1.16,4.258a4.225,4.225,0,0,1-3.342,1.16c-2.816,0-4.443-.867-4.862-2.611a3.715,3.715,0,0,1-1.374,1.968,4.732,4.732,0,0,1-2.68.633q-5.218,0-5.213-4.258a3.437,3.437,0,0,1,1.988-3.43A14.916,14.916,0,0,1,439.478,107.738Zm-1.218,6.694a.732.732,0,0,0,.741.526c.361,0,.7-.3,1.023-.9a5.286,5.286,0,0,0,.477-2.485V108.3h-.244c-1.452,0-2.183,1.072-2.183,3.206v.565A8.522,8.522,0,0,0,438.26,114.432Z" transform="translate(-383.588 -86.194)" fill="#18191e"/>
      <path id="Path_32" data-name="Path 32" d="M641.113,119.27h-8.029l-.39-2.572a4.608,4.608,0,0,1-1.676,2.163,5.856,5.856,0,0,1-3.293.76c-3.644,0-5.457-1.959-5.457-5.885v-10.6H620.3V102.5h8.526v12.083a8.051,8.051,0,0,0,.3,2.787,1.171,1.171,0,0,0,1.2.672,1.953,1.953,0,0,0,1.6-1.091,5.579,5.579,0,0,0,.7-3.03V103.133h-1.618V102.5h8.166v16.126h1.939Z" transform="translate(-554.081 -89.444)" fill="#18191e"/>
      <path id="Path_33" data-name="Path 33" d="M841.239,57.1V46H839.3v-.633h1.939v-4.55l6.548-1.618v6.168h4.58V46h-4.58V57.87a6.507,6.507,0,0,0,.331,2.426,1.356,1.356,0,0,0,1.393.78,2.292,2.292,0,0,0,1.851-1.052,6.143,6.143,0,0,0,1.043-2.884l.594.068a6.821,6.821,0,0,1-1.549,3.859c-.848.955-2.241,1.423-4.19,1.423a7.394,7.394,0,0,1-4.473-1.16C841.755,60.549,841.239,59.136,841.239,57.1Z" transform="translate(-751.742 -32.312)" fill="#18191e"/>
      <path id="Path_34" data-name="Path 34" d="M980.492,19.194h9.719V35.32h1.968v.633H981.714V35.32h1.939V19.827H979.8Zm6.406-2.436a3.285,3.285,0,0,1-2.66-.955,3.572,3.572,0,0,1-.789-2.358,3.24,3.24,0,0,1,.867-2.329,3.43,3.43,0,0,1,2.621-.916,3.871,3.871,0,0,1,2.68.828,3.005,3.005,0,0,1,.916,2.358,3.372,3.372,0,0,1-.877,2.446A3.671,3.671,0,0,1,986.9,16.758Z" transform="translate(-880.105 -6.137)" fill="#18191e"/>
      <path id="Path_35" data-name="Path 35" d="M1096.7,3.4h8.633V29.183h1.968v.633h-10.465v-.633h1.939V4.033H1096.7Z" transform="translate(-984.06 0)" fill="#18191e"/>
      <path id="Path_36" data-name="Path 36" d="M1217.551,114.111a8.743,8.743,0,0,1-2.251-6.46,8.468,8.468,0,0,1,2.417-6.48,9.525,9.525,0,0,1,6.782-2.27q4.37,0,6.519,2.095t2.153,6.392q0,8.989-8.945,8.984Q1219.8,116.371,1217.551,114.111Zm8.838-5.038v-2.991a24.238,24.238,0,0,0-.37-4.989c-.244-1.043-.818-1.569-1.705-1.569a1.755,1.755,0,0,0-1.247.438,2.7,2.7,0,0,0-.692,1.462,26.416,26.416,0,0,0-.322,4.823v2.748a25.961,25.961,0,0,0,.224,4.619,8.133,8.133,0,0,0,.478,1.267,1.491,1.491,0,0,0,1.51.848c.916,0,1.51-.526,1.793-1.588A22.952,22.952,0,0,0,1226.389,109.073Z" transform="translate(-1091.104 -86.194)" fill="#18191e"/>
      <path id="Path_37" data-name="Path 37" d="M1420.276,99.263a2.307,2.307,0,0,0-2.222,1.7,16.6,16.6,0,0,0-.672,5.6v1.822a11.538,11.538,0,0,0,.78,5,2.906,2.906,0,0,0,2.855,1.51,4.178,4.178,0,0,0,3.313-1.413,6.781,6.781,0,0,0,1.588-3.206l.634.068a7.1,7.1,0,0,1-2.465,4.365,8.227,8.227,0,0,1-5.038,1.374,8.407,8.407,0,0,1-6.265-2.2c-1.452-1.471-2.183-3.615-2.183-6.451a8.462,8.462,0,0,1,2.485-6.538A9.816,9.816,0,0,1,1420,98.6a8.061,8.061,0,0,1,4.794,1.218,3.654,3.654,0,0,1,1.656,3.05,3.845,3.845,0,0,1-.789,2.68,2.84,2.84,0,0,1-2.183.848,3.275,3.275,0,0,1-2.241-.741,2.743,2.743,0,0,1-.848-2.183,4.737,4.737,0,0,1,.175-1.267h1.16a3.854,3.854,0,0,0,.244-1.267A1.493,1.493,0,0,0,1420.276,99.263Z" transform="translate(-1267.373 -85.924)" fill="#18191e"/>
      <path id="Path_38" data-name="Path 38" d="M1589.773,29.826v-.643h1.618l-3.985-8.175-.672.175v8h1.618v.633h-10.115v-.633h1.939V4.033H1578.1V3.4h8.633V20.481l.565-.214,7.922-6.587h-3.313v-.633h6.938v.633h-2.465l-4.19,3.557,6.09,11.946h1.267v.633h-9.773Z" transform="translate(-1418.552 0)" fill="#18191e"/>
      <path id="Path_39" data-name="Path 39" d="M1812.1,115.739v-6.3h.419a8.445,8.445,0,0,0,2.465,4.3,6.061,6.061,0,0,0,3.878,1.238q3.6,0,3.6-2.29a1.606,1.606,0,0,0-.877-1.481,11.927,11.927,0,0,0-3.527-1.2,13.5,13.5,0,0,1-4.014-1.7,4.443,4.443,0,0,1-1.939-4.015,5.813,5.813,0,0,1,1.7-4.385,6.214,6.214,0,0,1,4.511-1.637,8.823,8.823,0,0,1,3.557.809,3.015,3.015,0,0,0,1.023.283.787.787,0,0,0,.594-.244,3.994,3.994,0,0,0,.594-.916h.39v5.388h-.419q-1.8-4.575-5.564-4.58a4.218,4.218,0,0,0-2.465.585,1.754,1.754,0,0,0-.809,1.462,1.253,1.253,0,0,0,.244.828,4.18,4.18,0,0,0,.39.438,1.752,1.752,0,0,0,.458.3c.214.107.39.185.526.244a6.7,6.7,0,0,0,.653.224,3.963,3.963,0,0,0,.653.175,26.674,26.674,0,0,1,3.45,1.043,12.028,12.028,0,0,1,2.007,1.072,4.865,4.865,0,0,1,1.939,4.317,5.643,5.643,0,0,1-1.764,4.512,7.109,7.109,0,0,1-4.823,1.53,9.357,9.357,0,0,1-4.229-1.023,1.391,1.391,0,0,0-.672-.283c-.517,0-1.023.438-1.51,1.306Z" transform="translate(-1629.751 -85.563)" fill="#18191e"/>
      <path id="Path_40" data-name="Path 40" d="M1959.235,247.694a1.638,1.638,0,0,1-1.335-.477,1.806,1.806,0,0,1-.4-1.189,1.643,1.643,0,0,1,.438-1.169,1.753,1.753,0,0,1,1.315-.458,1.9,1.9,0,0,1,1.345.419,1.527,1.527,0,0,1,.458,1.189,1.69,1.69,0,0,1-.439,1.228A1.878,1.878,0,0,1,1959.235,247.694Z" transform="translate(-1760.983 -217.517)" fill="#18191e"/>
    </g>
  </g>
</svg>
