<svg
  id="calendar"
  xmlns="http://www.w3.org/2000/svg"
  width="21.133"
  height="21.133"
  viewBox="0 0 21.133 21.133"
>
  <path
    id="Path_84"
    data-name="Path 84"
    d="M347.238,4.953A1.238,1.238,0,0,1,346,3.715V1.238a1.238,1.238,0,1,1,2.477,0V3.715A1.238,1.238,0,0,1,347.238,4.953Z"
    transform="translate(-331.719)"
  />
  <g id="Group_6522" data-name="Group 6522" transform="translate(0 2.477)">
    <path
      id="Path_85"
      data-name="Path 85"
      d="M18.863,60H18v1.238a2.477,2.477,0,1,1-4.953,0V60H8.09v1.238a2.477,2.477,0,1,1-4.953,0V60H2.27A2.273,2.273,0,0,0,0,62.27v2.765H21.133V62.27A2.273,2.273,0,0,0,18.863,60Z"
      transform="translate(0 -60)"
    />
  </g>
  <path
    id="Path_86"
    data-name="Path 86"
    d="M107.238,4.953A1.238,1.238,0,0,1,106,3.715V1.238a1.238,1.238,0,0,1,2.477,0V3.715A1.238,1.238,0,0,1,107.238,4.953Z"
    transform="translate(-101.625)"
  />
  <path
    id="Path_87"
    data-name="Path 87"
    d="M0,212v10.112a2.273,2.273,0,0,0,2.27,2.27H18.863a2.273,2.273,0,0,0,2.27-2.27V212Zm11.217,8.049a2.477,2.477,0,0,1-4.929.345,2.5,2.5,0,0,1-.024-.345.619.619,0,0,1,1.238,0,1.262,1.262,0,0,0,.012.174,1.238,1.238,0,1,0,1.226-1.412.619.619,0,1,1,0-1.238,1.238,1.238,0,1,0-1.215-1.479.619.619,0,1,1-1.215-.239,2.476,2.476,0,1,1,4.065,2.337A2.471,2.471,0,0,1,11.217,220.049Zm3.652,1.857a.619.619,0,0,1-1.238,0V215.1h-.969a.619.619,0,0,1,0-1.238H14.25a.619.619,0,0,1,.619.619Z"
    transform="translate(0 -203.25)"
  />
</svg>
