<svg xmlns="http://www.w3.org/2000/svg" width="34.352" height="22.953" viewBox="0 0 34.352 22.953">
  <g id="cash-on-delivery" transform="translate(-53 -16)">
    <path id="Path_3434" data-name="Path 3434" d="M213.477,32a1.241,1.241,0,0,0-.877.363l-4.6,4.6v4.963h14.889a2.481,2.481,0,0,0,2.481-2.481h1.241V32Z" transform="translate(-142.981 -14.759)" fill="#f0915a"/>
    <g id="Group_8027" data-name="Group 8027" transform="translate(60.057 19.722)">
      <g id="Group_8024" data-name="Group 8024" transform="translate(0)">
        <path id="Path_3437" data-name="Path 3437" d="M160.75,72.685H144.62a.62.62,0,0,1-.62-.62V64.62a.62.62,0,0,1,.62-.62H160.75a.62.62,0,0,1,.62.62v7.444A.62.62,0,0,1,160.75,72.685Z" transform="translate(-144 -64)" fill="#78af41"/>
      </g>
      <g id="Group_8025" data-name="Group 8025" transform="translate(1.241 1.241)">
        <path id="Path_3438" data-name="Path 3438" d="M173.648,80H161.241A1.241,1.241,0,0,1,160,81.241v3.722a1.241,1.241,0,0,1,1.241,1.241h12.407a1.241,1.241,0,0,1,1.241-1.241V81.241A1.241,1.241,0,0,1,173.648,80Z" transform="translate(-160 -80)" fill="#466932"/>
      </g>
      <g id="Group_8026" data-name="Group 8026" transform="translate(6.068 1.903)">
        <ellipse id="Ellipse_15" data-name="Ellipse 15" cx="2.5" cy="2" rx="2.5" ry="2" transform="translate(-0.125 0.375)" fill="#78af41"/>
      </g>
    </g>
    <g id="Group_8033" data-name="Group 8033" transform="translate(53 29.027)">
      <g id="Group_8028" data-name="Group 8028" transform="translate(7.444 1.241)">
        <path id="Path_3439" data-name="Path 3439" d="M121.305,384h-5.282a3.722,3.722,0,0,0-2.632,1.09L112,386.481l3.1,3.1,1.5-1.5a1.241,1.241,0,0,1,.877-.363h3.829a1.861,1.861,0,1,0,0-3.722Z" transform="translate(-112 -384)" fill="#fab991"/>
      </g>
      <g id="Group_8029" data-name="Group 8029" transform="translate(10.546)">
        <path id="Path_3440" data-name="Path 3440" d="M167.146,368.363a1.241,1.241,0,0,0-1.755,0l-4.6,4.6h-6.416a1.241,1.241,0,0,0-.877.363l-1.5,1.5,1.861,1.861,1.241-1.241h5.947a1.849,1.849,0,0,0,1.316-.545l4.781-4.781A1.241,1.241,0,0,0,167.146,368.363Z" transform="translate(-152 -367.999)" fill="#f0915a"/>
      </g>
      <g id="Group_8030" data-name="Group 8030" transform="translate(15.716 2.068)">
        <path id="Path_3441" data-name="Path 3441" d="M219.7,396.734h-.414a.62.62,0,0,1-.62-.62v-.827a.62.62,0,0,1,.62-.62h.414a1.034,1.034,0,0,1,0,2.068Z" transform="translate(-218.667 -394.666)" fill="#f0915a"/>
      </g>
      <g id="Group_8031" data-name="Group 8031" transform="translate(0 3.359)">
        <path id="Path_3442" data-name="Path 3442" d="M23.263,411.5l3.283,3.283-3.1,3.1H16l6.385-6.385A.62.62,0,0,1,23.263,411.5Z" transform="translate(-16 -411.314)" fill="#463c4b"/>
      </g>
      <g id="Group_8032" data-name="Group 8032" transform="translate(7.444 6.824)">
        <path id="Path_3443" data-name="Path 3443" d="M115.1,456l2.043,2.043a.62.62,0,0,1,0,.877l-.182.182H112Z" transform="translate(-112 -456)" fill="#32283c"/>
      </g>
    </g>
    <g id="Group_8034" data-name="Group 8034" transform="translate(70.239 17.241)">
      <path id="Path_3444" data-name="Path 3444" d="M275.5,37.4l.069.069a2.792,2.792,0,0,0,3.948,0l1.128-1.128h3.1a3.722,3.722,0,0,0,3.722-3.722V32h-6.93a1.241,1.241,0,0,0-.877.363L275.5,36.524a.62.62,0,0,0,0,.877Z" transform="translate(-275.314 -32)" fill="#fab991"/>
    </g>
    <g id="Group_8035" data-name="Group 8035" transform="translate(70.603 20.136)">
      <path id="Path_3445" data-name="Path 3445" d="M280,70.78l.053.053a1.241,1.241,0,0,0,1.755,0l.351-.351a.31.31,0,0,0,0-.439l-.711-.711Z" transform="translate(-280 -69.332)" fill="#f0915a"/>
    </g>
    <g id="Group_8036" data-name="Group 8036" transform="translate(83.63 16)">
      <path id="Path_3446" data-name="Path 3446" d="M449.241,25.926h2.481V16h-2.481A1.241,1.241,0,0,0,448,17.241v7.444A1.241,1.241,0,0,0,449.241,25.926Z" transform="translate(-448 -16)" fill="#463c4b"/>
    </g>
    <g id="Group_8037" data-name="Group 8037" transform="translate(84.871 20.963)">
      <path id="Path_3447" data-name="Path 3447" d="M464.62,80h1.861v4.963H464V80.62A.62.62,0,0,1,464.62,80Z" transform="translate(-464 -80)" fill="#32283c"/>
    </g>
  </g>
</svg>
