<svg id="facebook" xmlns="http://www.w3.org/2000/svg" width="24.057" height="24.057" viewBox="0 0 24.057 24.057">
  <path id="Path_3414" data-name="Path 3414" d="M21.05,0H3.007A3.01,3.01,0,0,0,0,3.007V21.05a3.01,3.01,0,0,0,3.007,3.007H21.05a3.01,3.01,0,0,0,3.007-3.007V3.007A3.01,3.01,0,0,0,21.05,0Z" fill="#1976d2"/>
  <path id="Path_3415" data-name="Path 3415" d="M203.277,103.518h-3.759v-3.007c0-.83.674-.752,1.5-.752h1.5V96h-3.007a4.51,4.51,0,0,0-4.511,4.511v3.007H192v3.759h3.007v8.27h4.511v-8.27h2.255Z" transform="translate(-182.979 -91.489)" fill="#fafafa"/>
</svg>
