<svg xmlns="http://www.w3.org/2000/svg" width="19.356" height="19.782" viewBox="0 0 19.356 19.782">
  <path id="filter" d="M18.03,0H1.285a.787.787,0,0,0-.7.427.8.8,0,0,0,.062.83L6.781,9.9l.006.009a1.753,1.753,0,0,1,.344,1.04v7.046a.783.783,0,0,0,.783.788.807.807,0,0,0,.309-.062l3.447-1.315a.747.747,0,0,0,.514-.737V10.948a1.753,1.753,0,0,1,.344-1.04l.006-.009L18.67,1.257a.8.8,0,0,0,.062-.83A.787.787,0,0,0,18.03,0ZM11.76,9.343a2.714,2.714,0,0,0-.529,1.6v5.605l-3.146,1.2v-6.8a2.713,2.713,0,0,0-.529-1.6L1.6.953H17.716Zm0,0" transform="translate(0.02 0.5)" fill="none" stroke="#1e1e1e" stroke-width="1"/>
</svg>
