<svg id="gmail" xmlns="http://www.w3.org/2000/svg" width="24.057" height="18.406" viewBox="0 0 24.057 18.406">
  <rect id="Rectangle_75" data-name="Rectangle 75" width="18.406" height="18.406" transform="translate(2.704)" fill="#eceff1"/>
  <path id="Path_3416" data-name="Path 3416" d="M256,155.612l9.021,7.124V148.672Z" transform="translate(-243.971 -144.681)" fill="#cfd8dc"/>
  <path id="Path_3417" data-name="Path 3417" d="M21.8,64H21.05l-9.021,7.124L3.007,64H2.255A2.256,2.256,0,0,0,0,66.255V79.788a2.256,2.256,0,0,0,2.255,2.255h.752V67.978l9.021,6.939,9.021-6.94V82.043H21.8a2.256,2.256,0,0,0,2.255-2.255V66.255A2.256,2.256,0,0,0,21.8,64Z" transform="translate(0 -63.988)" fill="#f44336"/>
</svg>
