<svg xmlns="http://www.w3.org/2000/svg" width="16" height="16" viewBox="0 0 16 16">
  <g id="gps" transform="translate(0 0)">
    <path id="Path_88" data-name="Path 88" d="M.276,8.828H1.71A6.351,6.351,0,0,0,7.172,14.29v1.434A.277.277,0,0,0,7.448,16h1.1a.277.277,0,0,0,.276-.276V14.29A6.351,6.351,0,0,0,14.29,8.828h1.434A.277.277,0,0,0,16,8.552v-1.1a.277.277,0,0,0-.276-.276H14.29A6.351,6.351,0,0,0,8.828,1.71V.276A.277.277,0,0,0,8.552,0h-1.1a.277.277,0,0,0-.276.276V1.71A6.351,6.351,0,0,0,1.71,7.172H.276A.277.277,0,0,0,0,7.448v1.1a.277.277,0,0,0,.276.276ZM8,3.31A4.69,4.69,0,1,1,3.31,8,4.69,4.69,0,0,1,8,3.31Zm0,0" transform="translate(0)" fill="#1492e6"/>
    <path id="Path_89" data-name="Path 89" d="M189.793,187.586a2.207,2.207,0,1,1-2.207-2.207A2.207,2.207,0,0,1,189.793,187.586Zm0,0" transform="translate(-179.586 -179.586)" fill="#1492e6"/>
  </g>
</svg>
