<svg id="instagram" xmlns="http://www.w3.org/2000/svg" xmlns:xlink="http://www.w3.org/1999/xlink" width="24.057" height="24.057" viewBox="0 0 24.057 24.057">
  <defs>
    <linearGradient id="linear-gradient" x1="0.5" y1="0.008" x2="0.5" y2="0.998" gradientUnits="objectBoundingBox">
      <stop offset="0" stop-color="#e09b3d"/>
      <stop offset="0.3" stop-color="#c74c4d"/>
      <stop offset="0.6" stop-color="#c21975"/>
      <stop offset="1" stop-color="#7024c4"/>
    </linearGradient>
    <linearGradient id="linear-gradient-2" y1="-0.451" y2="1.462" xlink:href="#linear-gradient"/>
    <linearGradient id="linear-gradient-3" y1="-1.396" y2="6.586" xlink:href="#linear-gradient"/>
  </defs>
  <path id="Path_3418" data-name="Path 3418" d="M16.89,0H7.167A7.175,7.175,0,0,0,0,7.167V16.89a7.175,7.175,0,0,0,7.167,7.167H16.89a7.175,7.175,0,0,0,7.167-7.167V7.167A7.175,7.175,0,0,0,16.89,0Zm4.747,16.89a4.747,4.747,0,0,1-4.747,4.747H7.167A4.747,4.747,0,0,1,2.42,16.89V7.167A4.747,4.747,0,0,1,7.167,2.42H16.89a4.747,4.747,0,0,1,4.747,4.747V16.89Z" fill="url(#linear-gradient)"/>
  <path id="Path_3419" data-name="Path 3419" d="M139.222,133a6.222,6.222,0,1,0,6.222,6.222A6.229,6.229,0,0,0,139.222,133Zm0,10.024a3.8,3.8,0,1,1,3.8-3.8A3.8,3.8,0,0,1,139.222,143.024Z" transform="translate(-127.193 -127.193)" fill="url(#linear-gradient-2)"/>
  <circle id="Ellipse_21" data-name="Ellipse 21" cx="1.491" cy="1.491" r="1.491" transform="translate(16.772 4.362)" fill="url(#linear-gradient-3)"/>
</svg>
