<svg
  id="Group_6523"
  data-name="Group 6523"
  xmlns="http://www.w3.org/2000/svg"
  width="18.742"
  height="21.448"
  viewBox="0 0 18.742 21.448"
>
  <path
    id="Path_43"
    data-name="Path 43"
    d="M96.988,109.331l-.186.042h0l-.1.025.068.279.262-.059v-.288A.038.038,0,0,0,96.988,109.331Z"
    transform="translate(-89.063 -101.855)"
  />
  <path
    id="Path_44"
    data-name="Path 44"
    d="M96.73,94.688a1.221,1.221,0,0,0,.059.88l.135-.034a.21.21,0,0,1,.068-.008V94.4A.662.662,0,0,0,96.73,94.688Z"
    transform="translate(-89.034 -88.192)"
  />
  <path
    id="Path_45"
    data-name="Path 45"
    d="M143.7,62.348a.707.707,0,0,0,.093-.448.662.662,0,0,1-.042.118.83.83,0,0,1-.355.245c.008.144.017.288.017.44A1.206,1.206,0,0,0,143.7,62.348Z"
    transform="translate(-131.813 -58.441)"
  />
  <path
    id="Path_46"
    data-name="Path 46"
    d="M96.018,54.354a.73.73,0,0,0-.118.4.716.716,0,0,0,.33.609c.008,0,.017,0,.017.008.017.008.025.017.042.025V54.1A.708.708,0,0,0,96.018,54.354Z"
    transform="translate(-88.331 -51.301)"
  />
  <path
    id="Path_47"
    data-name="Path 47"
    d="M77.136,57.241a.429.429,0,0,1,.254-.313,1.147,1.147,0,0,1-.017-.169.8.8,0,0,1,.135-.457,3.448,3.448,0,0,0-1.455.364l.55-.068c.034-.008.068.025.076.059v.008a.072.072,0,0,1-.059.068l-.82.1.448.406a.066.066,0,0,1-.085.1l-.245-.22a3.269,3.269,0,0,0,.981,1.116.879.879,0,0,1,.271-.575A.456.456,0,0,1,77.136,57.241Zm-.288-.609c-.008-.034.025-.068.059-.076l.195-.025c.034-.008.068.025.076.059V56.6a.072.072,0,0,1-.059.068l-.2.025A.065.065,0,0,1,76.849,56.632Z"
    transform="translate(-69.93 -53.309)"
  />
  <path
    id="Path_48"
    data-name="Path 48"
    d="M91.04,71.1a.733.733,0,0,0-.744.71.743.743,0,0,0,.3.626.455.455,0,0,1-.042-.178V72.24a.448.448,0,0,1,.465-.431.653.653,0,0,0,.127-.017v-.66a.424.424,0,0,0-.1-.017C91.057,71.107,91.048,71.107,91.04,71.1Z"
    transform="translate(-83.2 -66.861)"
  />
  <path
    id="Path_49"
    data-name="Path 49"
    d="M115.337,21h-.22l-.017.592a1.924,1.924,0,0,1,.22.017Z"
    transform="translate(-105.907 -21)"
  />
  <path
    id="Path_50"
    data-name="Path 50"
    d="M92.785,33.006a.068.068,0,1,1,0-.135h.025V32.8L92.4,32.8a.268.268,0,0,0-.3.237.239.239,0,0,0,.076.169.325.325,0,0,0,.211.076l.414.008V33Zm-.1-.068a.073.073,0,0,1-.068.068L92.43,33a.068.068,0,0,1,0-.135l.186.008a.067.067,0,0,1,.068.068Z"
    transform="translate(-84.852 -31.797)"
  />
  <path
    id="Path_51"
    data-name="Path 51"
    d="M11.648,267.4l-.448.584h.178l.448-.584Z"
    transform="translate(-10.794 -246.561)"
  />
  <path
    id="Path_52"
    data-name="Path 52"
    d="M43.8,266.651l.288.6h.127l-.321-.651Z"
    transform="translate(-40.637 -245.828)"
  />
  <path
    id="Path_53"
    data-name="Path 53"
    d="M30.281,265.854c-.008,0-.017.008-.025.008a.077.077,0,0,1-.059-.025.077.077,0,0,0,.059.025.037.037,0,0,0,.025-.008.057.057,0,0,0,.034-.059.031.031,0,0,0-.008-.025l-.025-.059-.059.025a.073.073,0,0,0-.034.085l-.11-.22-.694.338.11.22a.008.008,0,0,0,.008.008.068.068,0,0,1-.034.076l-.169.085h.465l-.051-.11a.25.25,0,0,1-.017-.085.2.2,0,0,1,.1-.169.182.182,0,0,1,.245.085l.135.271h.491l-.262-.541Z"
    transform="translate(-27.363 -244.913)"
  />
  <path
    id="Path_54"
    data-name="Path 54"
    d="M29.951,136.985h0v-.034h0v-.017a.826.826,0,0,0-.051-.634v1.708l.491.457.423-.389-.854-1.083h0l-.008-.008C29.959,136.993,29.959,136.985,29.951,136.985Zm.135.372a.067.067,0,0,1,.093.008l.491.643a.065.065,0,0,1,.017.042.06.06,0,0,1-.025.051.067.067,0,0,1-.093-.008l-.491-.643A.065.065,0,0,1,30.086,137.357Z"
    transform="translate(-27.912 -126.548)"
  />
  <path
    id="Path_55"
    data-name="Path 55"
    d="M207.5,236.333h-.051a.064.064,0,0,1-.008-.127l.195-.008c.051-.059.11-.118.152-.178l-.059-.017a.065.065,0,1,1,.025-.127l.118.025a.731.731,0,0,0,.059-.085l-.4-.2a.068.068,0,0,1-.025-.093.057.057,0,0,1,.059-.034.064.064,0,0,1,.034.008l.414.211c.042-.068.085-.127.127-.195a2.416,2.416,0,0,0-.736-.313h-.017c-.059.042-.093.279-.11.423-.008.068-.017.135-.025.186a1.487,1.487,0,0,1-.059.186c-.042.135-.118.364-.085.423,0,.008.008.008.017.008a2.145,2.145,0,0,0,.245.034Z"
    transform="translate(-190.126 -217.084)"
  />
  <path
    id="Path_56"
    data-name="Path 56"
    d="M30.035,123.261l.161-.144-.1-.11a.066.066,0,0,1,.093-.093l.1.11.042-.042-.1-.11a.066.066,0,0,1,.093-.093l.1.11.3-.279a.275.275,0,0,0,.093-.211.331.331,0,0,0-.076-.22.3.3,0,0,0-.423-.017l-.423.4v.482A1.031,1.031,0,0,1,30.035,123.261Z"
    transform="translate(-27.912 -113.535)"
  />
  <path
    id="Path_57"
    data-name="Path 57"
    d="M165.888,107.341c.152-.042.3-.093.448-.144l.1-.524a.066.066,0,0,1,.076-.051.064.064,0,0,1,.051.068v.017l-.093.448c.025-.008.042-.017.068-.025l.152-.829v-.025h0a.008.008,0,0,1,.008-.008h0l.008-.008h0l.008-.008a.845.845,0,0,0,.507-.685.068.068,0,0,1,.076-.059.065.065,0,0,1,.059.068v.008a1.171,1.171,0,0,1-.076.3l.22.025.017-.144a.068.068,0,0,1,.076-.059.065.065,0,0,1,.059.068v.008l-.017.144.059.008.017-.144a.068.068,0,0,1,.076-.059.065.065,0,0,1,.059.068v.008l-.017.144.406.042a.3.3,0,0,0,.22-.068.3.3,0,0,0,.11-.2.3.3,0,0,0-.068-.22.3.3,0,0,0-.2-.11l-1.04-.11a.064.064,0,0,1-.059-.042.846.846,0,0,0-.719-.592.869.869,0,0,0-.626.178.847.847,0,0,0,.017,1.336.06.06,0,0,1,.025.051h0Zm.812-1.835a.257.257,0,0,1-.1.178.28.28,0,0,1-.195.059.267.267,0,0,1-.237-.3.272.272,0,0,1,.3-.237.267.267,0,0,1,.237.271Zm.093-.474a.06.06,0,0,1,.093.008.677.677,0,0,1,.144.279v.017a.064.064,0,0,1-.051.068.066.066,0,0,1-.076-.051.492.492,0,0,0-.11-.22A.077.077,0,0,1,166.793,105.032Zm-.9.617a.066.066,0,0,1-.076-.051.664.664,0,0,1,.076-.474.625.625,0,0,1,.8-.237.064.064,0,0,1,.042.059.031.031,0,0,1-.008.025.062.062,0,0,1-.085.034.469.469,0,0,0-.321-.034.55.55,0,0,0-.313.22.479.479,0,0,0-.059.372A.075.075,0,0,1,165.888,105.65Z"
    transform="translate(-152.077 -97.564)"
  />
  <path
    id="Path_58"
    data-name="Path 58"
    d="M6.992,267.4a.066.066,0,0,1-.093.008l-.017-.008H6.6l.195.144a.073.073,0,0,1,.025.051c0,.017-.008.025-.017.042a.067.067,0,0,1-.093.008l-.313-.237v.22l.211.161a.073.073,0,0,1,.025.051c0,.017-.008.025-.017.042a.067.067,0,0,1-.093.008L6.4,267.8v.186h.237l.448-.584H6.992Z"
    transform="translate(-6.4 -246.561)"
  />
  <path
    id="Path_59"
    data-name="Path 59"
    d="M11.221,42.262a.492.492,0,0,1,.389-.575l.626-.144a.429.429,0,0,1,.474.161l.1-.025a.431.431,0,0,1,.355-.355l.626-.144a.506.506,0,0,1,.567.262V40.376l-.279.152a.339.339,0,0,1-.33.034l-.381.2a.066.066,0,0,1-.085-.017l-.195-.254a.077.077,0,0,1,0-.085l.3-.321a.066.066,0,0,1,.051-.076.068.068,0,0,1,.076.042h0l.3.4a.12.12,0,0,0,.051.017A.182.182,0,0,0,14,40.427a.008.008,0,0,0,.008-.008l.347-.186v-.1l-.169.093a.068.068,0,1,1-.068-.118l.211-.11a.03.03,0,0,0,.017-.008v-.913l-.761.812a.066.066,0,1,1-.093-.093l.854-.913V36.621a.262.262,0,0,1-.11-.051l-.008-.008-1.15-1.4a.318.318,0,0,1-.059-.44l.169-.228.076-.076a.067.067,0,1,1,.076.11.1.1,0,0,0-.042.042l-.169.228a.159.159,0,0,0-.034.135.185.185,0,0,0,.068.118l.008.008,1.15,1.4c.008.008.017.008.025.017v-.169a.047.047,0,0,1-.042-.025l-.127-.152a.066.066,0,1,1,.1-.085l.068.085V34.9l-.77-.347a.064.064,0,0,1,.051-.118l.719.321V33.737l-.169.085a.315.315,0,0,1-.423-.152h0l-.1-.228-.694-1.463a.064.064,0,1,1,.118-.051l.694,1.463.1.22h0v.008a.19.19,0,0,0,.245.085l.228-.11v-.406a.062.062,0,0,1-.085-.034.059.059,0,0,1,.034-.085l.059-.025v-.567l-.44-.93a.064.064,0,0,1,.118-.051l.321.677v-.558l-.1-.22a.064.064,0,0,1,.118-.051l.127.262h.262l-.169-.364a.064.064,0,0,1,.118-.051l.2.423h.22l-.245-.516a.072.072,0,0,1,0-.059h-.533V28.925l-.3.068a.066.066,0,0,1-.076-.051l-.093-.406a.066.066,0,0,1,.051-.076l.093-.025a1.374,1.374,0,0,1-.051-.964.758.758,0,0,1,.381-.381V26.058a.657.657,0,0,1-.135.017.319.319,0,0,0-.228.085.316.316,0,0,0-.1.22.339.339,0,0,0,.1.245c.042.042.068.068.068.1a.057.057,0,0,1-.034.059c-.034.025-.076.017-.135-.008a.869.869,0,0,1-.524-.71c-.592-.22-1.294-1.514-1.328-1.565,0-.008,0-.008-.008-.017h0v-.042h0c0-.008,0-.008.008-.017h0l.008-.008h0l.008-.008c.068-.025,1.387-.694,2-.533a.879.879,0,0,1,.3-.22V22.624l-.423-.008a.456.456,0,0,1-.3-.11.357.357,0,0,1-.127-.271.409.409,0,0,1,.44-.364l.406.008v-.3h1.108L15.492,21H14.477a.951.951,0,0,1-.389.3,1.013,1.013,0,0,1-.93-.042.067.067,0,0,1,.076-.11.864.864,0,0,0,.8.025A.74.74,0,0,0,14.291,21H13.149v.034a.008.008,0,0,1-.008.008h0a.008.008,0,0,1-.008.008h0l-.008.008h-.068a.008.008,0,0,1-.008-.008h0l-.008-.008h0l-.008-.008h0c-.008-.008-.017-.025-.025-.034H12.65a2.466,2.466,0,0,0-.245.195.975.975,0,0,1-.431.271.64.64,0,0,1-.127-.008.707.707,0,0,0,.448.11.9.9,0,0,0,.71-.364.068.068,0,1,1,.118.068,1,1,0,0,1-.812.431.654.654,0,0,1-.677-.313.088.088,0,0,1,.017-.118c.051-.042.11,0,.135.025a.279.279,0,0,0,.195.042c.076,0,.228-.135.347-.237.034-.034.076-.059.11-.093H10.451l.364.744a.031.031,0,0,1,.008.025V21.8c-.008.017-.017.034-.034.034L10.451,22l.11.22a.031.031,0,0,1,.008.025.071.071,0,0,1-.034.059l-.812.4a.054.054,0,0,1-.051,0c-.017-.008-.034-.017-.034-.034L9.5,22.387a.064.064,0,0,1,.118-.051l.11.22.694-.338-.11-.22h0a.059.059,0,0,1,.034-.085l.338-.161L10.3,21h-.118l.152.313a.031.031,0,0,1,.008.025.071.071,0,0,1-.034.059.059.059,0,0,1-.085-.034L10.028,21H9.758a.394.394,0,0,1-.059.321l.313.643a.25.25,0,0,1,.017.085.2.2,0,0,1-.1.169.17.17,0,0,1-.144.008.2.2,0,0,1-.11-.093l-.313-.643A.39.39,0,0,1,9,21H8.7l.71,1.429a.031.031,0,0,1,.008.025.071.071,0,0,1-.034.059l-.195.093a.054.054,0,0,1-.051,0,.084.084,0,0,1-.042-.034L8.311,21H6.4v.584h.414l-.042-.093a.064.064,0,1,1,.118-.051l.059.144h.1l-.042-.11a.538.538,0,0,1-.059-.2.193.193,0,0,1,.127-.178c.22-.093.313.127.355.228l.11.262H8.4v4.339l.11.178a.051.051,0,0,1,.008.034.065.065,0,0,1-.017.042c-.034.042-.076.085-.11.127v1.226l1.294.135a.473.473,0,0,1,.347.254l.025.051.3.042.017-.118c.008-.068.042-.279.245-.254a.282.282,0,0,1,.245.279v.017l.152.025a.072.072,0,0,1,.059.068v.008A.081.081,0,0,1,11,28.1l-.152-.025-.017.118.152.025a.072.072,0,0,1,.059.068v.008a.081.081,0,0,1-.076.059l-.152-.025-.017.118.152.025a.072.072,0,0,1,.059.068v.008a.081.081,0,0,1-.076.059l-.152-.025-.017.118.152.025a.072.072,0,0,1,.059.068V28.8a.081.081,0,0,1-.076.059l-.152-.025-.017.118.152.025a.072.072,0,0,1,.059.068v.008a.081.081,0,0,1-.076.059l-.152-.025a.3.3,0,0,1-.11.178.268.268,0,0,1-.211.051c-.211-.034-.178-.245-.169-.313l.017-.135-.33-.051a.062.062,0,0,1-.051-.017.067.067,0,0,1-.008-.093.493.493,0,0,0,.11-.245l.017-.135a.51.51,0,0,0-.068-.33.375.375,0,0,0-.245-.186L8.4,27.656v.1l1.235.135a.065.065,0,0,1,.059.068v.008a.068.068,0,0,1-.076.059L8.4,27.893v.736l1.125.211a.27.27,0,0,0,.161-.025.064.064,0,1,1,.051.118.463.463,0,0,1-.237.034l-1.1-.2v1.091l.338-.313a.429.429,0,0,1,.609.025.438.438,0,0,1,.118.3v.017a.46.46,0,0,1-.135.3l-.355.321h0l-.144.127h0l-.245.22-.008.008a1.063,1.063,0,0,1,.042.279.93.93,0,0,1-.034.262l.863,1.1a.065.065,0,0,1,.017.042.073.073,0,0,1-.025.051l-.507.465a.066.066,0,0,1-.093,0l-.448-.414v1.446h0a.066.066,0,0,1,.034-.034.054.054,0,0,1,.051,0l.288.127a.064.064,0,0,1,.042.059.031.031,0,0,1-.008.025.062.062,0,0,1-.085.034l-.228-.1-.093.211v.592h0a.064.064,0,0,1,.042.059v.008h0c0,.008,0,.008-.008.017h0l-.034.076v.313l1.971.888.042-.1-1.6-.719a.064.064,0,0,1,.051-.118l1.6.719.051-.118h0a.064.064,0,0,1,.059-.042.031.031,0,0,1,.025.008h0l.228.1.313-.7-.228-.1a.008.008,0,0,1-.008-.008.066.066,0,0,1-.025-.085l.152-.338L8.954,33.94l-.034.076,1.531.694a.064.064,0,0,1-.051.118l-1.6-.719a.066.066,0,0,1-.034-.034.054.054,0,0,1,0-.051l.093-.2a.062.062,0,0,1,.085-.034l2.207,1a.064.064,0,0,1,.042.059.031.031,0,0,1-.008.025l-.152.338.228.1a.064.064,0,0,1,.042.059.031.031,0,0,1-.008.025l-.372.82a.062.062,0,0,1-.085.034l-.228-.1-.152.338a.062.062,0,0,1-.085.034L8.4,35.64v1.2l.017-.059a.066.066,0,0,1,.076-.051.064.064,0,0,1,.051.068v.017l-.144.592v.4l.22-.888c.025-.1.051-.2.127-.245a.2.2,0,0,1,.161-.017.215.215,0,0,1,.178.22,1.015,1.015,0,0,1-.025.169l-.313,1.286c-.025.11-.085.338-.313.279-.008,0-.017-.008-.025-.008v2l.093-.127.1.085-.2.262v1.032H7.6l-.448.584h.888c.008,0,.008-.008.017-.008l.338-.161-.11-.22a.059.059,0,0,1,.034-.085l.812-.4a.054.054,0,0,1,.051,0c.017.008.034.017.034.034l.11.22.118-.059h0l.211-.1a.059.059,0,0,1,.085.034l.372.761h1.159l-.059-.152C11.221,42.271,11.221,42.271,11.221,42.262Zm2.317-6.977.237-.313a.066.066,0,1,1,.1.085l-.2.271.465.558a.065.065,0,0,1,.017.042.073.073,0,0,1-.025.051.067.067,0,0,1-.093-.008l-.5-.6A.077.077,0,0,1,13.538,35.285Zm-3.011-.465a.062.062,0,0,1,.085-.034l.144.068a.064.064,0,0,1,.042.059.031.031,0,0,1-.008.025.062.062,0,0,1-.085.034l-.144-.068A.064.064,0,0,1,10.527,34.82Zm-.694-.051a.4.4,0,0,1,.228.33l.66.3a.185.185,0,0,1,.11.169.247.247,0,0,1-.017.076.183.183,0,0,1-.1.093.173.173,0,0,1-.144-.008l-.66-.3a.392.392,0,0,1-.626-.288l-.66-.3a.185.185,0,0,1-.11-.169.247.247,0,0,1,.017-.076.186.186,0,0,1,.245-.093l.66.3A.413.413,0,0,1,9.834,34.769Zm3.4-.474c0,.008.008.017.008.025s-.008.025-.017.042l-.338.431a.073.073,0,0,1-.051.025,3.44,3.44,0,0,1,.195.719c0,.068-.025.076-.051.085-.059.025-.11.042-.5-.719l-.11.144h0l-.008.008h0a.008.008,0,0,0-.008.008h0l-.254.1a.066.066,0,0,1-.068-.008l-.135-.1A.077.077,0,0,1,11.872,35l.034-.271h0V34.71a.008.008,0,0,1,.008-.008h0l.643-.837a.3.3,0,0,1,.195-.11.273.273,0,0,1,.211.059A2.037,2.037,0,0,1,13.234,34.3Zm.059-2.453a.064.064,0,0,1,.118-.051l.584,1.226a.031.031,0,0,1,.008.025.071.071,0,0,1-.034.059.059.059,0,0,1-.085-.034Zm.871,1.438-.186.085a.064.064,0,1,1-.051-.118l.186-.085a.059.059,0,0,1,.085.034.031.031,0,0,1,.008.025A.1.1,0,0,1,14.164,33.28Zm.118-.414a.031.031,0,0,1,.008.025.071.071,0,0,1-.034.059.059.059,0,0,1-.085-.034l-.584-1.226a.064.064,0,0,1,.118-.051Zm-.592-3.527c.017.042.025.076.042.118v.017a.062.062,0,0,1-.051.059.07.07,0,0,1-.085-.042c-.008-.017-.008-.034-.017-.042l-.093.034a1.57,1.57,0,0,1,.085.516,1,1,0,0,1-.584,1,.9.9,0,0,1-.8-.11,1.5,1.5,0,0,1-.567-.694l-.093.034c.008.008.008.025.017.034a.064.064,0,0,1-.118.051c-.017-.034-.025-.068-.042-.1a1.8,1.8,0,0,1-.059-1.167,1.14,1.14,0,0,1,.6-.7l-.051-.127-.178.068a.054.054,0,0,1-.051,0l-.254-.1a.063.063,0,0,1,0-.118l.863-.321a.063.063,0,0,1,.085.042c0,.008.008.017.008.025a.064.064,0,0,1-.042.059l-.7.262.076.034.22-.085h0l.245-.093a.067.067,0,1,1,.042.127l-.178.068.051.127A1.4,1.4,0,0,1,13.69,29.339Zm-3.823-5.92,1.6-.812a.493.493,0,0,1,.482.051l.279-.127-.051-.11a.475.475,0,0,1-.051-.186.177.177,0,0,1,.118-.161.283.283,0,0,1,.364.118l.144-.068a.059.059,0,0,1,.085.034c0,.008.008.017.008.025a.064.064,0,0,1-.042.059l-.144.068.051.11.144-.068a.059.059,0,0,1,.085.034c0,.008.008.017.008.025a.064.064,0,0,1-.042.059l-.144.068.051.11.144-.068a.059.059,0,0,1,.085.034c0,.008.008.017.008.025a.064.064,0,0,1-.042.059l-.127.059.051.11.144-.068a.059.059,0,0,1,.085.034c0,.008.008.017.008.025a.064.064,0,0,1-.042.059l-.144.068.051.11.144-.068a.059.059,0,0,1,.085.034c0,.008.008.017.008.025a.064.064,0,0,1-.042.059l-.144.068a.232.232,0,0,1,.017.11.424.424,0,0,1-.017.1.283.283,0,0,1-.152.161c-.195.085-.279-.11-.313-.169l-.059-.118-.3.135a.12.12,0,0,1-.051.017.068.068,0,0,1-.059-.076.455.455,0,0,0-.042-.262L12.05,23a.46.46,0,0,0-.55-.262l-1.573.8a.39.39,0,0,0-.195.516l.059.118a.372.372,0,0,0,.22.2.4.4,0,0,0,.3-.008l1.666-.677a.316.316,0,0,0,.127-.11.067.067,0,0,1,.11.076.531.531,0,0,1-.178.161l-1.666.677a.539.539,0,0,1-.4.017.519.519,0,0,1-.3-.271l-.059-.118A.53.53,0,0,1,9.868,23.419Zm1.776-.524a.071.071,0,0,1-.034.059l-1.294.651a.07.07,0,1,1-.059-.127l1.294-.651a.071.071,0,0,1,.093.034C11.635,22.878,11.644,22.886,11.644,22.894Zm-1.463.744a.071.071,0,0,1-.034.059l-.152.076a.064.064,0,0,1-.051-.118l.152-.076a.059.059,0,0,1,.085.034Zm.854,3.1c-.034-.017-.034-.059-.017-.093s.059-.034.093-.017a3.151,3.151,0,0,0,.956.474h.017c.059-.042.093-.279.11-.423.008-.068.017-.135.025-.186a1.491,1.491,0,0,1,.059-.186c.042-.135.118-.355.085-.423,0-.008-.008-.008-.017-.008a3.064,3.064,0,0,0-1.235.034.3.3,0,0,1,.017.093.186.186,0,0,1-.008.068h0l.913-.017h0a.067.067,0,0,1,.068.068h0a.067.067,0,0,1-.068.068l-.82.017.507.118a.064.064,0,0,1,.051.068v.017a.066.066,0,0,1-.076.051l-.626-.144h0l.431.211a.057.057,0,0,1,.034.059.031.031,0,0,1-.008.025.073.073,0,0,1-.085.034l-.406-.2a.3.3,0,0,1-.135.152.4.4,0,0,1-.245.025.357.357,0,0,1-.178-.093,3.835,3.835,0,0,1-1.336.042.135.135,0,0,1-.1-.076c-.068-.118.008-.338.076-.533a1.15,1.15,0,0,0,.051-.169c.008-.042.017-.11.025-.178.025-.2.051-.431.169-.516a.159.159,0,0,1,.127-.025,3.092,3.092,0,0,1,1.184.626.409.409,0,0,1,.2-.008.357.357,0,0,1,.178.093,3.092,3.092,0,0,1,1.336-.051.135.135,0,0,1,.1.076.27.27,0,0,1,.025.118,1.405,1.405,0,0,1-.1.414,1.15,1.15,0,0,0-.051.169c-.008.042-.017.11-.025.178-.025.2-.059.431-.169.516a.159.159,0,0,1-.127.025A3.284,3.284,0,0,1,11.035,26.743Zm.77-.33a.066.066,0,0,1,.076-.051l.195.042a.064.064,0,0,1,.051.068v.017a.066.066,0,0,1-.076.051l-.195-.042A.08.08,0,0,1,11.8,26.413ZM10.392,33.7c-.008,0-.008,0-.017.008h-.042c-.008,0-.008-.008-.017-.008h0l-.008-.008h0l-.008-.008a4.253,4.253,0,0,1-.414-2,.87.87,0,0,1-.254-.617.9.9,0,0,1,.025-.211c.008-.042.034-.118.1-.118s.085.085.093.135a.344.344,0,0,0,.127.211.325.325,0,0,0,.448-.076.493.493,0,0,1,.677-.11.469.469,0,0,1,.195.338c.008-.008.017-.008.017-.017a.455.455,0,0,1,.355-.1.485.485,0,0,1,.431.533.323.323,0,0,0,.279.355.312.312,0,0,0,.254-.085c.034-.034.085-.076.135-.051a.075.075,0,0,1,.042.068.257.257,0,0,1-.025.093.881.881,0,0,1-.744.482C11.779,33.052,10.443,33.678,10.392,33.7Zm.389,3.476a.534.534,0,0,1,.753-.034.588.588,0,0,1,.144.211l.338.034a.06.06,0,0,1,.059.068.065.065,0,0,1-.068.059l-.389-.034a.073.073,0,0,1-.059-.051.36.36,0,0,0-.118-.195.4.4,0,1,0,.025.567.338.338,0,0,0,.085-.152.084.084,0,0,1,.034-.042.054.054,0,0,1,.051,0l.423.025a.086.086,0,0,1,.059.034l.634,1.353a.591.591,0,0,0,.372.254l-.787-1.5a.064.064,0,0,1,.008-.076.081.081,0,0,1,.076-.017l1.573.66a.334.334,0,0,0-.279-.313h-.008l-1.387-.567c-.025-.008-.034-.025-.042-.051l-.059-.423a.054.054,0,0,1,0-.051c.008-.017.017-.034.034-.034a.556.556,0,0,0,.144-.1.4.4,0,1,0-.567.025.461.461,0,0,0,.2.1.065.065,0,1,1-.025.127.487.487,0,0,1-.271-.135.533.533,0,1,1,.753-.034.465.465,0,0,1-.144.11l.051.347,1.353.55a.466.466,0,0,1,.372.457c0,.034-.008.068-.008.1a.084.084,0,0,1-.034.042.072.072,0,0,1-.059,0l-1.48-.617.744,1.429a.072.072,0,0,1,0,.059.056.056,0,0,1-.042.034c-.347.085-.592-.288-.6-.3v-.008l-.617-1.319-.355-.025a1.472,1.472,0,0,1-.093.152.534.534,0,0,1-.753.034A.527.527,0,0,1,10.781,37.179Zm1.438-.778a.2.2,0,0,0-.152-.051.068.068,0,0,1-.017-.135.311.311,0,0,1,.262.085.316.316,0,0,1,.1.22v.017a.356.356,0,0,1-.085.22.066.066,0,1,1-.093-.093.192.192,0,0,0,.051-.135A.233.233,0,0,0,12.219,36.4Zm-1.311,5.548a.062.062,0,0,1-.051-.017l-1.2-.922a.9.9,0,0,1-.338-.584.834.834,0,0,1,.11-.55l-.152-.118c-.008,0-.017.008-.034.008a.272.272,0,0,1-.195-.051L8.76,39.5a.047.047,0,0,1-.025-.042.062.062,0,0,1,.017-.051L9,39.074a.067.067,0,0,1,.093-.008l.076.059a1.379,1.379,0,0,1,.719-.651.753.753,0,0,1,.609.093.467.467,0,0,1,.626-.042.473.473,0,0,1,.186.372.459.459,0,0,1-.1.288.473.473,0,0,1-.846-.288.41.41,0,0,1,.059-.22.644.644,0,0,0-.491-.076,1.245,1.245,0,0,0-.643.6l.11.085a.252.252,0,0,1,.1.2l.195.152h0l.008.008a.077.077,0,0,1,0,.085c-.008.017-.025.025-.034.042l-.059.076a.773.773,0,0,0-.152.558.723.723,0,0,0,.288.5l1.15.88.973-1.269-1.15-.88a.741.741,0,0,0-.837-.051.068.068,0,0,1-.068-.118.882.882,0,0,1,.99.059L12,40.452a.047.047,0,0,1,.025.042V40.5c0,.017-.008.025-.017.042L10.95,41.924A.047.047,0,0,1,10.908,41.949Zm-.947-1.184.491.372a.073.073,0,0,1,.025.051c0,.017-.008.025-.017.042a.067.067,0,0,1-.093.008l-.491-.372a.748.748,0,0,1-.161-1.04.066.066,0,1,1,.1.085A.615.615,0,0,0,9.961,40.765Zm.457.152a.047.047,0,0,1-.042.025.062.062,0,0,1-.051-.017l-.381-.288a.067.067,0,0,1-.008-.093l.507-.66a.047.047,0,0,1,.042-.025.062.062,0,0,1,.051.017l.381.288a.073.073,0,0,1,.025.051c0,.017-.008.025-.017.042Zm.457.584c0,.017-.008.025-.017.042a.067.067,0,0,1-.093.008l-.228-.169a.066.066,0,0,1,.085-.1l.228.169A.073.073,0,0,1,10.874,41.5Z"
    transform="translate(-6.4 -21)"
  />
  <path
    id="Path_60"
    data-name="Path 60"
    d="M97.472,266.161c-.017-.008-.034-.025-.059-.042l-.008-.008a.231.231,0,0,1-.076-.1.656.656,0,0,1-.11-.008,3.686,3.686,0,0,1-.947.11H94.884v.008a.508.508,0,0,1-.389.524l-.195.042h1.666l.008-.347a.073.073,0,0,1,.068-.068h.127a.213.213,0,0,1,.169.076.541.541,0,0,1,.1.33c.533-.008,1.04-.034,1.531-.068a2.865,2.865,0,0,1-.313-.406A.254.254,0,0,1,97.472,266.161Z"
    transform="translate(-86.866 -245.279)"
  />
  <path
    id="Path_61"
    data-name="Path 61"
    d="M66.549,262l-.017-.017a.066.066,0,0,1,.093-.093l.017.017c.11.118.237.262.321.245l.524-.118a.4.4,0,0,0,.288-.431l-.017-.245a.361.361,0,0,0-.44-.254l-.626.144a.3.3,0,0,0-.262.279.073.073,0,0,1-.051.059l-.195.042a.074.074,0,0,1-.076-.034.3.3,0,0,0-.355-.144l-.626.144a.365.365,0,0,0-.288.414l.076.195h.118a1.1,1.1,0,0,1-.085-.211c-.042-.169.118-.271.211-.3a.07.07,0,0,1,.085.042v.025a.064.064,0,0,1-.042.059s-.144.051-.127.144a1.341,1.341,0,0,0,.1.245h.854a1.679,1.679,0,0,0,.11-.465.073.073,0,0,1,.051-.059l.186-.042a.065.065,0,1,1,.025.127l-.144.034a2.339,2.339,0,0,1-.093.406h.584A2.285,2.285,0,0,1,66.549,262Z"
    transform="translate(-59.893 -240.787)"
  />
  <path
    id="Path_62"
    data-name="Path 62"
    d="M138.659,261.893l.474.11a.064.064,0,0,1,.051.068v.017a.066.066,0,0,1-.076.051l-.507-.118.558.33a.071.071,0,0,1,.034.059.051.051,0,0,1-.008.034.068.068,0,0,1-.093.025l-.448-.262.541.533c.127-.017.254-.025.381-.042a.008.008,0,0,1,.008-.008c.025-.042.068-.1.11-.161.085-.118.22-.3.2-.381,0-.008,0-.008-.008-.017a3.417,3.417,0,0,0-1.184-.33v.008C138.685,261.825,138.676,261.859,138.659,261.893Zm.567.2a.066.066,0,0,1,.076-.051l.22.051a.064.064,0,0,1,.051.068v.017a.066.066,0,0,1-.076.051l-.22-.051A.08.08,0,0,1,139.226,262.1Z"
    transform="translate(-127.419 -241.434)"
  />
  <path
    id="Path_63"
    data-name="Path 63"
    d="M132.7,262.037l-.1.169a.251.251,0,0,0,.152.034.14.14,0,0,0,.11-.085l.169-.288a.58.58,0,0,0,.025-.068,2.328,2.328,0,0,1-.347.2A.064.064,0,0,0,132.7,262.037Z"
    transform="translate(-121.927 -241.434)"
  />
  <path
    id="Path_64"
    data-name="Path 64"
    d="M135.818,266.7h0a.316.316,0,0,1-.118.118,3.413,3.413,0,0,0,.347.431l.313-.025Z"
    transform="translate(-124.764 -245.92)"
  />
  <path
    id="Path_65"
    data-name="Path 65"
    d="M112.707,42.373a.28.28,0,0,1-.2,0l-.338-.135a.066.066,0,0,1-.034-.034.054.054,0,0,1,0-.051l.161-.389a.062.062,0,0,1,.085-.034l.085.034a1.381,1.381,0,0,1,.516-.82.753.753,0,0,1,.609-.076.473.473,0,0,1,.888.228.442.442,0,0,1-.034.178.474.474,0,0,1-.913-.178.412.412,0,0,1,.008-.1.639.639,0,0,0-.491.059,1.247,1.247,0,0,0-.457.753l.127.051a.252.252,0,0,1,.152.169l.228.093h.008a.008.008,0,0,1,.008.008.077.077,0,0,1,.025.085l-.025.051-.034.093c0,.008-.008.017-.008.025l.093-.025c.008-.017.017-.042.025-.059a.062.062,0,0,1,.085-.034.064.064,0,0,1,.042.059c.2-.051.4-.11.592-.169l.025-.025a.038.038,0,0,1,.042,0c.144-.051.288-.1.423-.152l-.313-.127a.742.742,0,0,0-.82.178.066.066,0,1,1-.093-.093.876.876,0,0,1,.964-.2l.44.178c.271-.11.533-.228.778-.355a5,5,0,0,0,.88-.592c-.051-.008-.093-.017-.135-.025a.135.135,0,0,1-.1-.076c-.068-.118.008-.338.076-.533a1.15,1.15,0,0,0,.051-.169c.008-.042.017-.11.025-.178.025-.2.051-.431.169-.516a.159.159,0,0,1,.127-.025,2.78,2.78,0,0,1,.77.33,5.84,5.84,0,0,0,.66-2.884,6.61,6.61,0,0,0-.051-.829.562.562,0,0,1-.372-.025.536.536,0,0,1-.2-.161l-.338.076a.065.065,0,0,1-.025-.127l.381-.085a.064.064,0,0,1,.068.025.418.418,0,0,0,.169.152.4.4,0,0,0,.3.017,4.553,4.553,0,0,0-.195-.778.4.4,0,0,0-.3.228.379.379,0,0,0-.034.169.12.12,0,0,1-.017.051.065.065,0,0,1-.042.017l-.414.11a.066.066,0,0,1-.068-.017L115.7,34.618a.588.588,0,0,0-.431-.127l1.218,1.184a.081.081,0,0,1,.017.076.067.067,0,0,1-.068.042l-1.7-.135a.334.334,0,0,0,.364.211h.008l1.5.1a.057.057,0,0,1,.051.034l.195.381a.091.091,0,0,1,.017.051.047.047,0,0,1-.025.042.515.515,0,0,0-.1.135.4.4,0,1,0,.533-.2.42.42,0,0,0-.228-.034.068.068,0,1,1-.017-.135.548.548,0,0,1,.3.042.538.538,0,1,1-.71.271.442.442,0,0,1,.1-.144l-.161-.313-1.455-.1a.461.461,0,0,1-.516-.414.091.091,0,0,1,.017-.051.062.062,0,0,1,.051-.017l1.607.127-1.15-1.125c-.017-.017-.025-.034-.017-.051a.07.07,0,0,1,.034-.051c.3-.186.651.093.668.1a.008.008,0,0,1,.008.008l1,1.066.338-.093a.524.524,0,0,1,.423-.474,4.355,4.355,0,0,0-1.48-1.962L114.153,34.2a.107.107,0,0,1-.051.008.084.084,0,0,1-.042-.034l-.186-.321-.228.118a.068.068,0,0,1-.093-.025l-.457-.778a.068.068,0,0,1,.025-.093l.271-.161a.068.068,0,0,1,.068.118l-.211.127.389.66.211-.127h0a.068.068,0,0,1,.093.025l.186.321,1.827-1.074c-.034-.025-.068-.042-.1-.068l-1.328.778a.068.068,0,0,1-.068-.118l1.269-.744q-.2-.127-.431-.254l-.237.144a.368.368,0,0,1-.195.347.393.393,0,0,1-.4,0l-.617.364a.171.171,0,0,1-.144.017.16.16,0,0,1-.11-.085.17.17,0,0,1-.025-.093.181.181,0,0,1,.093-.161l.617-.364a.384.384,0,0,1,.195-.347.393.393,0,0,1,.4,0l.034-.017c-.144-.068-.288-.127-.44-.186l-1.116.66a.107.107,0,0,1-.051.008.084.084,0,0,1-.042-.034l-.11-.186a.068.068,0,0,1,.025-.093l.863-.507a12.044,12.044,0,0,0-2.284-.482v-.059a9.058,9.058,0,0,0,1.066-.228l.025-1.142a.984.984,0,0,1,.008-1.531.982.982,0,0,1,1.539.431l1,.1a.385.385,0,0,1,.288.161.437.437,0,0,1,.093.271v.008a4.122,4.122,0,0,0,.736-1.269,1.382,1.382,0,0,1-1.184-.406l-.076.068.025.025a.066.066,0,1,1-.093.093L115.1,28a1.429,1.429,0,0,1-.245-1.928l-.093-.1-.135.135a.065.065,0,0,1-.042.017l-.279.008a.064.064,0,0,1-.059-.042.067.067,0,0,1,.017-.076l.66-.643a.066.066,0,0,1,.093,0c.008.017.017.025.017.042a.12.12,0,0,1-.017.051l-.541.524h.076l.355-.338a.066.066,0,1,1,.093.093l-.135.135.093.1a1.4,1.4,0,0,1,1.835.22,6.172,6.172,0,0,0-.068-.7,1.135,1.135,0,0,1-.152-.237.926.926,0,0,1-.059-.584,3.726,3.726,0,0,0-1.565-1.928c-.008.008-.008.025-.017.034a.22.22,0,0,1-.135.127.234.234,0,0,1-.076.008.5.5,0,0,1,.059.245.469.469,0,0,1-.059.237l-.211.423a.528.528,0,0,1-.567.288l-.059,1.074a.064.064,0,1,1-.127-.008l.068-1.074h-.008l-.338-.169a.592.592,0,0,1-.161-.127l-.99.465a1.95,1.95,0,0,0,.1.372l.423-.313a.062.062,0,0,1,.093.017.065.065,0,0,1,.017.042.06.06,0,0,1-.025.051l-.448.338a1.188,1.188,0,0,0,.448.516,1.421,1.421,0,0,0,1.294-.076l-.11-.82a.068.068,0,1,1,.135-.017l.118.871v.008a.064.064,0,0,1-.042.059,1.582,1.582,0,0,1-1.455.093,1.645,1.645,0,0,1-.677-1.159.077.077,0,0,1,.034-.068l1.015-.474a.53.53,0,0,1-.051-.228.469.469,0,0,1,.059-.237l.211-.423a.536.536,0,0,1,.66-.262c.008,0,.008,0,.017.008l.4.2c.093.042.178.085.22.068.008,0,.034-.008.059-.059a.143.143,0,0,0,.017-.042,1.083,1.083,0,0,0-.169-.093,5.352,5.352,0,0,0-.7-.321.064.064,0,0,0-.017.034.07.07,0,1,1-.127-.059c0-.008.008-.017.017-.025a15.54,15.54,0,0,0-5.142-.77l-.017.617a2.744,2.744,0,0,1,.7.186l-.118-.085a.077.077,0,0,1-.025-.085l.135-.288a.074.074,0,0,1,.076-.034l.414.118a.069.069,0,0,1,.093.017.064.064,0,0,1-.008.085h0l-.2.431c0,.017.008.034.008.051a2.218,2.218,0,0,1,.211.186l1.785,1.235a.2.2,0,0,0,.254-.093l.44-.922a.2.2,0,0,0-.085-.254l-2.2-.643a.067.067,0,1,1,.042-.127l2.2.651h.008a.325.325,0,0,1,.186.3.248.248,0,0,1-.034.135l-.44.88a.324.324,0,0,1-.431.152.008.008,0,0,1-.008-.008l-1.463-1.015a5.262,5.262,0,0,1,.491,2.131.55.55,0,0,0,.245-.161.316.316,0,0,0,.042-.2c-.008-.025-.025-.1.034-.127a.1.1,0,0,1,.118.034.492.492,0,0,1,.118.33.944.944,0,0,1-.118.423,1.139,1.139,0,0,1-.406.44V27.53c0,.161,0,.321-.008.474l1.133-1.074a.5.5,0,0,1,.414-.1.157.157,0,0,1,.059.017l.228-.2-.076-.093a.386.386,0,0,1-.1-.161.2.2,0,0,1,.068-.195.276.276,0,0,1,.381.008l.118-.1a.06.06,0,0,1,.093.008.065.065,0,0,1,.017.042.073.073,0,0,1-.025.051l-.118.1L113,26.4l.118-.1a.06.06,0,0,1,.093.008.065.065,0,0,1,.017.042.073.073,0,0,1-.025.051l-.118.1.076.093.118-.1a.06.06,0,0,1,.093.008.065.065,0,0,1,.017.042.073.073,0,0,1-.025.051l-.118.1.076.093.118-.1a.06.06,0,0,1,.093.008.065.065,0,0,1,.017.042.073.073,0,0,1-.025.051l-.118.1.076.093.118-.1a.06.06,0,0,1,.093.008.065.065,0,0,1,.017.042.073.073,0,0,1-.025.051l-.118.1a.265.265,0,0,1,.059.178v.017a.325.325,0,0,1-.093.195c-.161.135-.3-.025-.347-.076l-.085-.1-.245.22a.047.047,0,0,1-.042.025.066.066,0,0,1-.076-.051.591.591,0,0,0-.11-.245l-.085-.1a.488.488,0,0,0-.3-.161.37.37,0,0,0-.3.068l-1.243,1.184c0,.051-.008.11-.008.161h0l.118-.11a.066.066,0,0,1,.093,0c.008.017.017.025.017.042a.073.073,0,0,1-.025.051l-.118.11a.066.066,0,0,1-.093,0l-.008-.008c-.008.135-.025.262-.042.389l.059.068a.4.4,0,0,0,.271.135.407.407,0,0,0,.288-.093l1.4-1.125a.273.273,0,0,0,.085-.144.067.067,0,1,1,.127.042.418.418,0,0,1-.127.2l-1.4,1.125a.51.51,0,0,1-.381.127.533.533,0,0,1-.347-.161,3.9,3.9,0,0,1-.516,1.48c-.008.008-.017.017-.017.025l.4.169a.31.31,0,0,1,.254.313v.051l-.042.279a.477.477,0,0,1-.034.1.068.068,0,1,1-.118-.068.122.122,0,0,0,.017-.059l.042-.279a.183.183,0,0,0-.152-.211h-.017l-.44-.178c-.017.025-.042.051-.059.076l.051.017a.064.064,0,0,1,.042.059v.008l-.059.389a.065.065,0,0,1-.127-.025l.051-.338-.051-.017a2.41,2.41,0,0,1-1.463.626.15.15,0,0,0,.034.085.2.2,0,0,0,.11.076l1.8-.127a.064.064,0,1,1,.008.127l-1.81.127h-.017a.32.32,0,0,1-.262-.279c-.118.008-.245.017-.372.017H107.7V31.5l.271.575a5.417,5.417,0,0,1,1.235.152c.017-.008.025-.017.042-.017a.381.381,0,0,1,.3.008.208.208,0,0,1,.144.169c.008.008.025.008.034.017a.12.12,0,0,1,.051-.017.52.52,0,0,1,.406.008l.431.186a.537.537,0,0,1,.321.491.186.186,0,0,1-.008.068l1.04.008a.073.073,0,0,1,.068.068h0a.073.073,0,0,1-.068.068l-1.083-.008v.008l-.025.068a3.488,3.488,0,0,1,.372.778c.017,0,.025.008.034.025l.355.431a1.148,1.148,0,0,0,.491-.474,1.42,1.42,0,0,0-.144-1.286l-.812.152a.065.065,0,0,1-.025-.127l.863-.161a.058.058,0,0,1,.068.034,2.112,2.112,0,0,1,.279.956,1.046,1.046,0,0,1-.11.491,1.449,1.449,0,0,1-.829.66,7.786,7.786,0,0,1,.1,1.311v.423l.541.338.22-.347h0a.047.047,0,0,1,.042-.025h.008c.017,0,.025,0,.034.008a.169.169,0,0,0,.11.017.131.131,0,0,0,.093-.068l1-1.6a.143.143,0,0,0-.051-.2.169.169,0,0,0-.11-.017.131.131,0,0,0-.093.068l-1,1.6a.068.068,0,0,1-.118-.068l1-1.6a.272.272,0,0,1,.178-.127.261.261,0,0,1,.211.034.28.28,0,0,1,.135.237.345.345,0,0,1-.042.152l-1,1.6a.272.272,0,0,1-.178.127.311.311,0,0,1-.152-.008l-.186.3.592.372a.071.071,0,0,1,.034.059.051.051,0,0,1-.008.034.068.068,0,0,1-.093.025l-1.184-.736v.11l1.057.66c.1.068.2.127.2.237a.211.211,0,0,1-.034.118c-.127.2-.321.076-.423.017l-.8-.5v.406c0,.254-.008.507-.017.744a1.883,1.883,0,0,1,.474.068c.042.008.076.025.118.034a.064.064,0,0,1,.042.059V38.7a.07.07,0,0,1-.085.042c-.017-.008-.034-.008-.042-.017l-.025.1a1.269,1.269,0,0,1,.964,1.083.835.835,0,0,1-.025.2,1.166,1.166,0,0,1-1.463.634l-.025.1c.008,0,.025.008.034.008a.065.065,0,1,1-.025.127c-.034-.008-.068-.017-.11-.025a1.957,1.957,0,0,1-.313-.11c-.051.118-.11.237-.169.347a2.127,2.127,0,0,1-.44.541,3.69,3.69,0,0,1,1.193.347.151.151,0,0,1,.076.1v.034a1.008,1.008,0,0,1-.237.448.469.469,0,0,1-.051.068c.516-.068,1-.152,1.455-.254l-.161-.068C112.724,42.365,112.715,42.373,112.707,42.373Zm4.322-5.421a.179.179,0,0,0,.161,0,.059.059,0,0,1,.085.034.031.031,0,0,1,.008.025.071.071,0,0,1-.034.059.335.335,0,0,1-.271.008.326.326,0,0,1-.161-.423.064.064,0,0,1,.118.051A.186.186,0,0,0,117.029,36.952Zm-3.721-12.8-.186.144a.066.066,0,0,1-.085-.1l.186-.144a.067.067,0,0,1,.093.008.065.065,0,0,1,.017.042A.073.073,0,0,1,113.307,24.147Zm-2.749-1.26c.017-.034.059-.034.093-.017l1.057.727a.1.1,0,0,0,.135-.051l.3-.626a.112.112,0,0,0-.051-.144.064.064,0,1,1,.051-.118.244.244,0,0,1,.135.22.225.225,0,0,1-.025.1l-.3.626a.241.241,0,0,1-.321.11.008.008,0,0,1-.008-.008l-1.049-.727A.075.075,0,0,1,110.559,22.887Zm-.355-.33.195.135a.073.073,0,0,1,.025.051c0,.017,0,.025-.008.034-.017.034-.059.034-.093.017l-.195-.135c-.034-.017-.034-.059-.017-.093A.088.088,0,0,1,110.2,22.557Zm1.894,4.677-1.057.99a.066.066,0,0,1-.093-.093l1.057-1a.066.066,0,0,1,.093,0c.008.017.017.025.017.042A.052.052,0,0,1,112.1,27.234Zm-.846,4.592a2.009,2.009,0,0,1-.474-.3.1.1,0,0,1-.025-.068l.093-.541a.07.07,0,0,1,.034-.051c-.584-.55-.55-.592-.507-.643s.076-.093.778.4l.025-.178h0v-.025a.008.008,0,0,1,.008-.008h0l.169-.211a.077.077,0,0,1,.059-.025l.161.025a.054.054,0,0,1,.051.042l.1.254h0v.025l-.169,1.04A.26.26,0,0,1,111.252,31.827Zm2.25,6.182a.066.066,0,0,1,.051-.076l1.328-.271a.066.066,0,0,1,.076.051v.017a.074.074,0,0,1-.051.068l-1.328.271A.081.081,0,0,1,113.5,38.009Zm.076.364a.066.066,0,0,1,.051-.076l1.328-.271a.066.066,0,0,1,.076.051v.017a.074.074,0,0,1-.051.068l-1.328.271C113.62,38.432,113.578,38.407,113.578,38.373Zm.068.364a.066.066,0,0,1,.051-.076l1.328-.271a.066.066,0,0,1,.076.051v.017a.074.074,0,0,1-.051.068l-1.328.271A.081.081,0,0,1,113.646,38.736Zm.076.364a.066.066,0,0,1,.051-.076l1.328-.271a.066.066,0,0,1,.076.051v.017a.074.074,0,0,1-.051.068l-1.328.271A.081.081,0,0,1,113.722,39.1Zm.068.313a.066.066,0,0,1,.051-.076l1.328-.271a.066.066,0,0,1,.076.051v.017a.074.074,0,0,1-.051.068l-1.328.271A.081.081,0,0,1,113.789,39.413Zm-.321-1.81,1.827-.381h0a.317.317,0,0,1,.372.245l.093.448.634-.135a.357.357,0,0,1,.423.279.234.234,0,0,1,.008.076.329.329,0,0,1-.059.195.359.359,0,0,1-.228.152l-.634.135.093.448a.326.326,0,0,1-.042.237.314.314,0,0,1-.2.135h0l-.245.042-1.582.33a.065.065,0,1,1-.025-.127l1.582-.33.237-.042h0a.166.166,0,0,0,.11-.076.2.2,0,0,0,.025-.135l-.11-.516a.107.107,0,0,1,.008-.051.046.046,0,0,1,.042-.025l.7-.144a.208.208,0,0,0,.144-.093.238.238,0,0,0,.034-.169.227.227,0,0,0-.262-.178l-.7.144a.066.066,0,0,1-.076-.051l-.11-.516a.181.181,0,0,0-.211-.144h-.017l-.169.034.279,1.353v.017a.074.074,0,0,1-.051.068.066.066,0,0,1-.076-.051L115,37.425l-1.522.313a.066.066,0,0,1-.076-.051A.1.1,0,0,1,113.468,37.6Zm2,1.353.042.2v.017a.074.074,0,0,1-.051.068.066.066,0,0,1-.076-.051l-.042-.2a.066.066,0,0,1,.051-.076A.055.055,0,0,1,115.472,38.956Zm-.051-.761-.127-.609.127-.025.127.609a.008.008,0,0,0,.008.008.038.038,0,0,0,.042,0l.71-.144c.034-.008.211-.042.3.051.008.017.017.025.017.042a.12.12,0,0,1-.017.051.066.066,0,0,1-.093,0,.245.245,0,0,0-.178-.008l-.71.144a.161.161,0,0,1-.135-.017A.237.237,0,0,1,115.422,38.2Z"
    transform="translate(-99.132 -21.458)"
  />
  <path
    id="Path_66"
    data-name="Path 66"
    d="M180.648,120.81l-1-.11h-.008a.923.923,0,0,1-.406.355l-.135.71a5.57,5.57,0,0,0,1.6-.956Z"
    transform="translate(-164.494 -112.268)"
  />
  <path
    id="Path_67"
    data-name="Path 67"
    d="M149.321,226.3c-.008.051-.008.093-.017.144a1.471,1.471,0,0,1,.381.051,1.136,1.136,0,0,1,.795.685v.017a.064.064,0,0,1-.042.059.07.07,0,0,1-.085-.042.992.992,0,0,0-.7-.592,1.071,1.071,0,0,0-.364-.042,7.162,7.162,0,0,1-.288,1.353,1.485,1.485,0,0,0,.271.1,1.062,1.062,0,0,0,1.362-.524.586.586,0,0,0,.025-.169,1.413,1.413,0,0,0-1.336-1.04Z"
    transform="translate(-136.94 -208.937)"
  />
  <path
    id="Path_68"
    data-name="Path 68"
    d="M193.711,76.346a.746.746,0,0,0-.211.541,1.342,1.342,0,0,0,.406.913,1.234,1.234,0,0,0,1.184.4,5.382,5.382,0,0,0,.178-.77,1.128,1.128,0,0,0-.313-.634,1.115,1.115,0,0,0-.389-.271.064.064,0,1,1,.051-.118,1.356,1.356,0,0,1,.431.3,1.4,1.4,0,0,1,.262.381c.008-.085.017-.178.017-.262a1.445,1.445,0,0,0-.178-.22A1.053,1.053,0,0,0,193.711,76.346Zm.727.042V76.4a.066.066,0,0,1-.076.051.559.559,0,0,0-.237,0,.068.068,0,0,1-.017-.135,1.028,1.028,0,0,1,.279,0A.1.1,0,0,1,194.439,76.388Z"
    transform="translate(-177.676 -71.491)"
  />
  <path
    id="Path_69"
    data-name="Path 69"
    d="M154.171,204.661c.161.1.2.085.237.025a.12.12,0,0,0,.017-.051c0-.034-.068-.076-.135-.118l-.017-.017-.973-.6v.22Z"
    transform="translate(-140.876 -188.431)"
  />
  <path
    id="Path_70"
    data-name="Path 70"
    d="M135.051,151.12l-.431-.186a.328.328,0,0,0-.22-.025,2.834,2.834,0,0,1,.381.228l.169.068a.429.429,0,0,1,.211.211c.008.025.017.059.025.093h0a1.444,1.444,0,0,1,.093.118.4.4,0,0,0,.025-.144A.441.441,0,0,0,135.051,151.12Z"
    transform="translate(-123.574 -139.914)"
  />
  <path
    id="Path_71"
    data-name="Path 71"
    d="M136.868,263.993l.025.025.051-.085-.034-.008a.072.072,0,0,1-.042-.025.057.057,0,0,0-.059.034.107.107,0,0,0-.008.051h.017A.056.056,0,0,1,136.868,263.993Z"
    transform="translate(-125.771 -243.357)"
  />
</svg>
