<svg id="facebook_1_" data-name="facebook (1)" xmlns="http://www.w3.org/2000/svg" width="24.057" height="24.059" viewBox="0 0 24.057 24.059">
  <path id="Path_3412" data-name="Path 3412" d="M12.053,0A11.8,11.8,0,0,0,.025,11.53a11.31,11.31,0,0,0,4.009,8.58v3.448a.5.5,0,0,0,.767.425l2.794-1.745a12.411,12.411,0,0,0,4.459.819A11.8,11.8,0,0,0,24.082,11.53,11.8,11.8,0,0,0,12.053,0Z" transform="translate(-0.025 0)" fill="#2196f3"/>
  <path id="Path_3413" data-name="Path 3413" d="M101.309,170.9a.5.5,0,0,0-.641-.14L95.456,173.6l-3.243-2.781a.5.5,0,0,0-.681.026l-6.014,6.014a.5.5,0,0,0,.594.794l5.212-2.842,3.246,2.782a.5.5,0,0,0,.681-.026l6.014-6.014A.5.5,0,0,0,101.309,170.9Z" transform="translate(-81.362 -162.674)" fill="#fafafa"/>
</svg>
