<svg id="padlock" xmlns="http://www.w3.org/2000/svg" width="28.79" height="32.903" viewBox="0 0 28.79 32.903">
  <g id="Group_7" data-name="Group 7" transform="translate(0)">
    <g id="Group_6" data-name="Group 6">
      <path id="Path_41" data-name="Path 41" d="M59.5,23.264a1.285,1.285,0,0,0,1.285-1.285V17.223a5.147,5.147,0,0,0-5.141-5.141H54.1V7.549a7.713,7.713,0,0,0-15.423,0v4.533h-1.54A5.147,5.147,0,0,0,32,17.223V27.762A5.147,5.147,0,0,0,37.141,32.9H55.649a5.147,5.147,0,0,0,5.141-5.141,1.285,1.285,0,0,0-2.571,0,2.573,2.573,0,0,1-2.571,2.571H37.141a2.573,2.573,0,0,1-2.571-2.571V17.223a2.573,2.573,0,0,1,2.571-2.571H55.649a2.573,2.573,0,0,1,2.571,2.571v4.756A1.285,1.285,0,0,0,59.5,23.264ZM51.534,12.082H41.252V7.549a5.144,5.144,0,0,1,10.282,0Z" transform="translate(-32)" fill="#ddd"/>
    </g>
  </g>
</svg>
