<svg xmlns="http://www.w3.org/2000/svg" width="31.903" height="31.903" viewBox="0 0 31.903 31.903">
  <g id="phone-call" transform="translate(0 -0.001)">
    <g id="Group_33" data-name="Group 33" transform="translate(0 0.001)">
      <g id="Group_32" data-name="Group 32" transform="translate(0 0)">
        <path id="Path_75" data-name="Path 75" d="M249.246,23.583h.062a11.312,11.312,0,0,1,11.335,11.391,1.246,1.246,0,0,0,1.24,1.252h.006a1.246,1.246,0,0,0,1.246-1.24,13.8,13.8,0,0,0-13.827-13.9h-.068a1.246,1.246,0,0,0,.006,2.492Z" transform="translate(-232.547 -19.776)" fill="#ddd"/>
        <path id="Path_76" data-name="Path 76" d="M31.9,25.707a4.719,4.719,0,0,0-1.447-3.243,11.591,11.591,0,0,0-4.589-3.049,5.136,5.136,0,0,0-5.274,1.5l-.007.007L18.9,22.593a25.092,25.092,0,0,1-5.311-4.111l-.164-.164a25.249,25.249,0,0,1-4.109-5.312l1.672-1.685.007-.007a5.136,5.136,0,0,0,1.5-5.274A11.591,11.591,0,0,0,9.439,1.451a4.742,4.742,0,0,0-6.581-.237l-.036.032-.049.046A10.111,10.111,0,0,0,0,8.7c.026,5.123,2.841,10.982,7.532,15.673l.012.012a30.412,30.412,0,0,0,2.976,2.59A1.246,1.246,0,1,0,12.037,25a27.866,27.866,0,0,1-2.742-2.386L9.283,22.6c-4.23-4.235-6.768-9.434-6.791-13.911A7.7,7.7,0,0,1,4.514,3.077l.01-.009a2.242,2.242,0,0,1,3.122.113c3.227,3.346,2.993,4.926,1.567,6.388L6.9,11.9a1.246,1.246,0,0,0-.254,1.385,25.181,25.181,0,0,0,5.011,6.8l.164.164a25.18,25.18,0,0,0,6.8,5.01A1.246,1.246,0,0,0,20.008,25l2.327-2.31c1.462-1.426,3.042-1.66,6.388,1.567a2.242,2.242,0,0,1,.113,3.122l-.009.01a7.676,7.676,0,0,1-5.552,2.021h-.057a16.16,16.16,0,0,1-6.149-1.456,1.246,1.246,0,1,0-.987,2.289,18.385,18.385,0,0,0,7.124,1.66h.07a10.089,10.089,0,0,0,7.336-2.773l.046-.049.032-.036A4.72,4.72,0,0,0,31.9,25.707Z" transform="translate(0 -0.001)" fill="#ddd"/>
        <path id="Path_77" data-name="Path 77" d="M297,113.844a6.849,6.849,0,0,0-3.236-1.862,1.246,1.246,0,1,0-.664,2.4,4.359,4.359,0,0,1,2.138,1.222,4.454,4.454,0,0,1,1.21,2.1l.018.061a1.246,1.246,0,1,0,2.39-.707l-.017-.057A6.859,6.859,0,0,0,297,113.844Z" transform="translate(-273.976 -104.961)" fill="#ddd"/>
      </g>
    </g>
  </g>
</svg>
