<svg xmlns="http://www.w3.org/2000/svg" width="24.057" height="24.055" viewBox="0 0 24.057 24.055">
  <path id="skype" d="M23.36,14.579A11.393,11.393,0,0,0,10.192,1.006,6.663,6.663,0,0,0,0,6.56,6.469,6.469,0,0,0,.914,9.878a11.4,11.4,0,0,0,13.34,13.4,6.71,6.71,0,0,0,3.146.779A6.568,6.568,0,0,0,23.36,14.579ZM12.123,19.922c-2.347,0-4.64-.566-6-2.5-2.022-2.86.644-4.291,1.953-3.2,1.092.921.75,3.149,3.958,3.149,1.414,0,3.16-.6,3.16-2.005,0-2.821-6.259-1.486-8.747-4.562a3.774,3.774,0,0,1,.036-4.555c1.956-2.517,7.7-2.671,10.165-.77,2.279,1.764,1.664,4.1-.175,4.1-2.212,0-1.049-2.894-4.62-2.894-2.589,0-3.607,1.841-1.784,2.737,2.426,1.2,8.769.829,8.769,5.615C18.832,18.4,15.586,19.922,12.123,19.922Z" transform="translate(0 0.002)" fill="#03a9f4"/>
</svg>
