<svg id="snapchat" xmlns="http://www.w3.org/2000/svg" width="24.057" height="23.076" viewBox="0 0 24.057 23.076">
  <path id="Path_3420" data-name="Path 3420" d="M20.458,19.556c.983-.157,3.036-.529,3.093-1.52a.544.544,0,0,0-.451-.57h0c-3.034-.509-4.944-4-4.65-4.7.212-.505,1.161-.7,1.579-.865,2-.8,1.139-2.174-.043-2.174-.532,0-1.164.577-1.746.306.18-3.072.5-5.236-1.672-7.328-2.82-2.712-8.543-2.4-10.5,2.06-.58,1.322-.358,3.738-.265,5.269a1.863,1.863,0,0,1-1.4-.208c-1.023-.487-2.773,1.114-.382,2.076,1.036.414,2.017.532,1.469,1.665A8.007,8.007,0,0,1,4.319,15.42C2.068,18.087.017,17,.556,18.275v0c.342.813,2.158,1.139,3.036,1.279.242.46.066,1.516.889,1.516a7.86,7.86,0,0,1,2.6-.14c1.778.3,3.8,4.063,8.267.854v0a3.792,3.792,0,0,1,3.688-.793c1.485.293,1.072-.751,1.418-1.435Z" transform="translate(0.002 -0.478)" fill="#ffeb3b"/>
  <path id="Path_3421" data-name="Path 3421" d="M11.972,23.546c.017,0-.033.006-.085.006a5.665,5.665,0,0,1-3.477-1.36C5.334,19.977,3.95,23.339,3.208,20-1.043,19.246-.208,17.149.873,16.97A5.15,5.15,0,0,0,3.939,15.1a5.66,5.66,0,0,0,1.2-2.142c-.1-.241-1.008-.474-1.3-.592-3.024-1.219-.872-3.777.781-2.995a2.338,2.338,0,0,0,.662.221c-.092-1.5-.251-3.7.335-5.03a7.076,7.076,0,0,1,12.823,0c.587,1.337.426,3.525.334,5.008.49-.122,1.037-.571,1.909-.21,1.363.5,1.7,2.336-.836,3.133-.231.075-.85.275-.93.466a6.011,6.011,0,0,0,4.271,4.013,1.043,1.043,0,0,1,.868,1.094c-.072,1.273-1.938,1.709-3.205,1.934-.185.839-.323,1.559-1.249,1.559-1.584-.093-2.086-.71-3.953.635a5.5,5.5,0,0,1-3.675,1.351Zm2.992-2.1c2.268-1.631,2.82-1.024,4.635-.893.217,0,.062-.374.529-1.453.4-.079,2.641-.395,2.906-1.019h0l-.014-.122c-3.376-.567-4.846-4.031-4.907-4.178-1-2.061,1.761-2.044,2.477-2.79.291-.3.082-.571-.271-.7-.6-.249-.8.267-1.735.31a1.86,1.86,0,0,1-.862-.262c.223-3.124.529-5.324-1.5-7.277C13.662.6,8.347.818,6.534,4.963c-.546,1.243-.3,3.758-.2,5.385a2.031,2.031,0,0,1-2.144-.074c-.386-.183-1.736.45.022,1.16.473.189,1.544.392,1.854,1.138.477,1.149-1.843,4.852-5.028,5.387h0l-.017.124c.283.674,2.8.986,2.9,1.017a5.223,5.223,0,0,1,.425,1.373c.106.361,1-.354,2.826-.035,1.913.326,3.787,3.88,7.793,1.01Z" transform="translate(0.001 -0.479)" fill="#212121"/>
</svg>
