<svg xmlns="http://www.w3.org/2000/svg" width="22" height="22" viewBox="0 0 22 22">
  <g id="Group_69" data-name="Group 69" transform="translate(18881 12435)">
    <g id="star" transform="translate(-18881 -12435)">
      <path id="Path_82" data-name="Path 82" d="M17.875,22H4.125A4.125,4.125,0,0,1,0,17.875V4.125A4.125,4.125,0,0,1,4.125,0h13.75A4.125,4.125,0,0,1,22,4.125v13.75A4.125,4.125,0,0,1,17.875,22Zm0,0" fill="#ffefbe"/>
      <path id="Path_83" data-name="Path 83" d="M142.291,138.515a.761.761,0,0,0-.654-.523l-4.135-.376-1.635-3.825a.761.761,0,0,0-1.4,0l-1.635,3.825-4.135.376a.762.762,0,0,0-.432,1.332l3.126,2.74-.922,4.059a.761.761,0,0,0,1.133.823l3.566-2.132,3.565,2.132a.761.761,0,0,0,1.133-.823l-.922-4.059,3.126-2.741A.76.76,0,0,0,142.291,138.515Zm0,0" transform="translate(-124.166 -129.192)" fill="#ffc107"/>
    </g>
  </g>
</svg>
