<svg xmlns="http://www.w3.org/2000/svg" xmlns:xlink="http://www.w3.org/1999/xlink" width="159.021" height="154.022" viewBox="0 0 159.021 154.022">
  <defs>
    <linearGradient id="linear-gradient" x1="0.5" x2="0.5" y2="1" gradientUnits="objectBoundingBox">
      <stop offset="0" stop-color="#f05860"/>
      <stop offset="1" stop-color="#db494c"/>
    </linearGradient>
  </defs>
  <g id="Group_8071" data-name="Group 8071" transform="translate(-113.778 -318.003)">
    <path id="Path_3448" data-name="Path 3448" d="M2835.348,1233.744l-123.53,21.119a12.582,12.582,0,0,1-14.48-10.252s-12.1-125.082-1.068-126.967c0,0,129.753-12.9,131.638-1.866l17.692,103.486A12.583,12.583,0,0,1,2835.348,1233.744Z" transform="translate(-2572.98 -783.018)" fill="#c8c8c8"/>
    <path id="Path_3449" data-name="Path 3449" d="M2787.167,1245.514l-124.752,11.945a12.583,12.583,0,0,1-13.684-11.293s-2.833-125.634,8.306-126.7c0,0,130.35-3.284,131.417,7.854l10.007,104.51A12.582,12.582,0,0,1,2787.167,1245.514Z" transform="translate(-2531.803 -790.351)" fill="#ededed"/>
    <path id="Path_3450" data-name="Path 3450" d="M2732.58,1243.556l112.825,16.425a12.583,12.583,0,0,0,13.684-11.293s2.833-125.634-8.306-126.7c0,0-111.586-2.851-112.652,8.288l-11.719,95.394C2725.755,1232.539,2725.711,1242.9,2732.58,1243.556Z" transform="translate(-2605.852 -792.873)" fill="#ededed"/>
    <path id="Path_3509" data-name="Path 3509" d="M13,0H137.414a13,13,0,0,1,13,13V122.748a13,13,0,0,1-13,13H13a13,13,0,0,1-13-13V13A13,13,0,0,1,13,0Z" transform="translate(113.778 322.773)" fill="#fff"/>
    <path id="Path_3508" data-name="Path 3508" d="M16,0H134.414a16,16,0,0,1,16,16V35.283H0V16A16,16,0,0,1,16,0Z" transform="translate(113.778 322.773)" fill="url(#linear-gradient)"/>
    <path id="Path_3451" data-name="Path 3451" d="M3044.851,1004.626h0a3.069,3.069,0,0,1-3.06-3.06V994.36h6.119v7.206A3.069,3.069,0,0,1,3044.851,1004.626Z" transform="translate(-2906.596 -671.587)" fill="#bf3a37"/>
    <path id="Path_3452" data-name="Path 3452" d="M3811.133,1004.626h0a3.068,3.068,0,0,1-3.06-3.06V994.36h6.119v7.206A3.069,3.069,0,0,1,3811.133,1004.626Z" transform="translate(-3636.67 -671.587)" fill="#bf3a37"/>
    <path id="Path_3453" data-name="Path 3453" d="M4527.839,1004.626h0a3.068,3.068,0,0,1-3.06-3.06V994.36h6.119v7.206A3.069,3.069,0,0,1,4527.839,1004.626Z" transform="translate(-4319.512 -671.587)" fill="#bf3a37"/>
    <path id="Path_3454" data-name="Path 3454" d="M5249.573,1000.611h0a3.068,3.068,0,0,1-3.059-3.06v-7.206c0-.484,6.119.066,6.119.066v7.14A3.069,3.069,0,0,1,5249.573,1000.611Z" transform="translate(-5007.143 -667.572)" fill="#bf3a37"/>
    <rect id="Rectangle_388" data-name="Rectangle 388" width="6.119" height="14.007" rx="3.06" transform="translate(170.195 318.003)" fill="#ebebeb"/>
    <rect id="Rectangle_389" data-name="Rectangle 389" width="6.119" height="14.007" rx="3.06" transform="translate(204.23 318.003)" fill="#ebebeb"/>
    <rect id="Rectangle_390" data-name="Rectangle 390" width="6.119" height="14.007" rx="3.06" transform="translate(238.267 318.003)" fill="#ebebeb"/>
    <path id="Path_3455" data-name="Path 3455" d="M4785.862,3067.425l-35.579,37.41a70.44,70.44,0,0,0,1.356-10.725c.007-2.629-.531-4.922-.711-8.7-.507-10.591,5.626-13.289,8.521-14.857,4.441-2.4,11.724-.625,16.114-.91C4777.418,3069.524,4784.478,3069.216,4785.862,3067.425Z" transform="translate(-4534.359 -2646.697)" fill="#bababa"/>
    <path id="Path_3456" data-name="Path 3456" d="M4797.647,3012.948l-47.364,39.764a79.959,79.959,0,0,0,2.819-12.408c.294-3.079-.109-5.826.082-10.27.538-12.464,8.293-14.924,11.987-16.431,5.666-2.311,14.332.6,19.705.77C4787.146,3014.445,4795.768,3014.888,4797.647,3012.948Z" transform="translate(-4534.359 -2594.574)" fill="#e7e6e6"/>
    <rect id="Rectangle_391" data-name="Rectangle 391" width="20.064" height="13.008" transform="translate(129.301 377.798)" fill="#ebebeb"/>
    <rect id="Rectangle_392" data-name="Rectangle 392" width="20.064" height="13.008" transform="translate(129.301 400.95)" fill="#ebebeb"/>
    <rect id="Rectangle_393" data-name="Rectangle 393" width="20.064" height="13.008" transform="translate(161.229 400.95)" fill="#ebebeb"/>
    <rect id="Rectangle_394" data-name="Rectangle 394" width="20.064" height="13.008" transform="translate(193.158 400.95)" fill="#ebebeb"/>
    <rect id="Rectangle_395" data-name="Rectangle 395" width="20.064" height="13.008" transform="translate(224.471 400.95)" fill="#ebebeb"/>
    <rect id="Rectangle_396" data-name="Rectangle 396" width="20.064" height="13.008" transform="translate(129.301 424.103)" fill="#ebebeb"/>
    <rect id="Rectangle_397" data-name="Rectangle 397" width="20.064" height="13.008" transform="translate(161.229 424.103)" fill="#ebebeb"/>
    <rect id="Rectangle_398" data-name="Rectangle 398" width="20.064" height="13.008" transform="translate(193.158 424.103)" fill="#ebebeb"/>
    <rect id="Rectangle_399" data-name="Rectangle 399" width="20.064" height="13.008" transform="translate(161.229 377.798)" fill="#ebebeb"/>
    <rect id="Rectangle_400" data-name="Rectangle 400" width="20.064" height="13.008" transform="translate(193.158 377.798)" fill="#ebebeb"/>
    <rect id="Rectangle_401" data-name="Rectangle 401" width="20.064" height="13.008" transform="translate(225.087 377.798)" fill="#ebebeb"/>
    <rect id="Rectangle_402" data-name="Rectangle 402" width="6.119" height="14.007" rx="3.06" transform="translate(133.981 318.003)" fill="#ebebeb"/>
    <g id="Group_8070" data-name="Group 8070" transform="translate(144.982 386.511)">
      <g id="Group_8069" data-name="Group 8069" transform="translate(0 0)">
        <path id="Path_3457" data-name="Path 3457" d="M3795.531,2343.353c-.075.1-.045.325.159.292l.165-.377Z" transform="translate(-3769.667 -2343.268)" fill="url(#linear-gradient)"/>
        <path id="Path_3458" data-name="Path 3458" d="M3805.917,2345.622a1.3,1.3,0,0,0,.362-.332.552.552,0,0,0,.091-.49,1.09,1.09,0,0,1-.3.267,1.076,1.076,0,0,0-.314.327.25.25,0,0,1-.294-.293c-.04.047-.116.016-.2.009a.209.209,0,0,0-.233.12.651.651,0,0,0,.932.138C3806.024,2345.459,3805.941,2345.553,3805.917,2345.622Z" transform="translate(-3778.75 -2344.728)" fill="url(#linear-gradient)"/>
        <path id="Path_3459" data-name="Path 3459" d="M4152.4,2572.829l-.03-.126A.256.256,0,0,0,4152.4,2572.829Z" transform="translate(-4109.684 -2561.862)" fill="url(#linear-gradient)"/>
        <path id="Path_3460" data-name="Path 3460" d="M4218.61,2806.02c-.013-.088-.053-.123-.088-.126C4218.551,2805.974,4218.577,2806.04,4218.61,2806.02Z" transform="translate(-4172.707 -2784.033)" fill="url(#linear-gradient)"/>
        <path id="Path_3461" data-name="Path 3461" d="M4210.347,2847.55c.014-.041.021-.075.031-.113C4210.341,2847.479,4210.319,2847.521,4210.347,2847.55Z" transform="translate(-4164.906 -2823.614)" fill="url(#linear-gradient)"/>
        <path id="Path_3462" data-name="Path 3462" d="M4153.012,2575.371s.018.081.036.162l.031.164C4153.2,2575.648,4153.075,2575.511,4153.012,2575.371Z" transform="translate(-4110.292 -2564.404)" fill="url(#linear-gradient)"/>
        <path id="Path_3463" data-name="Path 3463" d="M3880.09,2352.483a.439.439,0,0,0-.2.059,1.559,1.559,0,0,1,.175,0C3880.073,2352.52,3880.08,2352.5,3880.09,2352.483Z" transform="translate(-3850.076 -2352.047)" fill="url(#linear-gradient)"/>
        <path id="Path_3464" data-name="Path 3464" d="M4073.146,2496.5l-.069-.063a1,1,0,0,0-.163.065l.116,0Z" transform="translate(-4033.979 -2489.195)" fill="url(#linear-gradient)"/>
        <path id="Path_3465" data-name="Path 3465" d="M4011.548,2442.881c.066.059.268-.2.374-.3a.328.328,0,0,1-.284.085A.744.744,0,0,0,4011.548,2442.881Z" transform="translate(-3975.513 -2437.885)" fill="url(#linear-gradient)"/>
        <path id="Path_3466" data-name="Path 3466" d="M3893.607,2384.514l-.06.006-.06.008C3893.519,2384.521,3893.57,2384.521,3893.607,2384.514Z" transform="translate(-3863.031 -2382.565)" fill="url(#linear-gradient)"/>
        <path id="Path_3467" data-name="Path 3467" d="M4116.09,2541.291a.346.346,0,0,0-.067.1A.23.23,0,0,0,4116.09,2541.291Z" transform="translate(-4075.051 -2531.934)" fill="url(#linear-gradient)"/>
        <path id="Path_3468" data-name="Path 3468" d="M3753.939,2392.762a.463.463,0,0,0,0,.058C3753.965,2392.785,3753.97,2392.761,3753.939,2392.762Z" transform="translate(-3730.076 -2390.423)" fill="url(#linear-gradient)"/>
        <path id="Path_3469" data-name="Path 3469" d="M3854.3,2421.491l-.064.021a1.555,1.555,0,0,0-.006.184Z" transform="translate(-3825.623 -2417.795)" fill="url(#linear-gradient)"/>
        <path id="Path_3470" data-name="Path 3470" d="M4190.791,2920.543a.134.134,0,0,0,.009-.013C4190.786,2920.432,4190.78,2920.484,4190.791,2920.543Z" transform="translate(-4146.281 -2893.201)" fill="url(#linear-gradient)"/>
        <path id="Path_3471" data-name="Path 3471" d="M3641.857,3155.795c.145.188-.026.243-.176.3s-.281.132-.045.364c-.01-.069.148-.158.257-.272S3642.059,3155.945,3641.857,3155.795Z" transform="translate(-3622.957 -3117.402)" fill="url(#linear-gradient)"/>
        <path id="Path_3472" data-name="Path 3472" d="M3886.173,2353.865a1.023,1.023,0,0,1,.169.038A.362.362,0,0,0,3886.173,2353.865Z" transform="translate(-3856.062 -2353.364)" fill="url(#linear-gradient)"/>
        <path id="Path_3473" data-name="Path 3473" d="M3644.233,3169.906v0l.049.045Z" transform="translate(-3625.553 -3130.846)" fill="url(#linear-gradient)"/>
        <path id="Path_3474" data-name="Path 3474" d="M4123.8,3075.8a.391.391,0,0,0,.163.022A.269.269,0,0,0,4123.8,3075.8Z" transform="translate(-4082.465 -3041.186)" fill="url(#linear-gradient)"/>
        <path id="Path_3475" data-name="Path 3475" d="M4190.333,2967.885l-.091.129A.407.407,0,0,0,4190.333,2967.885Z" transform="translate(-4145.763 -2938.371)" fill="url(#linear-gradient)"/>
        <path id="Path_3476" data-name="Path 3476" d="M4082.32,3129.758c-.078.031-.128.013-.186.115a.169.169,0,0,0,.051.01C4082.188,3129.824,4082.216,3129.776,4082.32,3129.758Z" transform="translate(-4042.764 -3092.595)" fill="url(#linear-gradient)"/>
        <path id="Path_3477" data-name="Path 3477" d="M4028.709,3165.092a.675.675,0,0,0,.081.037c.027-.019.059-.038.087-.056Z" transform="translate(-3991.863 -3126.242)" fill="url(#linear-gradient)"/>
        <path id="Path_3478" data-name="Path 3478" d="M3527.858,2436.432a.951.951,0,0,1,.255.225C3527.984,2436.455,3528.466,2436.206,3527.858,2436.432Z" transform="translate(-3514.678 -2431.944)" fill="url(#linear-gradient)"/>
        <path id="Path_3479" data-name="Path 3479" d="M3883.088,2353.8c.039-.076.079-.109.137-.114-.042-.006-.082-.008-.122-.01A.14.14,0,0,0,3883.088,2353.8Z" transform="translate(-3853.114 -2353.188)" fill="url(#linear-gradient)"/>
        <path id="Path_3480" data-name="Path 3480" d="M4108.1,3173.812l-.257.175c-.064.043-.128.088-.178.118l-.083.052A2.821,2.821,0,0,0,4108.1,3173.812Z" transform="translate(-4067.006 -3134.568)" fill="url(#linear-gradient)"/>
        <path id="Path_3481" data-name="Path 3481" d="M3260.994,2875.237l-.074-.121A.15.15,0,0,0,3260.994,2875.237Z" transform="translate(-3260.353 -2849.986)" fill="url(#linear-gradient)"/>
        <path id="Path_3482" data-name="Path 3482" d="M4066.322,3202.525a.923.923,0,0,0-.417-.031.31.31,0,0,0-.025.109Z" transform="translate(-4027.277 -3161.885)" fill="url(#linear-gradient)"/>
        <path id="Path_3483" data-name="Path 3483" d="M3533.255,2443a.007.007,0,0,1,0,0A.007.007,0,0,0,3533.255,2443Z" transform="translate(-3519.818 -2438.283)" fill="url(#linear-gradient)"/>
        <path id="Path_3484" data-name="Path 3484" d="M3265.821,2353c-.543.112-.162.469-.221.735-.6.265-.365-.24-.634-.4a1.053,1.053,0,0,0-.133.086,1.469,1.469,0,0,0-.12.107c-.077.074-.146.155-.214.229a.855.855,0,0,1-.408.311c-.041-.062-.1-.072-.061-.175a.907.907,0,0,1-.334.255,4.438,4.438,0,0,1-.446.17c-.078.027-.156.055-.232.086a1.9,1.9,0,0,0-.218.111.957.957,0,0,0-.343.328.253.253,0,0,1-.1-.081,1.337,1.337,0,0,1,.263.535,1.083,1.083,0,0,0-.273.2c-.076.062-.146.083-.237-.034.141-.042.115-.154.151-.26l-.1.1-.1.1c-.353-.3.279-.251.181-.53a3.312,3.312,0,0,0-.321.248l-.315.269a2.291,2.291,0,0,1-.306.221.72.72,0,0,1-.3.11c-.113-.168.081-.283.228-.374s.25-.15-.055-.221l.306-.037c.152-.02.305-.035.305-.035-.648-.427.359-.085-.271-.566a1.888,1.888,0,0,0-.774.35,2.218,2.218,0,0,1-.761.374c-.072.275.187.272.117.546a.832.832,0,0,1-.55.282.693.693,0,0,1-.23-.036,1.677,1.677,0,0,1-.209-.084c-.268-.124-.506-.247-.748.185-.032.166,0,.37-.047.538s-.157.3-.474.334c0,0-.014-.122-.029-.243l-.027-.245a.608.608,0,0,0-.383.545.392.392,0,0,1-.1.231.471.471,0,0,1-.144.094,1.241,1.241,0,0,1-.248.08.574.574,0,0,1,.2-.309c.089-.082.158-.133.095-.125-.317-.011-.36.1-.365.229s.027.292-.138.4l-.292-.28a5.049,5.049,0,0,0-.47.434c-.076.079-.152.158-.227.242l-.222.254c-.075.084-.147.172-.22.259l-.222.26c-.146.176-.3.344-.454.51-.042-.121-.007-.319-.248-.266a10.418,10.418,0,0,1-1.28,1.294c-.466.411-.95.814-1.388,1.209l.008.277c0,.068.006.139.009.19s.005.087.005.087c-.06.08-.234.067-.226-.062-.361.3.166.142.157.392-.116.221-.345.172-.344-.02a13.814,13.814,0,0,1-.441,1.49,3.7,3.7,0,0,1-.745,1.343l-.019-.094-.016-.094a.548.548,0,0,0-.1.386,1.343,1.343,0,0,0,.1.339,1.527,1.527,0,0,1,.054.157.541.541,0,0,1,.026.156.441.441,0,0,1-.162.326l-.024-.125a6.011,6.011,0,0,0-.325,1c-.071.345-.143.689-.192,1.026q-.021.126-.044.25c-.008.041-.016.083-.024.123l-.02.122c-.028.162-.061.319-.1.472-.02.076-.041.152-.06.225s-.043.147-.069.218a3.037,3.037,0,0,1-.181.409.328.328,0,0,1,.178.306,1.358,1.358,0,0,1-.005.225c0,.04-.008.08-.013.121s-.006.082-.009.123c-.021.327-.023.644.327.667a4.133,4.133,0,0,1-.189.444c-.055.111-.106.2-.145.29a1.754,1.754,0,0,0-.109.353c-.016.076-.031.165-.045.271s-.02.226-.027.37.13.245.267.343a.9.9,0,0,1,.365.366l-.35.079.232.206c.057.051.119.1.163.137l.075.062-.179.176-.178.178.085.157c.041.079.087.155.087.155-.017-.137.087-.321.191-.325a.95.95,0,0,1,.083.193,1.159,1.159,0,0,1,.049.211,1.724,1.724,0,0,1,0,.436c-.027.277-.107.509-.193.544l.106.175c.061.105.154.241.242.377s.178.271.246.371l.117.165c-.144.027-.272-.15-.413-.278a1.22,1.22,0,0,1,.153.157.219.219,0,0,1,.052.1c.008.054-.032.084-.074.113-.083.057-.171.113.1.339.044-.108.214-.04.287-.055a.792.792,0,0,0,0,.32,2.137,2.137,0,0,0,.108.378,2.532,2.532,0,0,0,.186.387,3.752,3.752,0,0,0,.226.35l-.265.021a3.309,3.309,0,0,0,.153.326q.084.161.177.323c.061.108.129.214.2.319l.213.317c.071.107.148.21.225.315l.229.317c.153.212.313.421.458.641a.3.3,0,0,1,.49-.32l-.24.317c.306.023-.068-.338.4-.18.188.334-.2.465-.43.353l.386.307c-.074.091-.187.036-.321.1.151.011.2.23.279.448a.959.959,0,0,0,.149.3.317.317,0,0,0,.282.115l-.07.093a7.887,7.887,0,0,0,.892.919c.138.118.272.232.409.353l.1.093.11.094c.074.064.15.133.229.206a.3.3,0,0,1,.35-.057,1.066,1.066,0,0,0,.447.088c.1.122.19.258.29.393s.2.274.313.414l.083.1c.028.034.058.067.087.1.06.066.121.132.185.2s.131.126.2.187a2.463,2.463,0,0,0,.222.168c.519.18.288-.133.59-.152-.147.268.484.665.043.623a9.437,9.437,0,0,0,.918.517c.143.069.3.131.484.2.093.035.193.074.305.111l.372.121c-.045-.167-.136-.28-.024-.333.2.057.335.336.241.448h-.062a1.772,1.772,0,0,1,.472.151,2.254,2.254,0,0,1,.221.122q.11.065.217.141c.143.1.281.215.419.331s.276.236.413.354c.549.466,1.107.892,1.69.779l-.064.008.17.011c.1.006.237.017.373.022l.54.023c.215.1.13.131.024.173s-.232.088-.1.236a2.475,2.475,0,0,1,.789.049,3.469,3.469,0,0,1,.62.206c.194.077.381.156.58.213a1.812,1.812,0,0,0,.654.063,1.048,1.048,0,0,0,.6.532,2.4,2.4,0,0,0,.436.128c.155.032.317.06.482.079l.5.06c.165.022.327.042.481.074a1.8,1.8,0,0,1,.8.338l-.02-.214c.277-.158.275.167.449.241,0-.163-.236-.225-.067-.313a18.947,18.947,0,0,1,3.165.47c1.064.226,2.143.469,3.212.589.391.037.507-.229.646-.441s.3-.365.789-.12l-.281.385a10.593,10.593,0,0,1,2.423-.284c.205-.013.41-.025.615-.041s.41-.043.612-.073.4-.077.6-.129a4.868,4.868,0,0,0,.581-.2c-.079.1-.062.217-.219.241a.608.608,0,0,0,.358.059,1.5,1.5,0,0,0,.41-.114,1.57,1.57,0,0,0,.181-.093,1.089,1.089,0,0,0,.144-.108c.08-.072.123-.144.112-.2.252-.032.1.188.285.264a.421.421,0,0,0,.284-.055,2.093,2.093,0,0,0,.269-.178c.172-.122.322-.24.453-.135.044.033-.067.117-.123.157a.681.681,0,0,1,.232-.134c.1-.042.215-.076.312-.122.2-.088.328-.177.168-.29a2.122,2.122,0,0,0,.83-.326c.062-.034.122-.072.181-.106s.119-.067.18-.1a1.244,1.244,0,0,1,.378-.113.443.443,0,0,1,.207-.264,3.311,3.311,0,0,1,.326-.161c.217-.1.4-.208.307-.451.123.235.41.173.689-.006a2.08,2.08,0,0,0,.376-.34,1.208,1.208,0,0,0,.223-.368c0,.207.37-.085.39.181a1.691,1.691,0,0,0,.392-.455c.074-.143.068-.269-.051-.342a.916.916,0,0,0,.333-.092.826.826,0,0,0,.245-.184,1.5,1.5,0,0,0,.179-.238,2.62,2.62,0,0,0,.14-.255,1.416,1.416,0,0,1,.28-.427.522.522,0,0,1,.49-.111c.316-.6.6-1.164.856-1.715s.494-1.084.723-1.606c.217.147.07.429-.074.7s-.289.53-.046.659a8.627,8.627,0,0,0,.385-1.417,4.8,4.8,0,0,1,.185-.64,3.285,3.285,0,0,1,.325-.656c.181-.221.143.242.176.365.038-.133.076-.265.12-.392s.091-.252.142-.374c.1-.244.2-.483.3-.717s.183-.472.254-.71a3.31,3.31,0,0,0,.119-.733c.046.018.063.133.069.239.049-.184.212-.4-.022-.449l.007.2a.2.2,0,0,1-.252-.073,1.1,1.1,0,0,1-.16-.336c-.087-.264-.142-.553-.229-.595.287.246.39.036.509-.149s.254-.345.6.012c-.01-.133-.078-.312-.241-.324.088-.166.193-.2.325.025a1.037,1.037,0,0,0-.1-.591.683.683,0,0,1-.031-.516c.113.025.132.155.252.246a2.393,2.393,0,0,1-.192-.541,1.114,1.114,0,0,1,.058-.641c.063.042.163,0,.135.149a2.293,2.293,0,0,0-.008-.632c-.013-.1-.029-.2-.046-.3s-.04-.2-.058-.3-.036-.2-.047-.3-.019-.2-.023-.3a2.021,2.021,0,0,1,.088-.656c.487.316.182-.315.619-.347l-.052-.265-.059-.265-.215.2a2.157,2.157,0,0,0-.121-.648.945.945,0,0,1-.038-.6l.183.335-.046-.425c-.01-.106-.028-.212-.038-.292l-.019-.132-.073.243c-.018.061-.036.121-.052.166l-.025.075a.357.357,0,0,0-.183-.189.455.455,0,0,0-.166-.022c-.095,0-.147-.024-.1-.32.025.059.021-.052.043-.208a.877.877,0,0,1,.179-.483s0,0,0,0a1.635,1.635,0,0,1-.206-.332.664.664,0,0,1-.04-.425c.129-.1.485.017.572-.048a.425.425,0,0,1-.2-.242,2.4,2.4,0,0,1-.11-.373,2.031,2.031,0,0,0-.118-.38.523.523,0,0,0-.234-.259.425.425,0,0,0,.373.006l-.322-.133c.059-.22.1-.259.284-.258-.032-.316-.16-.24-.265-.184s-.192.094-.148-.292c.035.052.073.016.141.126a3.241,3.241,0,0,0-.263-1.054,3.545,3.545,0,0,1-.29-1c.18-.16.249-.024.309.113s.106.273.254.11a6.053,6.053,0,0,0-.328-.7c-.131-.228-.268-.454-.4-.677s-.271-.444-.391-.665c-.061-.11-.116-.221-.165-.334s-.09-.227-.128-.341c0,0,.007.046.014.091s.013.091.013.091c-.308.06-.312-.128-.295-.378a1.768,1.768,0,0,0,0-.394.452.452,0,0,0-.195-.32c.093.086.377-.01.3-.009a5.6,5.6,0,0,0-1.446-1.878l.2.02a1.536,1.536,0,0,0-.114-.32c-.054-.109-.12-.221-.188-.332l-.2-.329a3.145,3.145,0,0,1-.177-.3c-.2-.009-.32-.217-.421.038,0-.049,0-.1-.008-.144s-.012-.091-.021-.134a1.561,1.561,0,0,0-.069-.247,1.63,1.63,0,0,0-.1-.221c-.019-.035-.039-.069-.06-.1s-.045-.063-.069-.094a3.061,3.061,0,0,0-.687-.615c-.125-.088-.249-.176-.369-.264a2.8,2.8,0,0,1-.339-.28,1.7,1.7,0,0,1-.144-.161,1.5,1.5,0,0,1-.126-.177,1.4,1.4,0,0,1-.17-.439c.1.1.33.132.252.054l-.125-.092-.128-.094-.15-.1-.407-.28c-.125.252-.016.208-.011.5a.9.9,0,0,1-.654-.212c.441.149.286-.324.241-.564-.03.083-.138.109-.181.183-.016-.174-.051-.239-.1-.249s-.107.036-.174.081c-.135.09-.3.183-.456-.157l.117-.087a1.479,1.479,0,0,0-.19-.065c-.065-.018-.133-.032-.2-.051a.731.731,0,0,1-.348-.184c.1-.318.3.05.474-.141a.689.689,0,0,0-.287-.1c-.053-.009-.108-.015-.163-.021s-.111-.009-.164-.014c-.214-.024-.4-.076-.449-.3.183.025.376.163.561.19a1.065,1.065,0,0,0-.155-.459,2.918,2.918,0,0,0-.236-.228l.019.023-.23-.256-.16-.177c-.043-.049-.073-.079-.073-.079s.023.043.044.088l.043.089a.961.961,0,0,1-.518.109.888.888,0,0,1-.366-.148,2.165,2.165,0,0,0-.37-.2.93.93,0,0,0-.228-.057.912.912,0,0,0-.28.011,1.844,1.844,0,0,0,.377-.086c.063-.028.075-.058.068-.094-.013-.071-.1-.163.008-.3-.1-.169-.274-.39-.161-.442-.209.048-.3-.066-.409-.171a.5.5,0,0,0-.545-.116c.017-.055-.057-.1-.113-.151s-.092-.121,0-.234c-.415-.1,0,.22-.093.332-.371.04-.649-.228-.986-.479-.083-.063-.169-.128-.26-.185a1.956,1.956,0,0,0-.29-.147,1.362,1.362,0,0,0-.324-.086,1.212,1.212,0,0,0-.367.013,2.23,2.23,0,0,0-.52.014,3.618,3.618,0,0,0-.408.094c-.128.036-.252.069-.391.1a2.107,2.107,0,0,1-.473.042c-.088-.121-.014-.207.084-.262a.872.872,0,0,1,.22-.08,1.229,1.229,0,0,0-1.011-.282c.1-.077.042-.18-.038-.33-.3-.037-.287.36-.63.11a1.464,1.464,0,0,1,.388-.38c-.369.019-.754.167-1.125.2-.061-.213.268-.255.42-.357l-.351,0a3.564,3.564,0,0,0-.372.033.7.7,0,0,0-.528.255s.061.035.121.072l.12.076c-.147-.008-.037-.278.081-.318.385-.188.482.186.48.3l-.265.032a.374.374,0,0,0,.229.305.774.774,0,0,0,.4.011,2.218,2.218,0,0,1,.9-.083l-.159.213-.157.213.3-.139c.076-.035.151-.067.208-.092l.095-.04c.078.151.081.431-.176.439.145.162.232.14.313.12s.157-.04.269.132c.021.05,0,.068-.035.077l.376-.04c-.095.078-.042.344-.227.217a.773.773,0,0,0,.387.184,1.418,1.418,0,0,0,.354.013c.217-.012.39-.031.438.185l-.059.01c.433.071.485,0,.521-.12a.441.441,0,0,1,.091-.188.6.6,0,0,1,.354-.158s.025.247.046.491.038.488.038.488l.216-.3c.079.046.231.144.144.26.4-.09.009-.165.279-.3a.7.7,0,0,0,.292.262,4.014,4.014,0,0,0,.366.168c.238.1.42.223.334.5.261-.17-.276-.376.223-.331-.079.3.05.339.23.355s.407.023.512.241c-.261.215-.5-.108-.3.326a.311.311,0,0,1,.3-.073.538.538,0,0,1,.22.193c.132.176.245.4.408.444.118-.176.294-.116.509.01.107.062.22.148.342.225a2.244,2.244,0,0,0,.385.2c-.056.048.123.249.354.49a7.412,7.412,0,0,1,.648.761l-.057.045a.459.459,0,0,1,.529-.011c.175.094.35.245.525.34a.485.485,0,0,1-.534.16l.271.235a.565.565,0,0,1,.49.1l-.285.171a1.749,1.749,0,0,0,.306.2c.109.063.225.122.34.19a1.322,1.322,0,0,1,.58.61c.122-.088.19-.319.3-.486s.268-.272.572-.086c-.1.128-.29.329-.457.245.055.026.235.063.261.195l-.378-.018c.1.293.267-.04.4.149-.176.149-.011.235-.171.33-.055-.028-.06-.211-.185-.216a1.369,1.369,0,0,1,.163.375.627.627,0,0,1,0,.354c.086-.1.237-.2.379-.075.16.181.133.256.075.323s-.143.124-.1.27c.2-.008.25.332.53.132.085.113-.031.231-.074.329a.8.8,0,0,1,.225.181c.081.083.167.179.244.262.155.163.3.26.371.041l-.016-.067c.013.006.021.018.036.026v0a1.493,1.493,0,0,1,.25.209,1.733,1.733,0,0,1,.191.255,2.868,2.868,0,0,1,.153.281c.047.1.084.2.123.3l.223.605a2.754,2.754,0,0,0,.13.285c.024.046.051.09.079.134a1.507,1.507,0,0,0,.085.129l-.1.051a4.515,4.515,0,0,1,.437.639,2.681,2.681,0,0,0,.212.3,1.092,1.092,0,0,0,.243.227c.055.135-.064.4-.215.389.112.154.2.233.258.342a.674.674,0,0,1,.073.2,1.506,1.506,0,0,1,.026.332.325.325,0,0,0-.153-.1.037.037,0,0,0-.043.021c-.01.019,0,.013-.072-.229a2.712,2.712,0,0,1,.028.309,1.428,1.428,0,0,0,.019.241.581.581,0,0,0,.095.222,1.592,1.592,0,0,0,.242.259c-.166-.04-.229.074-.232.219a.765.765,0,0,0,.126.42s.03-.094.056-.188l.053-.189a2.1,2.1,0,0,1,.181.68l-.406-.018a1.031,1.031,0,0,0-.01.363,1.143,1.143,0,0,0,.092.321,2.068,2.068,0,0,0,.161.292c.057.095.119.187.178.279a3.011,3.011,0,0,1,.162.274,1.01,1.01,0,0,1,.1.28.684.684,0,0,1-.01.29.729.729,0,0,1-.058.15,1.02,1.02,0,0,1-.1.155c.151.107.181-.029.216-.171s.066-.288.242-.2a.722.722,0,0,1-.013.173,1.167,1.167,0,0,1-.053.177,2.282,2.282,0,0,1-.164.333c-.117.206-.243.369-.236.438a.5.5,0,0,0,.239.568.945.945,0,0,1,.219.226.473.473,0,0,1,.061.16.551.551,0,0,1,0,.212c.134-.088.5-.192.65.3a.5.5,0,0,1-.1.282.449.449,0,0,1-.208.145.284.284,0,0,1-.37-.133c-.014-.107.026-.16.074-.157-.056-.144-.124-.33-.266-.147l.141.052a.8.8,0,0,0-.073.224c-.021.087-.039.18-.059.261-.041.163-.092.279-.207.208.135.332.228.144.3-.107a2.108,2.108,0,0,0-.1.732,2.3,2.3,0,0,1-.076.74c.081-.088.248-.166.241-.073a2.339,2.339,0,0,0-.052.263.647.647,0,0,0-.006.168.218.218,0,0,0,.092.163.389.389,0,0,1,.215.4c-.247.313-.487-.171-.378.436-.184.34-.372.028-.469-.123a.8.8,0,0,1,.047.2.754.754,0,0,1-.012.187,1.08,1.08,0,0,1-.126.332,2.659,2.659,0,0,1-.185.277,1.016,1.016,0,0,0-.135.231l-.062-.288a1.033,1.033,0,0,1-.012.438l.3-.1c-.038.076-.063.147-.092.2s-.067.077-.123.064c.072.1.191.091.314.1a.367.367,0,0,1,.337.239c-.093.094-.087.268-.113.417s-.076.274-.263.267c.142-.322.048-.324-.072-.319a.286.286,0,0,1-.172-.025c-.047-.032-.071-.1-.058-.244a.585.585,0,0,1-.1.4c-.046.014-.069-.04-.079-.087-.469.547.336.388.148,1.046a.266.266,0,0,0-.41.158c.084-.256.37-.029.446.261a.505.505,0,0,0-.133.412.484.484,0,0,1,.008.295l.158-.226c.167.15.069.354.026.671-.158-.03-.011-.305-.114-.224a.326.326,0,0,1,.04.156.3.3,0,0,1-.041.136,1.059,1.059,0,0,1-.221.242c-.174.16-.378.319-.358.586-.214.148-.365-.134-.526,0a.5.5,0,0,1-.241.491c-.032.024-.065.049-.1.077a.562.562,0,0,0-.09.093.575.575,0,0,0-.107.315c.318-.014.273-.074.336.4,0,0,0-.014.011-.039l.027-.1.081-.312c.029-.113.06-.225.078-.311l.032-.143.019.11c.011.066.028.156.039.243.024.177.048.355.048.355a1.373,1.373,0,0,0,.115-.413.708.708,0,0,1,.1-.325c.088.352.036.3.3.272a.39.39,0,0,0-.25.2.8.8,0,0,0-.067.295,1.485,1.485,0,0,1-.051.319.44.44,0,0,1-.212.256l-.6-.339a.867.867,0,0,0-.292.373,2.228,2.228,0,0,0-.132.455,3.527,3.527,0,0,1-.143.5,1.445,1.445,0,0,1-.323.483s.064-.039.126-.079l.126-.081c.081.123.018.242-.081.36a1.16,1.16,0,0,0-.26.388c-.17-.156-.341-.069-.524-.063.071.045-.021.168-.1.315a.416.416,0,0,0,.016.507l-.24.046-.237.044a.746.746,0,0,0-.088.083.666.666,0,0,0-.069.083.619.619,0,0,0-.085.176,1.573,1.573,0,0,0-.049.377.822.822,0,0,1-.3.721.438.438,0,0,0-.163-.29c-.062-.072-.092-.158,0-.372-.157.148-.327.247-.221.367-.048-.005-.085.033-.121.091a2.126,2.126,0,0,0-.109.213.935.935,0,0,1-.13.213.205.205,0,0,1-.186.076c-.008.135.12.345-.09.484a.147.147,0,0,1-.068-.091c.07.09-.223.356.105.43a1.021,1.021,0,0,0-.349,0,1.269,1.269,0,0,0-.32.1,4.1,4.1,0,0,0-.591.352c-.1.064-.2.123-.293.18a1.489,1.489,0,0,1-.3.14,1.066,1.066,0,0,1-.3.06.722.722,0,0,1-.147-.009.7.7,0,0,1-.148-.046c-.1.064-.208.13-.319.2-.054.034-.113.064-.17.094l-.174.09a5.551,5.551,0,0,1-.675.292c.007-.074-.032-.11.053-.112a.366.366,0,0,0-.307.1.687.687,0,0,0-.114.25.552.552,0,0,1-.135.251.473.473,0,0,1-.373.083c-.431-.281.316-.281.067-.367-.068-.179-.149-.25-.242-.262a.329.329,0,0,0-.149.021,1.34,1.34,0,0,0-.168.07,2.064,2.064,0,0,1-.376.157.493.493,0,0,1-.4-.07l.1-.062a.386.386,0,0,0-.3-.018,1.532,1.532,0,0,0-.326.148l-.178.1c-.061.032-.125.062-.191.089a1.121,1.121,0,0,1-.418.092.154.154,0,0,0-.007-.114,1.844,1.844,0,0,1-.777.47,7.208,7.208,0,0,1-.937.245c.173-.3.258-.166.14-.462-.256.051.091.483-.428.577-.172-.157-.548-.3-.6-.62l.242-.009.167-.008.075,0a.337.337,0,0,0-.439-.155c-.157.047-.316.137-.444.1l.034-.181a1.374,1.374,0,0,0-.445.1,2.638,2.638,0,0,0-.316.164,1.233,1.233,0,0,1-.809.183l.078.141c-.461.437-.358-.27-.814.046l-.108-.466c-.147.048-.407.142-.7.232a4.431,4.431,0,0,1-.875.188,4.969,4.969,0,0,1,1.329-.622,4.124,4.124,0,0,0-.613,0,.8.8,0,0,0-.525.177c.119-.036.273-.137.381-.057a1.614,1.614,0,0,1-.643.353,1.984,1.984,0,0,1-.79.05c.1-.439-.267-.531-.695-.617a3.7,3.7,0,0,1-.64-.159.7.7,0,0,1-.432-.376,2.229,2.229,0,0,1-.383.031,2.488,2.488,0,0,1-.374-.034,3.692,3.692,0,0,1-.37-.079c-.123-.034-.245-.073-.368-.114-.247-.08-.493-.179-.751-.264-.129-.042-.259-.087-.393-.124s-.272-.069-.413-.1c.059.194.069.285.047.327s-.074.032-.137.021c-.125-.023-.293-.055-.344.3-.277-.021-.376-.058-.387-.11l-.344-.312c-.086-.078-.171-.156-.233-.217l-.1-.1c-.128-.253.289-.08.308-.241-.546-.215-.153-.359-.466-.647,0,.268-.3.289-.585.1l.349.454a.585.585,0,0,1-.693-.336.607.607,0,0,0-.685-.357l.317-.124a7.251,7.251,0,0,1-.956-.229c-.094-.022-.19-.04-.285-.055a1.8,1.8,0,0,0-.28-.025,1,1,0,0,0-.51.123c-.036-.106-.046-.324.142-.3a3.441,3.441,0,0,0-.733-.273c-.131-.036-.265-.067-.4-.1l-.4-.1a4.056,4.056,0,0,1-.736-.247,1.34,1.34,0,0,1-.526-.41l.153-.113c-.187-.046-.446.114-.555-.156.048-.055.155-.109.087-.163a1.746,1.746,0,0,1-.353-.029.6.6,0,0,1-.38-.2l.284-.049a1.713,1.713,0,0,0-.262-.225,1.51,1.51,0,0,0-.268-.155,1.862,1.862,0,0,0-.278-.1c-.093-.028-.187-.05-.282-.07a3.392,3.392,0,0,1-1.137-.334.644.644,0,0,0,.021-.69,3.032,3.032,0,0,0-.185-.347c-.067-.108-.135-.2-.19-.282l.059-.044c-.1-.1-.188-.191-.286-.274-.049-.042-.1-.081-.147-.119l-.075-.056-.073-.056c-.1-.073-.2-.141-.3-.205q-.077-.048-.155-.094l-.152-.095c-.2-.125-.42-.241-.625-.378-.1-.068-.209-.138-.314-.212s-.2-.159-.3-.247a1.075,1.075,0,0,0-.039-.327,2.014,2.014,0,0,0-.12-.345q-.04-.088-.086-.177l-.1-.181c-.066-.123-.14-.248-.217-.374a5.291,5.291,0,0,1-.726-1.584c-.009.181-.364.166-.5.024-.011-.132-.162-.244-.26-.346s-.139-.192.083-.274l.03.082a.533.533,0,0,0,.143-.275.619.619,0,0,0-.02-.281,1.746,1.746,0,0,0-.112-.28c-.041-.093-.083-.186-.116-.276l-.595.17a1.539,1.539,0,0,0,.017-.922,3.136,3.136,0,0,0-.149-.438c-.03-.072-.064-.143-.1-.214s-.062-.142-.094-.212c-.062-.14-.129-.276-.178-.409a2.425,2.425,0,0,1-.112-.384.988.988,0,0,1-.019-.178.755.755,0,0,1,.02-.167.589.589,0,0,1,.161-.289.933.933,0,0,1-.126-.17c-.033-.061-.062-.125-.091-.188a1.452,1.452,0,0,0-.211-.366l.329-.031c0-.167,0-.312,0-.449,0-.068,0-.135,0-.2s0-.131,0-.2c0-.133-.015-.27-.027-.424s-.026-.325-.051-.528l.24.161a.3.3,0,0,0-.039-.154.526.526,0,0,0-.1-.131,2.06,2.06,0,0,0-.326-.228,2.229,2.229,0,0,1-.333-.232.383.383,0,0,1-.146-.289l.25-.051.25-.048a1.985,1.985,0,0,1,.037-.3c.021-.1.047-.2.075-.3l.042-.147c.014-.049.028-.1.045-.146.033-.1.065-.192.094-.289.014-.048.028-.1.039-.145l.017-.073.019-.072a1.931,1.931,0,0,0,.051-.292q.007-.074.007-.15c0-.025,0-.051,0-.077s0-.051,0-.076a1.551,1.551,0,0,0-.049-.319c.066.031.2.091.185.219.027-.089.083-.214.141-.353a3.115,3.115,0,0,0,.176-.424.7.7,0,0,0,.037-.373.312.312,0,0,0-.286-.208.177.177,0,0,0,.226-.063.447.447,0,0,0,.059-.136,1.116,1.116,0,0,0,.04-.181c.01-.066.016-.138.02-.212s.01-.149.013-.225c.007-.15.007-.3.016-.42l.26.205a3.814,3.814,0,0,1-.206-.551,1.086,1.086,0,0,1,.072-.556c.1-.088.281.037.124.138a.311.311,0,0,0,.139-.365.394.394,0,0,1,.189-.418l.071.273a1.19,1.19,0,0,0,.128-.21.325.325,0,0,0,.033-.149c0-.093-.046-.185-.076-.354a.694.694,0,0,1,.337-.409.559.559,0,0,1,.5-.073.541.541,0,0,1-.077-.324.382.382,0,0,1,.177-.314c.107.047.1.161.092.219a1.121,1.121,0,0,0,.349-.336,2.2,2.2,0,0,0,.192-.358,1.283,1.283,0,0,1,.185-.312.559.559,0,0,1,.134-.115.617.617,0,0,1,.188-.069.26.26,0,0,0,.195.082c-.213.193-.4.375-.532.5s-.21.2-.2.172c.109.1.252.079.373.1s.219.087.248.357c.02-.1.039-.231.067-.365a3.47,3.47,0,0,1,.106-.417,1.676,1.676,0,0,1,.178-.378.7.7,0,0,1,.272-.243.345.345,0,0,1,.113.038l-.012.056a.361.361,0,0,0,.182-.222,1.309,1.309,0,0,0,.342-.168c.1.079.221.023.341-.069s.245-.217.339-.281c-.213-.25.065-.388-.327-.436.044,0-.012.058-.126.164a.278.278,0,0,0-.058.088.323.323,0,0,1-.005-.032l-.438.378c.036-.243.1-.48.419-.493a4.99,4.99,0,0,1-.054-.622c.537.166,1.182.024,1.409.215.24-.273.58-.515.868-.784a2.462,2.462,0,0,0,.385-.425,1.221,1.221,0,0,0,.212-.51c.149-.165.293.048.4.1-.077.109-.207.165-.222.272a1.747,1.747,0,0,1,.285-.239c.11-.079.232-.153.34-.234.217-.16.39-.327.346-.545.28-.018.251.1.234.183s-.027.12.285-.054l-.036.159a1.561,1.561,0,0,0,.941-.24,3.093,3.093,0,0,0,.37-.277l.356-.315c.12-.106.243-.211.374-.307a2.221,2.221,0,0,1,.2-.134,1.955,1.955,0,0,1,.221-.106,1.653,1.653,0,0,1,1.1-.059c-.119-.025-.178-.035-.219-.1a5.086,5.086,0,0,0,.681-.078q.338-.053.672-.136l.334-.086c.112-.028.224-.057.336-.087l.335-.092.168-.046.169-.042c.225-.056.451-.11.678-.157s.456-.079.684-.1c.115-.012.229-.021.344-.026s.23,0,.345,0a4,4,0,0,1,.691.084c.518.066.54-.213.828-.456l.146.339.489-.455c.363-.187.71.006,1.075.157a1.132,1.132,0,0,0,1.208-.036l-.139-.228c.346.022,1.082-.207,1.04.069.033-.045.1-.252.241-.136l.021.183.83-.36c.664.1-.066.734.892.725.353-.087.991-.581.852-.7-.145,0-.373-.1-.392-.282l.322-.11c.036-.545.264-1.111-.558-1.454l-.546.357-.193-.254.472-.039c-.279-.235-.44-.008-.623.152a.454.454,0,0,0-.25-.278l-.526.546c-.078-.208.227-.434-.152-.531-.246.254.274.461-.146.642-.283-.231-.216-.438-.52-.208a.225.225,0,0,1,.131-.3c-.273.185-.744.117-.871.414-.3-.285-.948.146-.958-.368a1.522,1.522,0,0,1-.726.485c.211-.326-.033-.315-.322-.305s-.624.025-.594-.309a1.053,1.053,0,0,1-.813.456c-.175.035-.359.064-.537.107a1.612,1.612,0,0,0-.494.2c.029-.048.086-.146.145-.125-.358,0-.483-.151-.726-.223.018.459-.513.646-.76.969-.25-.182-.208-.324-.126-.473s.2-.3.1-.494c.04.182-.134.3-.292.415s-.3.217-.2.356c-.377-.21-.306-.08-.546-.422.047.569-.291.155-.5.554a.639.639,0,0,1-.377-.282.1.1,0,0,0-.1-.047.712.712,0,0,0-.244.111c-.144-.057-.111-.161-.04-.251a.816.816,0,0,1,.116-.118A.782.782,0,0,1,3265.821,2353Zm-11.144,6.4,0,0c.078-.08.143-.149.186-.191C3254.819,2359.239,3254.768,2359.3,3254.677,2359.4Zm-.78.75c.1-.084.218-.2.344-.32.105.055.156.168.075.238-.005-.047-.065-.04-.146-.013S3253.988,2360.123,3253.9,2360.146Zm3.113.256c-.088.131-.168.113-.227.074a2.44,2.44,0,0,0,.183-.2c0-.012-.006-.029-.011-.042A.516.516,0,0,1,3257.01,2360.4Z" transform="translate(-3248.922 -2350.04)" fill="url(#linear-gradient)"/>
        <path id="Path_3485" data-name="Path 3485" d="M3417.448,2550.583c.013-.019.015-.038.036-.058a.717.717,0,0,0-.118,0c.006.039.012.078.019.115Z" transform="translate(-3409.407 -2540.728)" fill="url(#linear-gradient)"/>
        <path id="Path_3486" data-name="Path 3486" d="M4152.26,2571.411l.006.022a.124.124,0,0,1,.014-.063A.208.208,0,0,1,4152.26,2571.411Z" transform="translate(-4109.576 -2560.592)" fill="url(#linear-gradient)"/>
        <path id="Path_3487" data-name="Path 3487" d="M3252.989,2850.821l.081-.018-.09-.082Z" transform="translate(-3252.789 -2826.743)" fill="url(#linear-gradient)"/>
        <path id="Path_3488" data-name="Path 3488" d="M4089.981,2464.277a.165.165,0,0,0,0-.114A.216.216,0,0,0,4089.981,2464.277Z" transform="translate(-4050.231 -2458.451)" fill="url(#linear-gradient)"/>
        <path id="Path_3489" data-name="Path 3489" d="M4044.266,2426.5l-.231-.3A1.85,1.85,0,0,0,4044.266,2426.5Z" transform="translate(-4006.465 -2422.283)" fill="url(#linear-gradient)"/>
        <path id="Path_3490" data-name="Path 3490" d="M4013.793,2407.479a.535.535,0,0,0-.1.1l0,0Z" transform="translate(-3977.553 -2404.445)" fill="url(#linear-gradient)"/>
        <path id="Path_3491" data-name="Path 3491" d="M4236.727,2980.289a.27.27,0,0,0-.011.078C4236.716,2980.559,4236.733,2980.434,4236.727,2980.289Z" transform="translate(-4190.041 -2950.189)" fill="url(#linear-gradient)"/>
        <path id="Path_3492" data-name="Path 3492" d="M4245.5,2784.728a1.7,1.7,0,0,1,.176.283C4245.691,2784.846,4245.689,2784.718,4245.5,2784.728Z" transform="translate(-4198.413 -2763.867)" fill="url(#linear-gradient)"/>
        <path id="Path_3493" data-name="Path 3493" d="M4118.6,3172.9s0,0,0-.005c-.018.016-.035.028-.054.043Z" transform="translate(-4077.452 -3133.693)" fill="url(#linear-gradient)"/>
        <path id="Path_3494" data-name="Path 3494" d="M4248.867,2791.156a.549.549,0,0,0-.015-.427A.914.914,0,0,0,4248.867,2791.156Z" transform="translate(-4201.587 -2769.586)" fill="url(#linear-gradient)"/>
        <path id="Path_3495" data-name="Path 3495" d="M3845.383,2344.218l-.092-.028a.1.1,0,0,1-.019.05Z" transform="translate(-3817.094 -2344.146)" fill="url(#linear-gradient)"/>
        <path id="Path_3496" data-name="Path 3496" d="M3843.056,2345.256l-.11.022C3842.994,2345.286,3843.036,2345.29,3843.056,2345.256Z" transform="translate(-3814.877 -2345.162)" fill="url(#linear-gradient)"/>
        <path id="Path_3497" data-name="Path 3497" d="M3838.055,2345.546l.115-.027.08-.019.036-.008C3838.21,2345.48,3838.117,2345.46,3838.055,2345.546Z" transform="translate(-3810.217 -2345.377)" fill="url(#linear-gradient)"/>
        <path id="Path_3498" data-name="Path 3498" d="M3900.938,2357.226l.061-.107A.245.245,0,0,0,3900.938,2357.226Z" transform="translate(-3870.129 -2356.464)" fill="url(#linear-gradient)"/>
        <path id="Path_3499" data-name="Path 3499" d="M3902.925,2355.707c-.171-.08-.383-.378-.658-.381l-.049.084c.083-.069.2.042.332.15S3902.809,2355.776,3902.925,2355.707Z" transform="translate(-3871.348 -2354.756)" fill="url(#linear-gradient)"/>
        <path id="Path_3500" data-name="Path 3500" d="M3954.84,2410.014l-.26-.176c-.065-.045-.131-.086-.181-.118l-.083-.052c.049.159.107.371-.161.287.139.163.205.225.239.233s.036-.042.042-.1C3954.45,2409.97,3954.484,2409.817,3954.84,2410.014Z" transform="translate(-3920.832 -2406.531)" fill="url(#linear-gradient)"/>
        <path id="Path_3501" data-name="Path 3501" d="M3999.153,2438.891c-.313-.118-.089.161-.141.213C3999.249,2439.111,3999.309,2439.112,3999.153,2438.891Z" transform="translate(-3963.541 -2434.345)" fill="url(#linear-gradient)"/>
        <path id="Path_3502" data-name="Path 3502" d="M4183.9,2655.528l-.29.079C4183.738,2655.824,4183.717,2655.567,4183.9,2655.528Z" transform="translate(-4139.441 -2640.773)" fill="url(#linear-gradient)"/>
        <path id="Path_3503" data-name="Path 3503" d="M4234.6,2693.323l.111-.3-.3-.052Z" transform="translate(-4187.844 -2676.443)" fill="url(#linear-gradient)"/>
        <path id="Path_3504" data-name="Path 3504" d="M4200.257,2740.807l-.06-.1.174.39Z" transform="translate(-4155.248 -2721.928)" fill="url(#linear-gradient)"/>
        <path id="Path_3505" data-name="Path 3505" d="M4036.883,3153.614l.23.3a.257.257,0,0,0,0-.28.149.149,0,0,0-.1-.079A.142.142,0,0,0,4036.883,3153.614Z" transform="translate(-3999.651 -3115.263)" fill="url(#linear-gradient)"/>
        <path id="Path_3506" data-name="Path 3506" d="M3823.654,3187.624a.38.38,0,0,0-.566-.145C3823.314,3187.517,3823.536,3187.667,3823.654,3187.624Z" transform="translate(-3795.958 -3147.513)" fill="url(#linear-gradient)"/>
        <path id="Path_3507" data-name="Path 3507" d="M3327.977,2888.487l.18.136-.218-.3Z" transform="translate(-3324.205 -2862.567)" fill="url(#linear-gradient)"/>
      </g>
    </g>
  </g>
</svg>
