<svg xmlns="http://www.w3.org/2000/svg" width="32.903" height="32.903" viewBox="0 0 32.903 32.903">
  <path id="user" d="M16.452,32.9A16.452,16.452,0,0,1,4.818,4.818,16.452,16.452,0,0,1,28.085,28.085,16.344,16.344,0,0,1,16.452,32.9Zm0-30.333A13.881,13.881,0,1,0,30.333,16.452,13.9,13.9,0,0,0,16.452,2.571Zm-.064,15.1A6.169,6.169,0,1,1,22.557,11.5,6.176,6.176,0,0,1,16.387,17.673Zm0-9.768a3.6,3.6,0,1,0,3.6,3.6A3.6,3.6,0,0,0,16.387,7.9ZM24.53,25.157a1.285,1.285,0,0,0,.18-1.809,9.491,9.491,0,0,0-7.368-3.491H15.818A9.49,9.49,0,0,0,8.45,23.349a1.285,1.285,0,0,0,1.989,1.629,6.929,6.929,0,0,1,5.379-2.55h1.525a6.929,6.929,0,0,1,5.379,2.55,1.285,1.285,0,0,0,1.809.18Z" transform="translate(0 0)" fill="#ddd"/>
</svg>
