<svg id="whatsapp" xmlns="http://www.w3.org/2000/svg" width="24.057" height="24.162" viewBox="0 0 24.057 24.162">
  <path id="Path_3422" data-name="Path 3422" d="M.514,24.162a.514.514,0,0,1-.5-.65l1.571-5.736a11.981,11.981,0,1,1,10.488,6.187h-.005A12,12,0,0,1,6.528,22.6L.645,24.145a.517.517,0,0,1-.13.017Zm0,0" transform="translate(0 0.001)" fill="#e5e5e5"/>
  <path id="Path_3423" data-name="Path 3423" d="M10.894,34.029l1.627-5.94a11.467,11.467,0,1,1,9.936,5.742h0a11.457,11.457,0,0,1-5.479-1.4Zm6.36-3.669.348.206a9.518,9.518,0,0,0,4.851,1.328h0a9.53,9.53,0,1,0-8.073-4.465l.227.361-.963,3.516Zm0,0" transform="translate(-10.38 -10.381)" fill="#fff"/>
  <path id="Path_3424" data-name="Path 3424" d="M19.344,41.716l1.57-5.735a11.07,11.07,0,1,1,9.592,5.543h0a11.067,11.067,0,0,1-5.29-1.347Zm0,0" transform="translate(-18.431 -18.468)" fill="#64b161"/>
  <g id="Group_6362" data-name="Group 6362" transform="translate(0.514 0.514)">
    <path id="Path_3425" data-name="Path 3425" d="M10.894,34.029l1.627-5.94a11.467,11.467,0,1,1,9.936,5.742h0a11.457,11.457,0,0,1-5.479-1.4Zm6.36-3.669.348.206a9.518,9.518,0,0,0,4.851,1.328h0a9.53,9.53,0,1,0-8.073-4.465l.227.361-.963,3.516Zm0,0" transform="translate(-10.894 -10.895)" fill="#fff"/>
    <path id="Path_3426" data-name="Path 3426" d="M135.406,142.115c-.215-.477-.441-.487-.645-.495-.167-.007-.358-.007-.549-.007a1.053,1.053,0,0,0-.764.359,3.212,3.212,0,0,0-1,2.389,5.573,5.573,0,0,0,1.17,2.963,11.76,11.76,0,0,0,4.894,4.325c2.42.955,2.913.765,3.438.717A2.893,2.893,0,0,0,143.882,151a2.393,2.393,0,0,0,.167-1.362c-.072-.119-.263-.191-.549-.334s-1.7-.837-1.958-.932-.454-.143-.645.144-.74.932-.907,1.123-.334.215-.621.072a7.834,7.834,0,0,1-2.3-1.422,8.633,8.633,0,0,1-1.594-1.984c-.167-.286,0-.428.126-.585a8.635,8.635,0,0,0,.716-.98.528.528,0,0,0-.024-.5C136.218,144.1,135.661,142.682,135.406,142.115Zm0,0" transform="translate(-126.71 -135.444)" fill="#fff" fill-rule="evenodd"/>
  </g>
</svg>
